<svg xmlns="http://www.w3.org/2000/svg" viewBox="0 0 1500 1200"><defs><style>.cls-1{fill:#ffa3a1;}.cls-2{fill:#d16e6b;}.cls-3{fill:#e5ba63;}.cls-4{fill:#f9dc9b;}.cls-5{fill:#b24747;}.cls-6{fill:#fff;}.cls-7{fill:none;stroke:#914141;stroke-linecap:round;stroke-miterlimit:10;stroke-width:6px;}.cls-8{fill:#1c0a0a;}.cls-9{fill:#5b4040;}</style></defs><title>cheshirecat</title><g id="body"><path class="cls-1" d="M1475,464c-1.75,31.72-6.41,116.33-66,173-58.88,56-139.87,54.73-264,51-131.21-4-134-26.44-242-31-205.16-8.67-269.06,69.38-341,19-74.1-51.88-82.68-188.14-48-281,25.78-69,64.92-121.37,114-141,77.07-30.83,193.77-87.42,312.49-125.31q21.93-7,43.87-13.06c17.9-4.93,35.74-9.3,53.39-13,2.75-.58,5.51-1.13,8.25-1.67a649.89,649.89,0,0,1,67.56-9.87A411.16,411.16,0,0,1,1174.37,90a314.62,314.62,0,0,1,75.75,13.79c19.66,6.06,38,13.5,56.88,21.26q2.34,1,4.62,1.93a289.26,289.26,0,0,1,52.61,28.9c59,41.4,75.44,91,88.77,117.17C1470.65,307.66,1479.51,382.16,1475,464Z" transform="translate(-359 -89.32)"/><path class="cls-1" d="M500,585S351,782,580,793c0,0,87-8,11-69,0,0,52-19-4-60,0,0,42-24,4-49S500,585,500,585Z" transform="translate(-359 -89.32)"/><path class="cls-2" d="M1032,503s3,174-283,240c0,0,5,32-36,52,0,0-59,33-71-12,0,0-52-12-22-54,0,0-73-19-15-68s102-55,102-55L902,476S1005,430,1032,503Z" transform="translate(-359 -89.32)"/><path class="cls-1" d="M1023,498s3,174-283,240c0,0,5,32-36,52,0,0-46,34-58-11,0,0-48-10-18-52,0,0-73-18-15-67s85-59,85-59L893,471S996,425,1023,498Z" transform="translate(-359 -89.32)"/><path class="cls-2" d="M597,670" transform="translate(-359 -89.32)"/><path class="cls-2" d="M1061,372c-7.94,2.27-21.11-44.53-81-166-14.89-30.21-28.12-55.8-39.51-77.31q21.93-7,43.87-13.06A441,441,0,0,1,1013,161C1067.27,260.22,1072.71,368.65,1061,372Z" transform="translate(-359 -89.32)"/><path class="cls-2" d="M1238,391c-4.77-.36,3.51-47.32-12-134-14.16-79.14-38.52-137.52-48-159q-1.8-4.08-3.63-8a314.62,314.62,0,0,1,75.75,13.79C1301.72,240.34,1246.62,391.65,1238,391Z" transform="translate(-359 -89.32)"/><path class="cls-2" d="M1178,362c-3.81,29.13-12.82,67.31-21,67-9.33-.35-9.59-50.48-31-143-15.73-68-27.48-92.3-33-103-12.67-24.57-15-21-53-77l-2.25-3.33c2.75-.58,5.51-1.13,8.25-1.67a649.89,649.89,0,0,1,67.56-9.87A517.37,517.37,0,0,1,1151,173C1165.85,214.56,1188.64,280.61,1178,362Z" transform="translate(-359 -89.32)"/><path class="cls-2" d="M1342,375c-9.44-.7-1-80.32-20-195-3.06-18.42-6.56-36.12-10.38-53.07a289.26,289.26,0,0,1,52.61,28.9c1.92,9.15,3.53,18.54,4.77,28.17C1381.78,283,1352.27,375.76,1342,375Z" transform="translate(-359 -89.32)"/></g><g id="tail"><path class="cls-2" d="M1261,950c-212,101-362-1-362-42,0-30.35,185.48,69.26,226-106,2.47-10.69,6.9-39.47,8-42,8.64-19.84,1.74-46.11,3.24-62.6,1.3-14.33,2.9-30.33,10-53.11,2.28-7.34,5.14-15.38,8.75-24.29q2.63-6.48,5.42-12.63a327.44,327.44,0,0,1,31.49-54.53,385.8,385.8,0,0,1,36.31-43.51c9.23-9.62,18-18,25.78-25.33l6.69-6.33c49.82-47,84.4-77.83,126.31-73.67,59.3,5.88,100.63,78.59,116,125C1547.12,662.26,1412.05,878,1261,950Z" transform="translate(-359 -89.32)"/><path class="cls-1" d="M1261,972c-212,101-362-23-362-64,0-30.35,119.06,50.9,206.52-99.26,5.52-9.48,10.92-19.88,16.15-31.3q1.68-3.65,3.33-7.44c8.64-19.84,9.74-34.11,11.24-50.6,1.3-14.33,2.9-30.33,10-53.11,2.28-7.34,5.14-15.38,8.75-24.29q2.63-6.48,5.42-12.63a327.44,327.44,0,0,1,31.49-54.53,385.8,385.8,0,0,1,36.31-43.51c9.23-9.62,18-18,25.78-25.33l6.69-6.33c49.82-47,84.4-77.83,126.31-73.67,59.3,5.88,100.63,78.59,116,125C1547.12,684.26,1412.05,900,1261,972Z" transform="translate(-359 -89.32)"/><path class="cls-2" d="M1383,653c-6.33,9.19-85.41-14.35-131-77a183.59,183.59,0,0,1-23.78-44.67c9.23-9.62,18-18,25.78-25.33l6.69-6.33c7.1,12.82,15.15,26,24.31,39.33C1335.76,612.86,1388.61,644.86,1383,653Z" transform="translate(-359 -89.32)"/><path class="cls-2" d="M1347,773c-4.57,7.15-71.1-17.46-126-69-17.37-16.3-45.1-42.33-60.58-74.63a327.44,327.44,0,0,1,31.49-54.53A374.28,374.28,0,0,0,1235,658C1287.12,733.36,1351.65,765.72,1347,773Z" transform="translate(-359 -89.32)"/><path class="cls-2" d="M1316,879c-5.3,8.3-79.92-12.8-131-71-24.36-27.76-39.7-59.77-48.76-88.6,1.3-14.33,2.9-30.33,10-53.11,11.15,23.89,29.22,59.9,60.75,100.71C1265.24,842.39,1320.86,871.38,1316,879Z" transform="translate(-359 -89.32)"/><path class="cls-2" d="M1206,905c-4.45,5-49.34-16.5-79-57a175.59,175.59,0,0,1-21.48-39.26c5.52-9.48,10.92-19.88,16.15-31.3A440.18,440.18,0,0,0,1149,827C1181.24,877.56,1209.9,900.58,1206,905Z" transform="translate(-359 -89.32)"/></g><g id="head"><path class="cls-2" d="M649,627c129.5,0,186.61-40.32,222-83,34-41,62-42,62-42-14-1-31-22-31-22,17,4,30-11,30-11-15-3-29-17-29-17,25-2,28-21,28-21-42-34-46-123-49-158-2.17-25.32,12.93-75.25,21.45-100.92,3-9-10-21.07-19.45-22.08-63.49-6.78-124,44-124,44-53.5-20.5-111-20-111-20s-67.5,2.5-121,23c0,0-57.5-51.33-121-44.54a14.94,14.94,0,0,0-12.46,19.61c8.51,25.67,23.62,75.6,21.45,100.93-3,35-3.5,118.5-47.5,162.5,0,0,5.5,7.5,30.5,9.5,0,0-16,26-31,29a120.93,120.93,0,0,0,32-3s-7.5,23.5-27,29c0,0,19,1,54,44S522,632,649,627Z" transform="translate(-359 -89.32)"/><path class="cls-1" d="M640,624c129.5,0,187-40,222-83s56-41,56-41c-19.5-5.5-24-25-24-25,17,4,27-4,27-4-15-3-28-22-28-22,25-2,27.5-16.5,27.5-16.5C876.5,388.5,876,305,873,270c-2.17-25.32,12.93-75.25,21.45-100.92A15,15,0,0,0,882,149.46C818.49,142.67,751,191,751,191c-53.5-20.5-111-20-111-20s-57.5-.5-111,20c0,0-67.5-48.33-131-41.54a14.94,14.94,0,0,0-12.46,19.61c8.51,25.67,23.62,75.6,21.45,100.93-3,35-3.5,118.5-47.5,162.5,0,0,2.5,14.5,27.5,16.5,0,0-13,19-28,22,0,0,10,8,27,4,0,0-4.5,19.5-24,25,0,0,21-2,56,41S510.5,624,640,624Z" transform="translate(-359 -89.32)"/><path class="cls-2" d="M486,215s-27,7-51,34c0,0-10-53-15-66S455,171,486,215Z" transform="translate(-359 -89.32)"/><path class="cls-2" d="M796,215s27,7,51,34c0,0,10-53,15-66S827,171,796,215Z" transform="translate(-359 -89.32)"/><ellipse class="cls-3" cx="188.5" cy="275.18" rx="48.5" ry="53.5"/><ellipse class="cls-4" cx="184.5" cy="275.18" rx="48.5" ry="53.5"/><path class="cls-2" d="M556.78,290.67c3,1.45,24.73,12,31.72,6.26,5.62-4.61.74-18.94-10.15-26.09-15-9.83-40.63-5.7-43.14,1C532.59,278.93,554.88,289.74,556.78,290.67Z" transform="translate(-359 -89.32)"/><ellipse class="cls-3" cx="379.5" cy="275.18" rx="48.5" ry="53.5"/><ellipse class="cls-4" cx="375.5" cy="275.18" rx="48.5" ry="53.5"/><path class="cls-2" d="M725.22,290.67c-3,1.45-24.73,12-31.72,6.26-5.62-4.61-.74-18.94,10.15-26.09,15-9.83,40.63-5.7,43.14,1C749.41,278.93,727.12,289.74,725.22,290.67Z" transform="translate(-359 -89.32)"/><path class="cls-5" d="M728,512s-12.77,22.76-45.74,34.36c-38.07-30.19-67.34-11.3-80.16.8C567.37,535.84,554,512,554,512c60,9,87-34,87-34S668,521,728,512Z" transform="translate(-359 -89.32)"/><path class="cls-6" d="M540,491" transform="translate(-359 -89.32)"/><path class="cls-1" d="M532,504c78,31,109-28,109-28h0s30.08,59.47,108.55,29.69V465H532Z" transform="translate(-359 -89.32)"/><path class="cls-7" d="M749.54,505.7C671.07,535.48,641,476,641,476h0s-31,59-109,28" transform="translate(-359 -89.32)"/><path class="cls-8" d="M641,476c-25,0-38.78-22.73-36-38,2-11,36-12,36-12s34,1,36,12C679.78,453.27,666,476,641,476Z" transform="translate(-359 -89.32)"/><path class="cls-9" d="M641,471c-25,0-38.78-20.73-36-36,2-11,36-12,36-12s34,1,36,12C679.78,450.27,666,471,641,471Z" transform="translate(-359 -89.32)"/><path class="cls-7" d="M544.12,484.84s-2,26.85-36.95,22.21" transform="translate(-359 -89.32)"/><path class="cls-7" d="M737.88,484.84s2,26.85,37,22.21" transform="translate(-359 -89.32)"/><path class="cls-2" d="M682.26,546.36a132,132,0,0,1-80.16.8C614.92,535.06,644.19,516.17,682.26,546.36Z" transform="translate(-359 -89.32)"/></g></svg>