<?xml version="1.0" encoding="utf-8"?>
<!-- Generator: Adobe Illustrator 22.1.0, SVG Export Plug-In . SVG Version: 6.00 Build 0)  -->
<svg version="1.1" id="Layer_1" xmlns="http://www.w3.org/2000/svg" xmlns:xlink="http://www.w3.org/1999/xlink" x="0px" y="0px"
	 viewBox="0 0 200 200" style="enable-background:new 0 0 200 200;" xml:space="preserve">
<style type="text/css">
	.st0{fill:#999999;}
	.st1{fill:#6D6D6D;}
	.st2{fill:#FFFFFF;}
</style>
<g>
	<circle class="st0" cx="100" cy="100" r="70"/>
	<path class="st1" d="M100,35c35.8,0,65,29.2,65,65s-29.2,65-65,65s-65-29.2-65-65S64.2,35,100,35 M100,25c-41.4,0-75,33.6-75,75
		s33.6,75,75,75s75-33.6,75-75S141.4,25,100,25L100,25z"/>
</g>
<path class="st2" d="M140.4,90.4h-30.8V59.6c0-5.3-4.3-9.6-9.6-9.6s-9.6,4.3-9.6,9.6v30.8H59.6c-5.3,0-9.6,4.3-9.6,9.6
	s4.3,9.6,9.6,9.6h30.8v30.8c0,5.3,4.3,9.6,9.6,9.6s9.6-4.3,9.6-9.6v-30.8h30.8c5.3,0,9.6-4.3,9.6-9.6S145.7,90.4,140.4,90.4z"/>
</svg>
