<svg xmlns="http://www.w3.org/2000/svg" viewBox="0 0 315.75 636.32"><defs><style>.cls-1{isolation:isolate;}.cls-2{fill:#efd3ab;}.cls-3{fill:#633c0d;}.cls-4{fill:#ffedcf;}.cls-5{fill:#53321d;}.cls-6{fill:#fff689;}.cls-7{fill:#386772;}.cls-8{fill:#f4bc4a;}.cls-9{fill:#93877c;opacity:0.2;mix-blend-mode:darken;}</style></defs><title>alex</title><g class="cls-1"><g id="Layer_3" data-name="Layer 3"><path class="cls-2" d="M243.11,515.5s-.24,35.26-1.32,71.36c-.53,18-1.27,36.21-2.3,50.35-.47,6.46-1,12.07-1.59,16.43l-12.37,0s-.45-6.34-1.09-16.4c-.79-12.17-1.87-29.81-2.83-48.27-1.34-25.88-2.44-53.37-2.12-69.66Z" transform="translate(-41.76 -64.5)"/><path class="cls-3" d="M265.66,698.34a11.76,11.76,0,0,1-7.3,2.48,11.57,11.57,0,0,1-8.32-3.41l-24.81-25.56a9.49,9.49,0,0,1-2.67-5.46h0v0a9.57,9.57,0,0,1,0-2.14v-27h19.72v21.85l24.42,25.17A9.34,9.34,0,0,1,265.66,698.34Z" transform="translate(-41.76 -64.5)"/><path class="cls-4" d="M156.17,515.5s.7,105.14,5.2,138.14l12.37,0s6.78-96.83,6-134.33Z" transform="translate(-41.76 -64.5)"/><path class="cls-4" d="M60.15,376.68l-13,1.89a1.5,1.5,0,0,0-.64,2.72h0a.69.69,0,0,1,0,1.15L44,384.13a4.88,4.88,0,0,0,1.28,8.75l1.38.41a16.06,16.06,0,0,0,12.45-1.36L69,386.38a.69.69,0,0,0,.16-1.09l-8.36-8.42A.7.7,0,0,0,60.15,376.68Z" transform="translate(-41.76 -64.5)"/><path class="cls-2" d="M354,392.88l-1.38.41a16.06,16.06,0,0,1-12.45-1.36l-3.83-2.15-6.06-3.4a.69.69,0,0,1-.15-1.09l8.36-8.42a.67.67,0,0,1,.59-.19l4.42.64,8.57,1.25a1.5,1.5,0,0,1,.64,2.72.69.69,0,0,0,0,1.15l2.56,1.69A4.88,4.88,0,0,1,354,392.88Z" transform="translate(-41.76 -64.5)"/><path class="cls-5" d="M135,195s2.25,51.67,40.25,65.67L200,257V170l-56-1Z" transform="translate(-41.76 -64.5)"/><path class="cls-5" d="M265,195h0c0,.56-1.15,23.2-12.94,42.42-5.6,9.14-13.62,17.52-25.09,22.36l-.42.18-.24.1c-.51.2-1,.41-1.56.6L200.06,257H200V170l24.82-.44L254.9,169l1.09,0Z" transform="translate(-41.76 -64.5)"/><path class="cls-5" d="M160,122" transform="translate(-41.76 -64.5)"/><path class="cls-6" d="M277,100" transform="translate(-41.76 -64.5)"/><rect class="cls-4" x="150.91" y="168" width="14.67" height="24.5"/><path class="cls-7" d="M344.21,375.13s-.23.86-.67,2.19c-1.1,3.32-3.55,9.57-7.16,12.46a6.38,6.38,0,0,1-3.81,1.55c-15.57.42-71.36-48.59-95-94.9-.09-.16-.17-.32-.25-.48l-7.51,26.72H169.51L162,296.06l0-.11c-23.51,46.45-79.64,95.8-95.26,95.38a6.39,6.39,0,0,1-3.82-1.55c-3.6-2.9-6-9.13-7.15-12.46-.44-1.33-.67-2.2-.67-2.2,48.8-12,81.22-105.34,110.1-112.91h0c3-.76,5.57-1.56,7.89-2.37l.12,0c20.28-7.16,17.74-15.73,17.74-15.73h17.31s-2.54,8.64,18,15.82l.24.08c2.22.77,4.71,1.52,7.5,2.24l.32.09C263.19,270.36,295.54,363.18,344.21,375.13Z" transform="translate(-41.76 -64.5)"/><path class="cls-8" d="M281,576.05a204.33,204.33,0,0,1-39.19,10.81,146,146,0,0,1-20.18,2.08c-3.56.11-7.13.06-10.67-.18,0,0-10.73-162-10.9-163.72,0,1.09-.35,2.71-.4,3.91-1.82,44-11,159.81-11,159.81-3.63.25-7.29.29-10.94.18a149.29,149.29,0,0,1-20.19-2.12,204.77,204.77,0,0,1-38.92-10.77C114,505.6,163.47,372.21,163.47,372.21L162,296.06l0-2.73,3.22-1.89V261.88l7.65-2.18h0l.4-.11v31.85s9.88,2.89,26.4,2.89h.4c17.63-.36,26.26-2.88,26.26-2.88V259.59l.66.19,7.4,2.1v29.56l3.24,1.72-.06,3.27-1.47,75.78S285.5,505.6,281,576.05Z" transform="translate(-41.76 -64.5)"/><path class="cls-3" d="M176.72,666.35a9.57,9.57,0,0,0,0-2.14v-27H157v21.85l-24.42,25.17a9.34,9.34,0,0,0,1,14.11h0a11.9,11.9,0,0,0,15.62-.93l24.82-25.56a9.62,9.62,0,0,0,2.67-5.46h0Z" transform="translate(-41.76 -64.5)"/><path class="cls-2" d="M255,173c0,32.95-20.74,60.17-47.63,64.42h-.14c22.88-7.87,39.6-32.84,39.6-62.42,0-35.9-24.62-65-55-65a47.13,47.13,0,0,0-7.06.53A47.06,47.06,0,0,1,200,108C230.38,108,255,137.1,255,173Z" transform="translate(-41.76 -64.5)"/><path class="cls-4" d="M246.83,175c0,29.58-16.72,54.55-39.6,62.42H200V238h0a46.8,46.8,0,0,1-9.13-.9c-25.21-5-44.61-30.2-45.81-61,0-1-.06-2-.06-3.05,0-29.66,16.8-54.67,39.77-62.47a47.13,47.13,0,0,1,7.06-.53C222.21,110,246.83,139.1,246.83,175Z" transform="translate(-41.76 -64.5)"/><path class="cls-5" d="M265,195h0a86.54,86.54,0,0,1-11.87-5.09,129.36,129.36,0,0,1-28.31-20.35A175.49,175.49,0,0,1,200,141l-.36.53a178.1,178.1,0,0,1-24.46,28,129.62,129.62,0,0,1-28.3,20.35A89.2,89.2,0,0,1,135,195s-10.24-88.78,48.93-102.29A71.3,71.3,0,0,1,197.73,91c.63,0,1.27,0,1.91,0H200c.77,0,1.52,0,2.27,0a70.61,70.61,0,0,1,13.81,1.69C275.24,106.23,265,195,265,195Z" transform="translate(-41.76 -64.5)"/><path class="cls-8" d="M242,124a75.59,75.59,0,0,0-10.29-4.11,104.76,104.76,0,0,0-32.06-5.21,95.18,95.18,0,0,0-31.17,5.07A97.32,97.32,0,0,0,158,124c.47-.5,15.71-16.54,37.35-19a33.44,33.44,0,0,1-11.43-12.28c-3.57-6.46-6-15.56-4.93-28.21,0,0,13.31,8,18.73,26.53a54.67,54.67,0,0,1,1.91,9.61c.14,1.31.24,2.65.3,4h.12A56.39,56.39,0,0,1,202.27,91C207.69,72.53,221,64.5,221,64.5c1.08,12.65-1.36,21.75-4.92,28.22a33.63,33.63,0,0,1-11.2,12.12C216.32,105.8,229,111,242,124Z" transform="translate(-41.76 -64.5)"/><path class="cls-9" d="M221.61,588.94c-3.56.11-7.13.06-10.67-.18,0,0-10.73-162-10.9-163.72v-181h7.29v-6.63h44.72c-5.6,9.14-13.62,17.52-25.09,22.36l7.4,2.1v.41c28.83,8.07,61.18,100.89,109.85,112.84,0,0-.23.86-.67,2.19l-7.16,12.46a6.38,6.38,0,0,1-3.81,1.55c-15.57.42-71.36-48.59-95-94.9l-1.47,75.78S285.5,505.6,281,576.05a204.33,204.33,0,0,1-39.19,10.81" transform="translate(-41.76 -64.5)"/><path class="cls-2" d="M207.33,237.43v6.63H200V238A47.58,47.58,0,0,0,207.33,237.43Z" transform="translate(-41.76 -64.5)"/></g></g></svg>