<svg id="Capa_1" data-name="Capa 1" xmlns="http://www.w3.org/2000/svg" viewBox="0 0 319.7 512"><defs><style>.cls-1{fill:#ff8d7e;}.cls-2{fill:#ffb4a9;}.cls-3{fill:#1990c2;}.cls-4{fill:#2dade3;}.cls-5{fill:#ffe2a8;}.cls-6{fill:#fff0d3;}.cls-7{fill:#ffcb63;}</style></defs><title>alice</title><path class="cls-1" d="M427.27,109.11a7.6,7.6,0,0,0-7.61,7.61,68.6,68.6,0,0,1-68.51,68.51H275v15.22h76.12a83.82,83.82,0,0,0,83.73-83.73A7.61,7.61,0,0,0,427.27,109.11Z" transform="translate(-115.18)"/><path class="cls-2" d="M198.91,185.23a68.59,68.59,0,0,1-68.5-68.51,7.62,7.62,0,0,0-15.23,0,83.82,83.82,0,0,0,83.73,83.73H275V185.23Z" transform="translate(-115.18)"/><path class="cls-2" d="M237,289.22V488.75l-25.24,8.41a7.61,7.61,0,0,0,4.81,14.45L247,501.46a7.62,7.62,0,0,0,5.21-7.22v-205Z" transform="translate(-115.18)"/><path class="cls-1" d="M313.09,289.22V488.75l25.24,8.41a7.61,7.61,0,1,1-4.81,14.45l-30.45-10.15a7.61,7.61,0,0,1-5.2-7.22v-205Z" transform="translate(-115.18)"/><path class="cls-3" d="M335.93,167.46a15.23,15.23,0,0,1,15.22,15.23V203a15.23,15.23,0,0,1-30.45,0l-15.22-15.23H320.7v-5.07A15.23,15.23,0,0,1,335.93,167.46Z" transform="translate(-115.18)"/><path class="cls-4" d="M214.14,167.46a15.23,15.23,0,0,0-15.23,15.23V203a15.23,15.23,0,0,0,30.45,0l15.22-15.23H229.36v-5.07A15.23,15.23,0,0,0,214.14,167.46Z" transform="translate(-115.18)"/><path class="cls-5" d="M300.4,167.46H270v121.8H320.7V187.76A20.3,20.3,0,0,0,300.4,167.46Z" transform="translate(-115.18)"/><path class="cls-6" d="M270,167.46h-20.3a20.3,20.3,0,0,0-20.3,20.3v101.5h60.9V187.76A20.3,20.3,0,0,0,270,167.46Z" transform="translate(-115.18)"/><polygon class="cls-3" points="226.43 347.11 180.75 331.88 199.35 377.55 229.79 377.55 226.43 347.11"/><polygon class="cls-4" points="189.91 292.3 93.27 347.11 89.91 377.55 199.35 377.55 189.91 292.3"/><path class="cls-7" d="M341.61,347.11l-6.06-54.81a60.76,60.76,0,0,0-14.85-33.49H290.26l20.9,88.3Z" transform="translate(-115.18)"/><path class="cls-5" d="M311.16,347.11,305.1,292.3a60.75,60.75,0,0,0-14.84-33.49h-60.9a60.64,60.64,0,0,0-14.84,33.49l-6.06,54.81Z" transform="translate(-115.18)"/><path class="cls-5" d="M242,59.85,205.22,98.43A22.83,22.83,0,0,0,221.75,137H275V59.85Z" transform="translate(-115.18)"/><path class="cls-7" d="M344.85,98.43,308.11,59.85H275V137h53.29a22.83,22.83,0,0,0,16.53-38.58Z" transform="translate(-115.18)"/><path class="cls-3" d="M275,45.67A45.67,45.67,0,0,0,320.7,0,45.67,45.67,0,0,0,275,45.67Z" transform="translate(-115.18)"/><path class="cls-4" d="M229.36,0A45.67,45.67,0,0,0,275,45.67,45.67,45.67,0,0,0,229.36,0Z" transform="translate(-115.18)"/><path class="cls-1" d="M309.8,61.74s-34.77,0-34.77,0V137A45.66,45.66,0,0,0,309.8,61.74Z" transform="translate(-115.18)"/><path class="cls-2" d="M289.13,74.1,240.26,61.74A45.66,45.66,0,0,0,275,137c8.41,0,15.23-20.45,15.23-45.67A127.67,127.67,0,0,0,289.13,74.1Z" transform="translate(-115.18)"/><path class="cls-7" d="M275,45.67l14.1,28.43A49.13,49.13,0,0,0,309.8,61.74,45.56,45.56,0,0,0,275,45.67Z" transform="translate(-115.18)"/><path class="cls-5" d="M275,45.67a45.54,45.54,0,0,0-34.76,16.07A49.12,49.12,0,0,0,289.13,74.1C286.87,57.42,281.4,45.67,275,45.67Z" transform="translate(-115.18)"/></svg>