<svg id="Capa_1" enable-background="new 0 0 512 512" height="512" viewBox="0 0 512 512" width="512" xmlns="http://www.w3.org/2000/svg"><g><path d="m255.649 480.601c-11.123 19.427-34.005 30.18-56.953 24.923h.009c-22.986-5.258-38.931-24.951-40.449-47.32-18.469 12.679-43.771 12.423-62.163-2.306-18.374-14.71-24.172-39.31-15.868-60.094-22.132 3.435-44.825-7.744-55.036-28.975-10.221-21.25-4.764-45.991 11.778-61.129-21.421-6.522-36.996-26.452-36.967-49.998.029-23.546 15.631-43.439 37.061-49.911-16.504-15.185-21.894-39.927-11.635-61.148 10.25-21.202 32.961-32.335 55.084-28.861-8.258-20.795-2.412-45.384 15.99-60.057 18.421-14.691 43.733-14.9 62.174-2.173 1.565-22.37 17.547-42.034 40.544-47.245 22.957-5.201 45.811 5.6 56.896 25.037 11.094-19.427 33.957-30.209 56.915-24.98 22.986 5.239 38.949 24.904 40.496 47.273 18.45-12.698 43.751-12.461 62.164 2.24 18.393 14.701 24.21 39.292 15.935 60.085 22.122-3.454 44.825 7.697 55.064 28.918 10.24 21.24 4.812 45.982-11.711 61.138 21.42 6.502 37.023 26.413 37.023 49.959v.18.37c-.057 23.546-15.688 43.42-37.118 49.873 16.485 15.194 21.857 39.946 11.569 61.157-10.277 21.193-32.998 32.296-55.111 28.804 8.228 20.803 2.363 45.384-16.058 60.037-18.441 14.663-43.752 14.853-62.174 2.107-1.594 22.369-17.595 42.005-40.591 47.197-3.872.873-7.735 1.291-11.531 1.291-18.792.001-36.141-10.211-45.337-26.392z" fill="#e7a561"/><path d="m115.99 415.139c0-6.542 1.226-13.106 3.709-19.329-2.648.413-5.306.608-7.944.608-19.452 0-38.11-10.901-47.095-29.59-3.513-7.294-5.172-15.001-5.172-22.584 0-14.517 6.079-28.601 16.948-38.543-21.399-6.512-36.967-26.406-36.967-49.928v-.072c.021-11.776 3.925-22.635 10.509-31.352 6.573-8.727 15.836-15.321 26.551-18.556-10.808-9.942-16.856-23.985-16.856-38.461 0-7.624 1.68-15.362 5.224-22.687 9.005-18.638 27.643-29.487 47.033-29.487 2.679 0 5.368.206 8.047.628-2.452-6.192-3.668-12.714-3.668-19.215 0-15.331 6.728-30.538 19.658-40.841 3.987-3.184 8.304-5.687 12.796-7.521-6.285-2.565-13.002-3.864-19.751-3.864-11.405 0-22.893 3.719-32.506 11.385-12.92 10.303-19.658 25.5-19.658 40.841 0 6.501 1.205 13.023 3.668 19.215-2.679-.422-5.368-.628-8.047-.628-19.4 0-38.039 10.849-47.043 29.487-3.534 7.325-5.213 15.063-5.213 22.677 0 14.476 6.048 28.518 16.855 38.471-10.715 3.235-19.977 9.829-26.561 18.556-6.581 8.717-10.497 19.577-10.507 31.353v.052c0 23.532 15.557 43.427 36.967 49.948-10.859 9.942-16.948 24.026-16.948 38.543 0 7.593 1.669 15.29 5.172 22.584 8.984 18.69 27.653 29.59 47.095 29.59 2.637 0 5.296-.196 7.943-.608-2.483 6.223-3.709 12.776-3.709 19.318 0 15.3 6.707 30.466 19.576 40.769 9.623 7.707 21.142 11.457 32.588 11.457 6.748 0 13.466-1.298 19.761-3.874-4.533-1.844-8.871-4.368-12.879-7.583-12.879-10.303-19.576-25.459-19.576-40.759z" fill="#e49542"/><path d="m148.764 48.211c3.462 1.401 6.789 3.184 9.911 5.347.206-2.895.649-5.749 1.319-8.521-3.812.63-7.583 1.681-11.23 3.174zm9.499 409.994c-3.101 2.133-6.398 3.895-9.819 5.275 3.606 1.484 7.325 2.534 11.096 3.153-.649-2.751-1.081-5.563-1.277-8.428z" fill="#e49542"/><g><g fill="#e49542"><circle cx="256" cy="120.702" r="20.457"/><circle cx="256" cy="391.298" r="20.457"/></g></g><g><g fill="#e49542"><circle cx="138.829" cy="188.351" r="20.457"/><circle cx="373.171" cy="323.649" r="20.457"/></g></g><g><g fill="#e49542"><circle cx="138.829" cy="323.649" r="20.457"/><circle cx="373.171" cy="188.351" r="20.457"/></g></g><g><circle cx="256" cy="256" fill="#e49542" r="20.457"/></g></g></svg>