<svg id="Layer_1" data-name="Layer 1" xmlns="http://www.w3.org/2000/svg" viewBox="0 0 400 400"><defs><style>.cls-1{fill:#9b6743;}.cls-2{fill:#d8985d;}.cls-3{fill:#774a2b;}.cls-4{fill:#935c37;}.cls-5{fill:#e8b077;}</style></defs><title>cookie-4</title><path class="cls-1" d="M450,250c0,110.46-89.54,200-200,200A200,200,0,0,1,50,250C50,139.54,139.54,50,250,50A199.91,199.91,0,0,1,450,250Z" transform="translate(-50 -50)"/><path class="cls-2" d="M413,222c0,110.46-89.54,200-200,200a199.09,199.09,0,0,1-101.26-27.49A199.38,199.38,0,0,1,50,250C50,139.54,139.54,50,250,50A199.09,199.09,0,0,1,351.26,77.49,199.38,199.38,0,0,1,413,222Z" transform="translate(-50 -50)"/><path class="cls-3" d="M384.75,179l-13.82,18.21a9.29,9.29,0,0,1-13.18,1.66L339.4,184.3a9.33,9.33,0,0,1-3.31-9.23l3.72-17.37a9.28,9.28,0,0,1,7.65-7.23l20.31-3.18a9.16,9.16,0,0,1,4.24.32,9.32,9.32,0,0,1,5.59,4.83l8.12,16.88A9.32,9.32,0,0,1,384.75,179Z" transform="translate(-50 -50)"/><path class="cls-4" d="M378.47,172.71l-13.81,18.21a9.29,9.29,0,0,1-13.18,1.66l-14.75-11.7a9.22,9.22,0,0,1-.64-5.81l3.72-17.37a9.28,9.28,0,0,1,7.65-7.23l20.31-3.18a9.16,9.16,0,0,1,4.24.32l7.44,15.44A9.3,9.3,0,0,1,378.47,172.71Z" transform="translate(-50 -50)"/><path class="cls-3" d="M268.35,278.47a9.3,9.3,0,0,1-9.48,9.32l-23.4-.44a9.32,9.32,0,0,1-8.24-5.35l-.64-1.35-6.93-14.71a9.3,9.3,0,0,1,1.71-10.4l14.22-14.84a9.31,9.31,0,0,1,10.93-1.85l15.06,7.66,1.64.83a9.32,9.32,0,0,1,5.08,8.27Z" transform="translate(-50 -50)"/><path class="cls-4" d="M262.08,272.2a9.3,9.3,0,0,1-9.48,9.32l-23.41-.45a9.49,9.49,0,0,1-2.6-.42l-6.93-14.71a9.3,9.3,0,0,1,1.71-10.4l14.22-14.84a9.31,9.31,0,0,1,10.93-1.85l15.06,7.66a9.21,9.21,0,0,1,.45,2.83Z" transform="translate(-50 -50)"/><path class="cls-3" d="M307.44,399.67A9.32,9.32,0,0,1,298,409l-23.41-.45a9.29,9.29,0,0,1-8.23-5.34l-.64-1.36-6.93-14.71a9.31,9.31,0,0,1,1.7-10.4l14.23-14.84a9.31,9.31,0,0,1,10.93-1.85l15.05,7.66,1.64.84a9.29,9.29,0,0,1,5.08,8.27Z" transform="translate(-50 -50)"/><path class="cls-4" d="M301.16,393.4a9.31,9.31,0,0,1-9.48,9.33l-23.4-.45a9.37,9.37,0,0,1-2.6-.43l-6.93-14.71a9.31,9.31,0,0,1,1.7-10.4l14.23-14.84a9.31,9.31,0,0,1,10.93-1.85l15.05,7.66a8.92,8.92,0,0,1,.45,2.83Z" transform="translate(-50 -50)"/><path class="cls-3" d="M173.62,360,153.84,372.5a9.32,9.32,0,0,1-9.82.08l-15.16-9.23a9.34,9.34,0,0,1-4.32-9.61l3.7-20.23a9.32,9.32,0,0,1,8.1-7.57L155,323.83a9.27,9.27,0,0,1,8.79,4.1l12.65,19A9.31,9.31,0,0,1,173.62,360Z" transform="translate(-50 -50)"/><path class="cls-4" d="M167.34,353.7l-19.77,12.53a9.32,9.32,0,0,1-9.82.08l-12.82-7.81a9.22,9.22,0,0,1-.39-4.76l3.7-20.23a9.32,9.32,0,0,1,8.1-7.57L155,323.83a9.23,9.23,0,0,1,4.31.53l10.85,16.34A9.29,9.29,0,0,1,167.34,353.7Z" transform="translate(-50 -50)"/><path class="cls-3" d="M385.5,289.75l-6.9,17.41a9.3,9.3,0,0,1-7.76,5.83l-22.75,2.19a9.31,9.31,0,0,1-9.82-6.62,9.62,9.62,0,0,1-.35-1.94l-1.74-23.35a9.3,9.3,0,0,1,4.55-8.7l15.29-9a9.3,9.3,0,0,1,10.52.72l12.48,9.9,3.61,2.87A9.33,9.33,0,0,1,385.5,289.75Z" transform="translate(-50 -50)"/><path class="cls-4" d="M379.23,283.47l-6.9,17.42a9.3,9.3,0,0,1-7.76,5.83l-22.75,2.19a9.52,9.52,0,0,1-3.55-.35,9.62,9.62,0,0,1-.35-1.94l-1.74-23.35a9.3,9.3,0,0,1,4.55-8.7l15.29-9a9.3,9.3,0,0,1,10.52.72l12.48,9.9A9.27,9.27,0,0,1,379.23,283.47Z" transform="translate(-50 -50)"/><path class="cls-3" d="M245.8,128.44l-16,16.37a9.31,9.31,0,0,1-13.3,0l-5.36-5.45-11-11.24a9.34,9.34,0,0,1-2.15-9.58l5.84-16.77a9.28,9.28,0,0,1,8.49-6.24l20.55-.65a8.77,8.77,0,0,1,2.95.4,9.29,9.29,0,0,1,6.15,5.93L248,119A9.28,9.28,0,0,1,245.8,128.44Z" transform="translate(-50 -50)"/><path class="cls-4" d="M239.53,122.17l-16,16.37a9.31,9.31,0,0,1-12.39.84l-11-11.24a9.34,9.34,0,0,1-2.15-9.58l5.84-16.77a9.28,9.28,0,0,1,8.49-6.24l20.55-.65a8.77,8.77,0,0,1,2.95.4l5.86,17.41A9.3,9.3,0,0,1,239.53,122.17Z" transform="translate(-50 -50)"/><path class="cls-3" d="M156.5,222.78a9.27,9.27,0,0,1-4.51,8.58l-19.63,11.7a9.3,9.3,0,0,1-12.86-3.39l-1.16-2L108,219.31a9.31,9.31,0,0,1,.39-9.81l10-14.71a9.33,9.33,0,0,1,9.82-3.84l20,4.67a3.63,3.63,0,0,1,.54.15,9.29,9.29,0,0,1,6.63,8.31Z" transform="translate(-50 -50)"/><path class="cls-4" d="M150.23,216.5a9.28,9.28,0,0,1-4.51,8.59l-19.63,11.7a9.26,9.26,0,0,1-7.75.83L108,219.31a9.31,9.31,0,0,1,.39-9.81l10-14.71a9.33,9.33,0,0,1,9.82-3.84l20,4.67a3.63,3.63,0,0,1,.54.15,9.17,9.17,0,0,1,.36,2Z" transform="translate(-50 -50)"/><rect class="cls-5" x="300.47" y="108.82" width="14" height="27.74" rx="7" ry="7" transform="translate(-73.44 63.11) rotate(-20.1)"/><rect class="cls-5" x="208.47" y="183.82" width="14" height="27.74" rx="7" ry="7" transform="translate(118.55 -140.94) rotate(38.23)"/><rect class="cls-1" x="289.47" y="307.82" width="14" height="27.74" rx="7" ry="7" transform="translate(-187.3 214.92) rotate(-39.88)"/><rect class="cls-3" x="374.47" y="200.82" width="14" height="27.74" rx="7" ry="7"/><rect class="cls-1" x="292.47" y="195.82" width="14" height="27.74" rx="7" ry="7" transform="translate(-82.02 5.53) rotate(-10.06)"/><rect class="cls-1" x="144.6" y="279.69" width="27.74" height="14" rx="7" ry="7" transform="translate(-120.38 2.31) rotate(-15.38)"/><rect class="cls-5" x="79.47" y="253.82" width="14" height="27.74" rx="7" ry="7" transform="translate(-227.32 119.96) rotate(-51.77)"/><rect class="cls-5" x="207.47" y="357.82" width="14" height="27.74" rx="7" ry="7" transform="translate(164.58 -107.44) rotate(30)"/><rect class="cls-5" x="136.47" y="126.82" width="14" height="27.74" rx="7" ry="7" transform="translate(-103.4 50.43) rotate(-32.88)"/><rect class="cls-5" x="377.47" y="210.82" width="14" height="27.74" rx="7" ry="7" transform="translate(-52.35 395.31) rotate(-60)"/><rect class="cls-5" x="363.47" y="359.82" width="14" height="27.74" rx="7" ry="7" transform="translate(160.08 -177.48) rotate(27.01)"/></svg>