<svg id="Layer_1" data-name="Layer 1" xmlns="http://www.w3.org/2000/svg" viewBox="0 0 333.99 381.71"><defs><style>.cls-1{fill:#9b6743;}.cls-2{fill:#d8985d;}.cls-3{fill:#774a2b;}.cls-4{fill:#935c37;}.cls-5{fill:#e8b077;}</style></defs><title>cookie-1</title><path class="cls-1" d="M53,219.78c.34-.2.68-.39,1-.57-.41.22-.82.45-1.22.69Z" transform="translate(-50.2 -50)"/><path class="cls-1" d="M152,246.41c-.59.45-1.18.9-1.76,1.36-.52-1-1.06-1.94-1.63-2.88.19.31.38.63.56,1A1.93,1.93,0,0,0,152,246.41Z" transform="translate(-50.2 -50)"/><path class="cls-1" d="M247.07,239.13a69.19,69.19,0,0,0,0,17.41l0,0c-.18-.21-.36-.42-.55-.62-1-1.1-2-2.18-3.08-3.22-.35-.36-.71-.7-1.08-1,0,0,0,0,0,0l-.28-.27-.14-.13-.15-.13q-.82-.76-1.68-1.5l-1.64-1.37-.93-.74c-.31-.25-.62-.49-.94-.72-.76-.57-1.53-1.13-2.31-1.67-.55-.38-1.11-.76-1.68-1.13l3.1-3.23a9.31,9.31,0,0,1,10.93-1.85Z" transform="translate(-50.2 -50)"/><path class="cls-1" d="M248,119a9.28,9.28,0,0,1-2.15,9.46l-16,16.37a9.31,9.31,0,0,1-13.3,0l-5.36-5.45-11-11.24a9.34,9.34,0,0,1-2.15-9.58l5.84-16.77a9.28,9.28,0,0,1,8.49-6.24l20.55-.65a8.77,8.77,0,0,1,2.95.4,9.29,9.29,0,0,1,6.15,5.93Z" transform="translate(-50.2 -50)"/><path class="cls-1" d="M263.5,159a68.26,68.26,0,0,0,6.19,28.49A68.51,68.51,0,0,1,286.21,81.41,68.81,68.81,0,0,0,298,93.15a4,4,0,0,1-.5,6.64A68.48,68.48,0,0,0,263.5,159Z" transform="translate(-50.2 -50)"/><path class="cls-2" d="M251.5,141a68.45,68.45,0,0,1,34.71-59.59A68.12,68.12,0,0,1,272.6,51.27c-2.11-.25-4.23-.45-6.36-.62Q258.21,50,250,50C149.65,50,66.56,123.91,52.2,220.26l.62-.35h0l.19-.12c.34-.2.68-.39,1-.57.76-.43,1.53-.83,2.31-1.22l.88-.44q1.69-.83,3.45-1.56l.8-.33,1-.41,1.08-.41c.36-.14.72-.27,1.09-.39l.83-.29c.46-.16.92-.31,1.39-.45l1-.29,1.27-.37.75-.2c.55-.15,1.11-.29,1.67-.42l.68-.16c.65-.15,1.3-.29,2-.42s1.2-.23,1.8-.33l.61-.1c.67-.12,1.34-.21,2-.3s1.41-.18,2.12-.25l.33,0c.73-.08,1.46-.14,2.2-.18s1.56-.09,2.35-.12,1.58,0,2.38,0a70.23,70.23,0,0,1,49,19.8,68.49,68.49,0,0,1,5.92,6.48q.53.65,1,1.29,1.52,2,2.88,4c.31.46.61.92.9,1.39s.58.94.86,1.41c.19.31.38.63.56,1a1.93,1.93,0,0,0,2.83.57c.63-.47,1.26-.92,1.9-1.36.33-.23.66-.46,1-.68l1.2-.79,1.23-.77,1.24-.74q.63-.37,1.26-.72l.64-.35c1-.52,1.93-1,2.91-1.49l1.25-.59c.57-.27,1.15-.52,1.73-.77.89-.38,1.8-.75,2.71-1.09,1.06-.41,2.13-.78,3.21-1.13.41-.14.82-.27,1.24-.39l.67-.2.76-.22.08,0,1-.27c.55-.15,1.11-.29,1.66-.41.39-.1.78-.19,1.18-.27s.54-.13.82-.18l1-.2.17,0,1.15-.21,1.42-.23,1.49-.21,1.38-.16.76-.08c.79-.08,1.6-.15,2.4-.2l1.53-.08c1,0,2.05-.07,3.09-.07a70.12,70.12,0,0,1,38.49,11.43l3.1-3.23a9.31,9.31,0,0,1,10.93-1.85l.55.28a68.42,68.42,0,0,1,26-45.27,64.22,64.22,0,0,1-3.34-6.37A68.25,68.25,0,0,1,251.5,141Zm-5.7-12.56-16,16.37a9.31,9.31,0,0,1-13.3,0l-5.36-5.45-11-11.24a9.34,9.34,0,0,1-2.15-9.58l5.84-16.77a9.28,9.28,0,0,1,8.49-6.24l20.55-.65a8.77,8.77,0,0,1,2.95.4,9.29,9.29,0,0,1,6.15,5.93L248,119A9.28,9.28,0,0,1,245.8,128.44Z" transform="translate(-50.2 -50)"/><path class="cls-2" d="M53,219.78c.34-.2.68-.39,1-.57-.41.22-.82.45-1.22.69Z" transform="translate(-50.2 -50)"/><path class="cls-2" d="M152,246.41c-.59.45-1.18.9-1.76,1.36-.52-1-1.06-1.94-1.63-2.88.19.31.38.63.56,1A1.93,1.93,0,0,0,152,246.41Z" transform="translate(-50.2 -50)"/><path class="cls-2" d="M247.07,239.13a69.19,69.19,0,0,0,0,17.41l0,0c-.18-.21-.36-.42-.55-.62-1-1.1-2-2.18-3.08-3.22-.35-.36-.71-.7-1.08-1,0,0,0,0,0,0l-.28-.27-.14-.13-.15-.13q-.82-.76-1.68-1.5l-1.64-1.37-.93-.74c-.31-.25-.62-.49-.94-.72-.76-.57-1.53-1.13-2.31-1.67-.55-.38-1.11-.76-1.68-1.13l3.1-3.23a9.31,9.31,0,0,1,10.93-1.85Z" transform="translate(-50.2 -50)"/><path class="cls-2" d="M248,119a9.28,9.28,0,0,1-2.15,9.46l-16,16.37a9.31,9.31,0,0,1-13.3,0l-5.36-5.45-11-11.24a9.34,9.34,0,0,1-2.15-9.58l5.84-16.77a9.28,9.28,0,0,1,8.49-6.24l20.55-.65a8.77,8.77,0,0,1,2.95.4,9.29,9.29,0,0,1,6.15,5.93Z" transform="translate(-50.2 -50)"/><path class="cls-3" d="M246.5,248a68.83,68.83,0,0,0,.53,8.54l0,0c-.18-.21-.36-.42-.55-.62-1-1.1-2-2.18-3.08-3.22-.35-.36-.71-.7-1.08-1,0,0,0,0,0,0l-.28-.27-.14-.13-.15-.13q-.82-.76-1.68-1.5c-.54-.47-1.08-.92-1.64-1.37l-.93-.74c-.31-.25-.62-.49-.94-.72-.76-.57-1.53-1.13-2.31-1.67-.55-.39-1.11-.76-1.68-1.13l3.1-3.23a9.31,9.31,0,0,1,10.93-1.85l.55.28A68.47,68.47,0,0,0,246.5,248Z" transform="translate(-50.2 -50)"/><path class="cls-4" d="M246.5,248a68.83,68.83,0,0,0,.53,8.54l0,0c-.18-.21-.36-.42-.55-.62-1-1.1-2-2.18-3.08-3.22-.35-.36-.71-.7-1.08-1,0,0,0,0,0,0l-.28-.27-.14-.13-.15-.13q-.82-.76-1.68-1.5c-.54-.47-1.08-.92-1.64-1.37l-.93-.74c-.31-.25-.62-.49-.94-.72-.76-.57-1.53-1.13-2.31-1.67-.55-.39-1.11-.76-1.68-1.13l3.1-3.23a9.31,9.31,0,0,1,10.93-1.85l.55.28A68.47,68.47,0,0,0,246.5,248Z" transform="translate(-50.2 -50)"/><path class="cls-3" d="M245.8,128.44l-16,16.37a9.31,9.31,0,0,1-13.3,0l-5.36-5.45-11-11.24a9.34,9.34,0,0,1-2.15-9.58l5.84-16.77a9.28,9.28,0,0,1,8.49-6.24l20.55-.65a8.77,8.77,0,0,1,2.95.4,9.29,9.29,0,0,1,6.15,5.93L248,119A9.28,9.28,0,0,1,245.8,128.44Z" transform="translate(-50.2 -50)"/><path class="cls-4" d="M239.53,122.17l-16,16.37a9.31,9.31,0,0,1-12.39.84l-11-11.24a9.34,9.34,0,0,1-2.15-9.58l5.84-16.77a9.28,9.28,0,0,1,8.49-6.24l20.55-.65a8.77,8.77,0,0,1,2.95.4l5.86,17.41A9.3,9.3,0,0,1,239.53,122.17Z" transform="translate(-50.2 -50)"/><path class="cls-3" d="M156.5,222.78a9.27,9.27,0,0,1-4.51,8.58l-9.09,5.42A68.49,68.49,0,0,0,137,230.3a70.18,70.18,0,0,0-30.09-17.24,9.19,9.19,0,0,1,1.45-3.56l10-14.71a9.33,9.33,0,0,1,9.82-3.84l20,4.67a3.63,3.63,0,0,1,.54.15,9.29,9.29,0,0,1,6.63,8.31Z" transform="translate(-50.2 -50)"/><path class="cls-4" d="M150.23,216.5a9.28,9.28,0,0,1-4.51,8.59L137,230.3a70.18,70.18,0,0,0-30.09-17.24,9.19,9.19,0,0,1,1.45-3.56l10-14.71a9.33,9.33,0,0,1,9.82-3.84l20,4.67a3.63,3.63,0,0,1,.54.15,9.17,9.17,0,0,1,.36,2Z" transform="translate(-50.2 -50)"/><rect class="cls-5" x="208.47" y="183.82" width="14" height="27.74" rx="7" ry="7" transform="translate(118.36 -140.94) rotate(38.23)"/><rect class="cls-5" x="136.47" y="126.82" width="14" height="27.74" rx="7" ry="7" transform="translate(-103.59 50.43) rotate(-32.88)"/><path class="cls-1" d="M174.4,330.57l-11.25,14.16a10.24,10.24,0,0,1-11.08,3.39l-11.58-3.63a10.22,10.22,0,0,1-7.07-8.41,10.11,10.11,0,0,1,1-5.91l4.74-9.54a10.23,10.23,0,0,1,7.54-5.54l16.64-2.67a10.19,10.19,0,0,1,7,1.4,10.35,10.35,0,0,1,2.39,2.05l1.45,1.69A10.23,10.23,0,0,1,174.4,330.57Z" transform="translate(-50.2 -50)"/><path class="cls-2" d="M168.4,322.57l-11.25,14.16a10.24,10.24,0,0,1-11.08,3.39l-11.58-3.63a9.11,9.11,0,0,1-1.07-.41,10.11,10.11,0,0,1,1-5.91l4.74-9.54a10.23,10.23,0,0,1,7.54-5.54l16.64-2.67a10.19,10.19,0,0,1,7,1.4A10.14,10.14,0,0,1,168.4,322.57Z" transform="translate(-50.2 -50)"/><path class="cls-1" d="M378.48,356.87l-16.23,8a10.25,10.25,0,0,1-11.47-1.67l-8.91-8.24a10.2,10.2,0,0,1-3.25-8.25,10.57,10.57,0,0,1,.46-2.37,10.15,10.15,0,0,1,3.41-4.93l8.37-6.59A10.2,10.2,0,0,1,360,331l16.19,4.7a10.08,10.08,0,0,1,4.93,3.2A9,9,0,0,1,382,340a10.47,10.47,0,0,1,1.29,2.87l.58,2.15A10.23,10.23,0,0,1,378.48,356.87Z" transform="translate(-50.2 -50)"/><path class="cls-2" d="M375.48,348.87l-16.23,8a10.25,10.25,0,0,1-11.47-1.67l-8.91-8.24a3,3,0,0,1-.25-.25,10.57,10.57,0,0,1,.46-2.37,10.15,10.15,0,0,1,3.41-4.93l8.37-6.59A10.2,10.2,0,0,1,360,331l16.19,4.7a10.08,10.08,0,0,1,4.93,3.2A10.23,10.23,0,0,1,375.48,348.87Z" transform="translate(-50.2 -50)"/><path class="cls-1" d="M261,409.65v5A12.12,12.12,0,0,1,253.22,426l-12.76,4.91A12.12,12.12,0,0,1,230,430l-7.48-4.4a12,12,0,0,1-4.53-4.73,11.33,11.33,0,0,1-1.13-2.95l-.73-3.13a12.13,12.13,0,0,1,5.79-13.32l9-5.14a12.09,12.09,0,0,1,8.75-1.29l12,2.76a11.6,11.6,0,0,1,3,1.12A12.1,12.1,0,0,1,261,409.65Z" transform="translate(-50.2 -50)"/><path class="cls-2" d="M256,404.65v5A12.12,12.12,0,0,1,248.22,421l-12.76,4.91A12.12,12.12,0,0,1,225,425l-7-4.13a11.33,11.33,0,0,1-1.13-2.95l-.73-3.13a12.13,12.13,0,0,1,5.79-13.32l9-5.14a12.09,12.09,0,0,1,8.75-1.29l12,2.76a11.6,11.6,0,0,1,3,1.12A12,12,0,0,1,256,404.65Z" transform="translate(-50.2 -50)"/><path class="cls-1" d="M291.75,203.41a2.11,2.11,0,0,1,.2,3.73l0,0c-1.74,1-3.43,2.15-5.07,3.35A68.35,68.35,0,0,0,258.5,266c0,3.15-.44,11-.93,11.88a2.51,2.51,0,0,1-4,.5h0l-.14-.16A70.5,70.5,0,0,0,157,266.39h0a2,2,0,0,1-2.85-.58,70.51,70.51,0,0,0-100.85-23,2,2,0,0,1-3.06-1.69,197,197,0,0,1,1.86-19.88,2,2,0,0,1,.76-1.29h0c.4-.24.81-.47,1.22-.69.76-.43,1.53-.83,2.31-1.22l.88-.44q1.69-.83,3.45-1.56l.8-.33,1-.41,1.08-.41c.36-.14.72-.27,1.09-.39l.83-.29c.46-.16.92-.31,1.39-.45l1-.29,1.27-.37,1-.27c.46-.13.91-.24,1.37-.34l.74-.17c.65-.15,1.3-.29,2-.42s1.2-.23,1.8-.33l.61-.1c.67-.12,1.34-.21,2-.3s1.41-.18,2.12-.25l.33,0c.73-.08,1.46-.14,2.2-.18s1.56-.09,2.35-.12,1.58,0,2.38,0a70.23,70.23,0,0,1,49,19.8,68.49,68.49,0,0,1,5.92,6.48q.53.65,1,1.29,1.52,2,2.88,4c.31.46.61.92.9,1.39s.58.94.86,1.41c.57.94,1.11,1.91,1.63,2.88l1.93-1.49c.44-.34.9-.66,1.36-1s.9-.64,1.37-.94l1.2-.79,1.23-.77,1.24-.74q.63-.37,1.26-.72l.64-.35c1-.52,1.93-1,2.91-1.49l1.25-.59c.57-.27,1.15-.52,1.73-.77.89-.38,1.8-.75,2.71-1.09,1.06-.41,2.13-.78,3.21-1.13.41-.14.82-.27,1.24-.39l.67-.2.76-.22.08,0,1-.27c.55-.15,1.11-.29,1.66-.41.39-.1.78-.19,1.18-.27s.54-.13.82-.18l1-.2.17,0,1.15-.21,1.42-.23,1.49-.21,1.38-.16.76-.08c.79-.08,1.6-.15,2.4-.2l1.53-.08c1,0,2.05-.07,3.09-.07a70.12,70.12,0,0,1,38.49,11.43c.57.37,1.13.75,1.68,1.13.78.54,1.55,1.1,2.31,1.67.32.23.63.47.94.72l.93.74,1.64,1.37q.85.74,1.68,1.5l.15.13.14.13.28.27s0,0,0,0c.36.33.73.68,1.08,1,1.06,1,2.09,2.12,3.08,3.22.19.2.37.41.55.62l0,0a68.48,68.48,0,0,1,26-62.68,64.22,64.22,0,0,1-3.34-6.37,71.76,71.76,0,0,0,5.15,5,68.65,68.65,0,0,0,16.44,10.69Z" transform="translate(-50.2 -50)"/><path class="cls-1" d="M54.05,219.21c-.41.22-.82.45-1.22.69l.19-.12C53.36,219.58,53.7,219.39,54.05,219.21Z" transform="translate(-50.2 -50)"/><path class="cls-1" d="M152,246.41c-.59.45-1.18.9-1.76,1.36-.52-1-1.06-1.94-1.63-2.88.19.31.38.63.56,1A1.93,1.93,0,0,0,152,246.41Z" transform="translate(-50.2 -50)"/></svg>