<svg id="Layer_1" data-name="Layer 1" xmlns="http://www.w3.org/2000/svg" viewBox="0 0 400 400"><defs><style>.cls-1{fill:#9b6743;}.cls-2{fill:#d8985d;}.cls-3{fill:#774a2b;}.cls-4{fill:#935c37;}.cls-5{fill:#e8b077;}</style></defs><title>cookie-3</title><path class="cls-1" d="M450,250c0,.41,0,.83,0,1.24a66.58,66.58,0,0,0-37.62-13.19c-.79,0-1.58-.05-2.37-.05a66.85,66.85,0,0,0-50.5,23,67,67,0,0,0-121.63,20.27q-.74,3-1.18,6.13a67.09,67.09,0,0,0,17.21,55.22,67,67,0,0,0-23.37,78.65q-8.66.75-17.53.76a199.09,199.09,0,0,1-101.26-27.49A199.38,199.38,0,0,1,50,250C50,139.54,139.54,50,250,50A199.91,199.91,0,0,1,450,250Z" transform="translate(-50 -50)"/><path class="cls-2" d="M413,222c0,5.4-.21,10.76-.63,16.05-.79,0-1.58-.05-2.37-.05a66.85,66.85,0,0,0-50.5,23,67,67,0,0,0-121.63,20.27q-.74,3-1.18,6.13a67.09,67.09,0,0,0,17.21,55.22,67,67,0,0,0-23.37,78.65q-8.66.75-17.53.76a199.09,199.09,0,0,1-101.26-27.49A199.38,199.38,0,0,1,50,250C50,139.54,139.54,50,250,50A199.09,199.09,0,0,1,351.26,77.49,199.38,199.38,0,0,1,413,222Z" transform="translate(-50 -50)"/><path class="cls-3" d="M384.75,179l-13.82,18.21a9.29,9.29,0,0,1-13.18,1.66L339.4,184.3a9.33,9.33,0,0,1-3.31-9.23l3.72-17.37a9.28,9.28,0,0,1,7.65-7.23l20.31-3.18a9.16,9.16,0,0,1,4.24.32,9.32,9.32,0,0,1,5.59,4.83l8.12,16.88A9.32,9.32,0,0,1,384.75,179Z" transform="translate(-50 -50)"/><path class="cls-4" d="M378.47,172.71l-13.81,18.21a9.29,9.29,0,0,1-13.18,1.66l-14.75-11.7a9.22,9.22,0,0,1-.64-5.81l3.72-17.37a9.28,9.28,0,0,1,7.65-7.23l20.31-3.18a9.16,9.16,0,0,1,4.24.32l7.44,15.44A9.3,9.3,0,0,1,378.47,172.71Z" transform="translate(-50 -50)"/><path class="cls-3" d="M259.94,245.67a66.94,66.94,0,0,0-22.07,35.57q-.74,3-1.18,6.13l-1.22,0a9.32,9.32,0,0,1-8.24-5.35l-.64-1.35-6.93-14.71a9.3,9.3,0,0,1,1.71-10.4l14.22-14.84a9.31,9.31,0,0,1,10.93-1.85Z" transform="translate(-50 -50)"/><path class="cls-4" d="M259.94,245.67a66.94,66.94,0,0,0-22.07,35.57l-8.68-.17a9.49,9.49,0,0,1-2.6-.42l-6.93-14.71a9.3,9.3,0,0,1,1.71-10.4l14.22-14.84a9.31,9.31,0,0,1,10.93-1.85Z" transform="translate(-50 -50)"/><path class="cls-3" d="M173.62,360,153.84,372.5a9.32,9.32,0,0,1-9.82.08l-15.16-9.23a9.34,9.34,0,0,1-4.32-9.61l3.7-20.23a9.32,9.32,0,0,1,8.1-7.57L155,323.83a9.27,9.27,0,0,1,8.79,4.1l12.65,19A9.31,9.31,0,0,1,173.62,360Z" transform="translate(-50 -50)"/><path class="cls-4" d="M167.34,353.7l-19.77,12.53a9.32,9.32,0,0,1-9.82.08l-12.82-7.81a9.22,9.22,0,0,1-.39-4.76l3.7-20.23a9.32,9.32,0,0,1,8.1-7.57L155,323.83a9.23,9.23,0,0,1,4.31.53l10.85,16.34A9.29,9.29,0,0,1,167.34,353.7Z" transform="translate(-50 -50)"/><path class="cls-3" d="M245.8,128.44l-16,16.37a9.31,9.31,0,0,1-13.3,0l-5.36-5.45-11-11.24a9.34,9.34,0,0,1-2.15-9.58l5.84-16.77a9.28,9.28,0,0,1,8.49-6.24l20.55-.65a8.77,8.77,0,0,1,2.95.4,9.29,9.29,0,0,1,6.15,5.93L248,119A9.28,9.28,0,0,1,245.8,128.44Z" transform="translate(-50 -50)"/><path class="cls-4" d="M239.53,122.17l-16,16.37a9.31,9.31,0,0,1-12.39.84l-11-11.24a9.34,9.34,0,0,1-2.15-9.58l5.84-16.77a9.28,9.28,0,0,1,8.49-6.24l20.55-.65a8.77,8.77,0,0,1,2.95.4l5.86,17.41A9.3,9.3,0,0,1,239.53,122.17Z" transform="translate(-50 -50)"/><path class="cls-3" d="M156.5,222.78a9.27,9.27,0,0,1-4.51,8.58l-19.63,11.7a9.3,9.3,0,0,1-12.86-3.39l-1.16-2L108,219.31a9.31,9.31,0,0,1,.39-9.81l10-14.71a9.33,9.33,0,0,1,9.82-3.84l20,4.67a3.63,3.63,0,0,1,.54.15,9.29,9.29,0,0,1,6.63,8.31Z" transform="translate(-50 -50)"/><path class="cls-4" d="M150.23,216.5a9.28,9.28,0,0,1-4.51,8.59l-19.63,11.7a9.26,9.26,0,0,1-7.75.83L108,219.31a9.31,9.31,0,0,1,.39-9.81l10-14.71a9.33,9.33,0,0,1,9.82-3.84l20,4.67a3.63,3.63,0,0,1,.54.15,9.17,9.17,0,0,1,.36,2Z" transform="translate(-50 -50)"/><rect class="cls-5" x="300.47" y="108.82" width="14" height="27.74" rx="7" ry="7" transform="translate(-73.44 63.11) rotate(-20.1)"/><rect class="cls-5" x="208.47" y="183.82" width="14" height="27.74" rx="7" ry="7" transform="translate(118.55 -140.94) rotate(38.23)"/><rect class="cls-1" x="292.47" y="195.82" width="14" height="27.74" rx="7" ry="7" transform="translate(-82.02 5.53) rotate(-10.06)"/><rect class="cls-1" x="144.6" y="279.69" width="27.74" height="14" rx="7" ry="7" transform="translate(-120.38 2.31) rotate(-15.38)"/><rect class="cls-5" x="79.47" y="253.82" width="14" height="27.74" rx="7" ry="7" transform="translate(-227.32 119.96) rotate(-51.77)"/><rect class="cls-5" x="207.47" y="357.82" width="14" height="27.74" rx="7" ry="7" transform="translate(164.58 -107.44) rotate(30)"/><rect class="cls-5" x="136.47" y="126.82" width="14" height="27.74" rx="7" ry="7" transform="translate(-103.4 50.43) rotate(-32.88)"/><rect class="cls-5" x="377.47" y="210.82" width="14" height="27.74" rx="7" ry="7" transform="translate(-52.35 395.31) rotate(-60)"/><path class="cls-1" d="M450,251.24c0,.66,0,1.33,0,2a3.49,3.49,0,0,1-4.66,3.26,66.85,66.85,0,0,0-18.53-3.85h0c-1.41-.09-2.83-.14-4.27-.14a66.85,66.85,0,0,0-47.9,20.15c-.9.91-1.76,1.85-2.6,2.82l0,0a3.47,3.47,0,0,1-5.88-1.15,66.83,66.83,0,0,0-4.61-10.1c-.62-1.12-1.28-2.22-2-3.3A66.85,66.85,0,0,1,410,238c.79,0,1.58,0,2.37.05A66.58,66.58,0,0,1,450,251.24Z" transform="translate(-50 -50)"/><path class="cls-1" d="M359.5,261a67.06,67.06,0,0,0-103.67,20h0a63.17,63.17,0,0,0-3,6.67,67.08,67.08,0,0,0,2.68,53.75c1,2.1,8.22,10,10.8,11.66a2.41,2.41,0,0,1,.08,4l0,0a67,67,0,0,0-27.32,63.22C240.38,430.23,250.22,450,250,450a199.27,199.27,0,0,1-138.26-55.49A199.09,199.09,0,0,0,213,422q8.87,0,17.53-.76a67,67,0,0,1,23.37-78.65,67.09,67.09,0,0,1-17.21-55.22q.45-3.12,1.18-6.13A67,67,0,0,1,359.5,261Z" transform="translate(-50 -50)"/><path class="cls-1" d="M348.4,422.57l-11.25,14.16a10.24,10.24,0,0,1-11.08,3.39l-11.58-3.63a10.22,10.22,0,0,1-7.07-8.41,10.11,10.11,0,0,1,1-5.91l4.74-9.54a10.23,10.23,0,0,1,7.54-5.54l16.64-2.67a10.19,10.19,0,0,1,7,1.4,10.35,10.35,0,0,1,2.39,2.05l1.45,1.69A10.23,10.23,0,0,1,348.4,422.57Z" transform="translate(-50 -50)"/><path class="cls-2" d="M342.4,414.57l-11.25,14.16a10.24,10.24,0,0,1-11.08,3.39l-11.58-3.63a9.11,9.11,0,0,1-1.07-.41,10.11,10.11,0,0,1,1-5.91l4.74-9.54a10.23,10.23,0,0,1,7.54-5.54l16.64-2.67a10.19,10.19,0,0,1,7,1.4A10.14,10.14,0,0,1,342.4,414.57Z" transform="translate(-50 -50)"/><path class="cls-1" d="M413,363.65v5A12.12,12.12,0,0,1,405.22,380l-12.76,4.91A12.12,12.12,0,0,1,382,384l-7.48-4.4a12,12,0,0,1-4.53-4.73,11.33,11.33,0,0,1-1.13-2.95l-.73-3.13a12.13,12.13,0,0,1,5.79-13.32l9-5.14a12.09,12.09,0,0,1,8.75-1.29l12,2.76a11.6,11.6,0,0,1,3,1.12A12.1,12.1,0,0,1,413,363.65Z" transform="translate(-50 -50)"/><path class="cls-2" d="M408,358.65v5A12.12,12.12,0,0,1,400.22,375l-12.76,4.91A12.12,12.12,0,0,1,377,379l-7-4.13a11.33,11.33,0,0,1-1.13-2.95l-.73-3.13a12.13,12.13,0,0,1,5.79-13.32l9-5.14a12.09,12.09,0,0,1,8.75-1.29l12,2.76a11.6,11.6,0,0,1,3,1.12A12,12,0,0,1,408,358.65Z" transform="translate(-50 -50)"/></svg>