<svg id="Layer_1" data-name="Layer 1" xmlns="http://www.w3.org/2000/svg" viewBox="0 0 331.36 212.5"><defs><style>.cls-1{fill:#9b6743;}.cls-2{fill:#d8985d;}</style></defs><title>cookie-0</title><path class="cls-1" d="M53,219.78c.34-.2.68-.39,1-.57-.41.22-.82.45-1.22.69Z" transform="translate(-52.83 -219.21)"/><path class="cls-2" d="M53,219.78c.34-.2.68-.39,1-.57-.41.22-.82.45-1.22.69Z" transform="translate(-52.83 -219.21)"/><path class="cls-1" d="M174.4,330.57l-11.25,14.16a10.24,10.24,0,0,1-11.08,3.39l-11.58-3.63a10.22,10.22,0,0,1-7.07-8.41,10.11,10.11,0,0,1,1-5.91l4.74-9.54a10.23,10.23,0,0,1,7.54-5.54l16.64-2.67a10.19,10.19,0,0,1,7,1.4,10.35,10.35,0,0,1,2.39,2.05l1.45,1.69A10.23,10.23,0,0,1,174.4,330.57Z" transform="translate(-52.83 -219.21)"/><path class="cls-2" d="M168.4,322.57l-11.25,14.16a10.24,10.24,0,0,1-11.08,3.39l-11.58-3.63a9.11,9.11,0,0,1-1.07-.41,10.11,10.11,0,0,1,1-5.91l4.74-9.54a10.23,10.23,0,0,1,7.54-5.54l16.64-2.67a10.19,10.19,0,0,1,7,1.4A10.14,10.14,0,0,1,168.4,322.57Z" transform="translate(-52.83 -219.21)"/><path class="cls-1" d="M378.48,356.87l-16.23,8a10.25,10.25,0,0,1-11.47-1.67l-8.91-8.24a10.2,10.2,0,0,1-3.25-8.25,10.57,10.57,0,0,1,.46-2.37,10.15,10.15,0,0,1,3.41-4.93l8.37-6.59A10.2,10.2,0,0,1,360,331l16.19,4.7a10.08,10.08,0,0,1,4.93,3.2A9,9,0,0,1,382,340a10.47,10.47,0,0,1,1.29,2.87l.58,2.15A10.23,10.23,0,0,1,378.48,356.87Z" transform="translate(-52.83 -219.21)"/><path class="cls-2" d="M375.48,348.87l-16.23,8a10.25,10.25,0,0,1-11.47-1.67l-8.91-8.24a3,3,0,0,1-.25-.25,10.57,10.57,0,0,1,.46-2.37,10.15,10.15,0,0,1,3.41-4.93l8.37-6.59A10.2,10.2,0,0,1,360,331l16.19,4.7a10.08,10.08,0,0,1,4.93,3.2A10.23,10.23,0,0,1,375.48,348.87Z" transform="translate(-52.83 -219.21)"/><path class="cls-1" d="M261,409.65v5A12.12,12.12,0,0,1,253.22,426l-12.76,4.91A12.12,12.12,0,0,1,230,430l-7.48-4.4a12,12,0,0,1-4.53-4.73,11.33,11.33,0,0,1-1.13-2.95l-.73-3.13a12.13,12.13,0,0,1,5.79-13.32l9-5.14a12.09,12.09,0,0,1,8.75-1.29l12,2.76a11.6,11.6,0,0,1,3,1.12A12.1,12.1,0,0,1,261,409.65Z" transform="translate(-52.83 -219.21)"/><path class="cls-2" d="M256,404.65v5A12.12,12.12,0,0,1,248.22,421l-12.76,4.91A12.12,12.12,0,0,1,225,425l-7-4.13a11.33,11.33,0,0,1-1.13-2.95l-.73-3.13a12.13,12.13,0,0,1,5.79-13.32l9-5.14a12.09,12.09,0,0,1,8.75-1.29l12,2.76a11.6,11.6,0,0,1,3,1.12A12,12,0,0,1,256,404.65Z" transform="translate(-52.83 -219.21)"/><path class="cls-1" d="M54.05,219.21c-.41.22-.82.45-1.22.69l.19-.12C53.36,219.58,53.7,219.39,54.05,219.21Z" transform="translate(-52.83 -219.21)"/></svg>