<svg id="Layer_1" data-name="Layer 1" xmlns="http://www.w3.org/2000/svg" viewBox="0 0 399.8 381.71"><defs><style>.cls-1{fill:#9b6743;}.cls-2{fill:#d8985d;}.cls-3{fill:#774a2b;}.cls-4{fill:#935c37;}.cls-5{fill:#e8b077;}</style></defs><title>cookie-2</title><path class="cls-1" d="M450,250c0,.41,0,.83,0,1.24a66.58,66.58,0,0,0-37.62-13.19c-.79,0-1.58-.05-2.37-.05a66.85,66.85,0,0,0-50.5,23,67,67,0,0,0-111.09-2.81,70.5,70.5,0,0,0-98.22-10.39A71.13,71.13,0,0,0,137,230.3a70.5,70.5,0,0,0-84.78-10C66.56,123.91,149.65,50,250,50A199.91,199.91,0,0,1,450,250Z" transform="translate(-50.2 -50)"/><path class="cls-2" d="M413,222c0,5.4-.21,10.76-.63,16.05-.79,0-1.58-.05-2.37-.05a66.85,66.85,0,0,0-50.5,23,67,67,0,0,0-111.09-2.81,70.5,70.5,0,0,0-98.22-10.39A71.13,71.13,0,0,0,137,230.3a70.5,70.5,0,0,0-84.78-10C66.56,123.91,149.65,50,250,50A199.09,199.09,0,0,1,351.26,77.49,199.38,199.38,0,0,1,413,222Z" transform="translate(-50.2 -50)"/><path class="cls-3" d="M384.75,179l-13.82,18.21a9.29,9.29,0,0,1-13.18,1.66L339.4,184.3a9.33,9.33,0,0,1-3.31-9.23l3.72-17.37a9.28,9.28,0,0,1,7.65-7.23l20.31-3.18a9.16,9.16,0,0,1,4.24.32,9.32,9.32,0,0,1,5.59,4.83l8.12,16.88A9.32,9.32,0,0,1,384.75,179Z" transform="translate(-50.2 -50)"/><path class="cls-4" d="M378.47,172.71l-13.81,18.21a9.29,9.29,0,0,1-13.18,1.66l-14.75-11.7a9.22,9.22,0,0,1-.64-5.81l3.72-17.37a9.28,9.28,0,0,1,7.65-7.23l20.31-3.18a9.16,9.16,0,0,1,4.24.32l7.44,15.44A9.3,9.3,0,0,1,378.47,172.71Z" transform="translate(-50.2 -50)"/><path class="cls-3" d="M259.94,245.67a67.33,67.33,0,0,0-11.53,12.49,70.58,70.58,0,0,0-15.92-14.23l3.1-3.23a9.31,9.31,0,0,1,10.93-1.85Z" transform="translate(-50.2 -50)"/><path class="cls-4" d="M259.94,245.67a67.33,67.33,0,0,0-11.53,12.49,70.58,70.58,0,0,0-15.92-14.23l3.1-3.23a9.31,9.31,0,0,1,10.93-1.85Z" transform="translate(-50.2 -50)"/><path class="cls-3" d="M245.8,128.44l-16,16.37a9.31,9.31,0,0,1-13.3,0l-5.36-5.45-11-11.24a9.34,9.34,0,0,1-2.15-9.58l5.84-16.77a9.28,9.28,0,0,1,8.49-6.24l20.55-.65a8.77,8.77,0,0,1,2.95.4,9.29,9.29,0,0,1,6.15,5.93L248,119A9.28,9.28,0,0,1,245.8,128.44Z" transform="translate(-50.2 -50)"/><path class="cls-4" d="M239.53,122.17l-16,16.37a9.31,9.31,0,0,1-12.39.84l-11-11.24a9.34,9.34,0,0,1-2.15-9.58l5.84-16.77a9.28,9.28,0,0,1,8.49-6.24l20.55-.65a8.77,8.77,0,0,1,2.95.4l5.86,17.41A9.3,9.3,0,0,1,239.53,122.17Z" transform="translate(-50.2 -50)"/><path class="cls-3" d="M156.5,222.78a9.27,9.27,0,0,1-4.51,8.58l-9.09,5.42A68.49,68.49,0,0,0,137,230.3a70.18,70.18,0,0,0-30.09-17.24,9.19,9.19,0,0,1,1.45-3.56l10-14.71a9.33,9.33,0,0,1,9.82-3.84l20,4.67a3.63,3.63,0,0,1,.54.15,9.29,9.29,0,0,1,6.63,8.31Z" transform="translate(-50.2 -50)"/><path class="cls-4" d="M150.23,216.5a9.28,9.28,0,0,1-4.51,8.59L137,230.3a70.18,70.18,0,0,0-30.09-17.24,9.19,9.19,0,0,1,1.45-3.56l10-14.71a9.33,9.33,0,0,1,9.82-3.84l20,4.67a3.63,3.63,0,0,1,.54.15,9.17,9.17,0,0,1,.36,2Z" transform="translate(-50.2 -50)"/><rect class="cls-5" x="300.47" y="108.82" width="14" height="27.74" rx="7" ry="7" transform="translate(-73.64 63.11) rotate(-20.1)"/><rect class="cls-5" x="208.47" y="183.82" width="14" height="27.74" rx="7" ry="7" transform="translate(118.36 -140.94) rotate(38.23)"/><rect class="cls-1" x="292.47" y="195.82" width="14" height="27.74" rx="7" ry="7" transform="translate(-82.22 5.53) rotate(-10.06)"/><rect class="cls-5" x="136.47" y="126.82" width="14" height="27.74" rx="7" ry="7" transform="translate(-103.6 50.43) rotate(-32.88)"/><rect class="cls-5" x="377.47" y="210.82" width="14" height="27.74" rx="7" ry="7" transform="translate(-52.55 395.31) rotate(-60)"/><path class="cls-1" d="M450,251.24c0,1.15,0,2.3,0,3.45a2.49,2.49,0,0,1-3.4,2.26,65.25,65.25,0,0,0-9.11-2.77,64.43,64.43,0,0,0-10.66-1.54h0c-1.41-.09-2.83-.14-4.27-.14a66.85,66.85,0,0,0-47.9,20.15c-.9.91-1.76,1.85-2.6,2.82l0,0a3.47,3.47,0,0,1-5.88-1.15,66.83,66.83,0,0,0-4.61-10.1c-.62-1.12-1.28-2.22-2-3.3A66.85,66.85,0,0,1,410,238c.79,0,1.58,0,2.37.05A66.58,66.58,0,0,1,450,251.24Z" transform="translate(-50.2 -50)"/><path class="cls-1" d="M359.5,261a67,67,0,0,0-97.42,10.09c-1.1,1.45-2.15,2.95-3.12,4.49a70.88,70.88,0,0,0-10.55-17.39A67,67,0,0,1,359.5,261Z" transform="translate(-50.2 -50)"/><path class="cls-1" d="M174.4,330.57l-11.25,14.16a10.24,10.24,0,0,1-11.08,3.39l-11.58-3.63a10.22,10.22,0,0,1-7.07-8.41,10.11,10.11,0,0,1,1-5.91l4.74-9.54a10.23,10.23,0,0,1,7.54-5.54l16.64-2.67a10.19,10.19,0,0,1,7,1.4,10.35,10.35,0,0,1,2.39,2.05l1.45,1.69A10.23,10.23,0,0,1,174.4,330.57Z" transform="translate(-50.2 -50)"/><path class="cls-2" d="M168.4,322.57l-11.25,14.16a10.24,10.24,0,0,1-11.08,3.39l-11.58-3.63a9.11,9.11,0,0,1-1.07-.41,10.11,10.11,0,0,1,1-5.91l4.74-9.54a10.23,10.23,0,0,1,7.54-5.54l16.64-2.67a10.19,10.19,0,0,1,7,1.4A10.14,10.14,0,0,1,168.4,322.57Z" transform="translate(-50.2 -50)"/><path class="cls-1" d="M378.48,356.87l-16.23,8a10.25,10.25,0,0,1-11.47-1.67l-8.91-8.24a10.2,10.2,0,0,1-3.25-8.25,10.57,10.57,0,0,1,.46-2.37,10.15,10.15,0,0,1,3.41-4.93l8.37-6.59A10.2,10.2,0,0,1,360,331l16.19,4.7a10.08,10.08,0,0,1,4.93,3.2A9,9,0,0,1,382,340a10.47,10.47,0,0,1,1.29,2.87l.58,2.15A10.23,10.23,0,0,1,378.48,356.87Z" transform="translate(-50.2 -50)"/><path class="cls-2" d="M375.48,348.87l-16.23,8a10.25,10.25,0,0,1-11.47-1.67l-8.91-8.24a3,3,0,0,1-.25-.25,10.57,10.57,0,0,1,.46-2.37,10.15,10.15,0,0,1,3.41-4.93l8.37-6.59A10.2,10.2,0,0,1,360,331l16.19,4.7a10.08,10.08,0,0,1,4.93,3.2A10.23,10.23,0,0,1,375.48,348.87Z" transform="translate(-50.2 -50)"/><path class="cls-1" d="M261,409.65v5A12.12,12.12,0,0,1,253.22,426l-12.76,4.91A12.12,12.12,0,0,1,230,430l-7.48-4.4a12,12,0,0,1-4.53-4.73,11.33,11.33,0,0,1-1.13-2.95l-.73-3.13a12.13,12.13,0,0,1,5.79-13.32l9-5.14a12.09,12.09,0,0,1,8.75-1.29l12,2.76a11.6,11.6,0,0,1,3,1.12A12.1,12.1,0,0,1,261,409.65Z" transform="translate(-50.2 -50)"/><path class="cls-2" d="M256,404.65v5A12.12,12.12,0,0,1,248.22,421l-12.76,4.91A12.12,12.12,0,0,1,225,425l-7-4.13a11.33,11.33,0,0,1-1.13-2.95l-.73-3.13a12.13,12.13,0,0,1,5.79-13.32l9-5.14a12.09,12.09,0,0,1,8.75-1.29l12,2.76a11.6,11.6,0,0,1,3,1.12A12,12,0,0,1,256,404.65Z" transform="translate(-50.2 -50)"/><path class="cls-1" d="M259,275.55c-.39.61-.9,1.47-1.39,2.33a2.51,2.51,0,0,1-4.13.33A70.5,70.5,0,0,0,157,266.39h0a2,2,0,0,1-2.85-.58,70.51,70.51,0,0,0-100.85-23,2,2,0,0,1-3.06-1.69,197,197,0,0,1,1.86-19.88,2,2,0,0,1,1-1.42,70.43,70.43,0,0,1,84,10.52,71.35,71.35,0,0,1,12.14,15.54,1.93,1.93,0,0,0,2.83.57,70.51,70.51,0,0,1,96.46,11.75A70.88,70.88,0,0,1,259,275.55Z" transform="translate(-50.2 -50)"/></svg>