<svg id="Layer_1" data-name="Layer 1" xmlns="http://www.w3.org/2000/svg" viewBox="0 0 237.1 437"><defs><style>.cls-1{fill:#edc680;}.cls-2{fill:#d1aa78;}.cls-3{opacity:0.6;}.cls-4{fill:#aff4ff;}.cls-5{fill:#bf92e0;}.cls-6{fill:#9671bc;}.cls-7{fill:none;stroke:#ebfffd;stroke-linecap:round;stroke-width:9px;}.cls-7,.cls-8{stroke-miterlimit:10;}.cls-8{fill:#fff;stroke:#000;}</style></defs><title>potion-0</title><rect class="cls-1" x="85.55" width="66" height="115" rx="17.25" ry="17.25"/><path class="cls-2" d="M283,50.25v80.5A17.25,17.25,0,0,1,265.75,148H250V33h15.75A17.25,17.25,0,0,1,283,50.25Z" transform="translate(-131.45 -33)"/><g class="cls-3"><path class="cls-4" d="M363.33,312.65,306.88,457.47A19.67,19.67,0,0,1,288.55,470h-77.1a19.67,19.67,0,0,1-18.33-12.53L136.67,312.65a76.48,76.48,0,0,1,8.17-71l55.3-80.73a35.61,35.61,0,0,0,5.32-28.2l-5.81-25.07A15.22,15.22,0,0,1,214.48,89h71a15.22,15.22,0,0,1,14.83,18.66l-5.81,25.07a35.61,35.61,0,0,0,5.32,28.2l55.3,80.73A76.48,76.48,0,0,1,363.33,312.65Z" transform="translate(-131.45 -33)"/></g><path class="cls-5" d="M250,442.69V450H221.92A15,15,0,0,1,209,442.56C220.61,437.94,234.35,442.55,250,442.69Z" transform="translate(-131.45 -33)"/><path class="cls-6" d="M290.63,443.2a15,15,0,0,1-12.55,6.8H250v-7.31C265.49,442.82,279.07,438.37,290.63,443.2Z" transform="translate(-131.45 -33)"/><path class="cls-6" d="M286.83,290.33" transform="translate(-131.45 -33)"/><path class="cls-7" d="M283,184l52,78.11a26.73,26.73,0,0,1,2.67,24.5L300,382.33" transform="translate(-131.45 -33)"/><path class="cls-8" d="M168.67,456" transform="translate(-131.45 -33)"/><line class="cls-7" x1="162.38" y1="365.67" x2="151.55" y2="392.67"/></svg>