<svg id="Layer_1" data-name="Layer 1" xmlns="http://www.w3.org/2000/svg" viewBox="0 0 237.1 437"><defs><style>.cls-1{fill:#edc680;}.cls-2{fill:#d1aa78;}.cls-3{opacity:0.6;}.cls-4{fill:#aff4ff;}.cls-5{fill:#9671bc;}.cls-6{fill:#6c5696;}.cls-7{fill:#bf92e0;}.cls-8{fill:none;stroke:#ddc4f2;stroke-linecap:round;stroke-miterlimit:10;stroke-width:9px;}.cls-9{fill:#ddc4f2;}.cls-10{fill:#69599b;}</style></defs><title>potion-3</title><rect class="cls-1" x="85.55" width="66" height="115" rx="17.25" ry="17.25"/><path class="cls-2" d="M283,50.25v80.5A17.25,17.25,0,0,1,265.75,148H250V33h15.75A17.25,17.25,0,0,1,283,50.25Z" transform="translate(-131.45 -33)"/><g class="cls-3"><path class="cls-4" d="M363.33,312.65,306.88,457.47A19.67,19.67,0,0,1,288.55,470h-77.1a19.67,19.67,0,0,1-18.33-12.53L136.67,312.65a76.48,76.48,0,0,1,8.17-71l55.3-80.73a35.61,35.61,0,0,0,5.32-28.2l-5.81-25.07A15.22,15.22,0,0,1,214.48,89h71a15.22,15.22,0,0,1,14.83,18.66l-5.81,25.07a35.61,35.61,0,0,0,5.32,28.2l55.3,80.73A76.48,76.48,0,0,1,363.33,312.65Z" transform="translate(-131.45 -33)"/></g><path class="cls-5" d="M322.22,229a78.25,78.25,0,0,0-8.22,2,82.82,82.82,0,0,0-9.27,3.47C292.65,239.82,284.36,246.3,266,248a94.24,94.24,0,0,1-16,.1,116,116,0,0,1-34-8.1c-17.09-6.78-24.42-14.36-32.47-19.44,0,0,22.95-6.88,66.47-3.75A411.51,411.51,0,0,1,322.22,229Z" transform="translate(-131.45 -33)"/><path class="cls-6" d="M322.22,229,316,246l-53,17-13-1.2L209,258l-25.47-37.44c8.05,5.08,15.38,12.66,32.47,19.44a116,116,0,0,0,34,8.1,94.24,94.24,0,0,0,16-.1c18.36-1.7,26.65-8.18,38.73-13.53A82.82,82.82,0,0,1,314,231,78.25,78.25,0,0,1,322.22,229Z" transform="translate(-131.45 -33)"/><path class="cls-7" d="M344.69,305.39,292.05,440.45a15,15,0,0,1-14,9.55H221.92a15,15,0,0,1-14-9.55L155.3,305.39a56.47,56.47,0,0,1,6-52.43l22.19-32.4c8.05,5.08,15.38,12.66,32.47,19.44a116,116,0,0,0,34,8.1,94.24,94.24,0,0,0,16-.1c18.36-1.7,26.65-8.18,38.73-13.53A82.82,82.82,0,0,1,314,231a78.25,78.25,0,0,1,8.22-2l16.44,24A56.44,56.44,0,0,1,344.69,305.39Z" transform="translate(-131.45 -33)"/><path class="cls-5" d="M344.69,305.39,292.05,440.45a15,15,0,0,1-14,9.55H250V248.1a94.24,94.24,0,0,0,16-.1c18.36-1.7,26.65-8.18,38.73-13.53A82.82,82.82,0,0,1,314,231a78.25,78.25,0,0,1,8.22-2l16.44,24A56.44,56.44,0,0,1,344.69,305.39Z" transform="translate(-131.45 -33)"/><path class="cls-8" d="M316.92,254.77l4.4,7.24a44.31,44.31,0,0,1,3.62,36.64L306.5,352.5" transform="translate(-131.45 -33)"/><line class="cls-8" x1="168.05" y1="340.5" x2="158.05" y2="367.5"/><circle class="cls-9" cx="94.05" cy="312.5" r="6.5"/><circle class="cls-9" cx="63.05" cy="285.5" r="16.5"/><circle class="cls-9" cx="73.05" cy="341.5" r="9.5"/><circle class="cls-9" cx="142.05" cy="399.5" r="9.5"/><path class="cls-10" d="M322.22,229a78.25,78.25,0,0,0-8.22,2,82.82,82.82,0,0,0-9.27,3.47C292.65,239.82,284.36,246.3,266,248a94.24,94.24,0,0,1-16,.1V216.81A411.51,411.51,0,0,1,322.22,229Z" transform="translate(-131.45 -33)"/></svg>