<svg id="Layer_1" data-name="Layer 1" xmlns="http://www.w3.org/2000/svg" viewBox="0 0 237.1 437"><defs><style>.cls-1{fill:#edc680;}.cls-2{fill:#d1aa78;}.cls-3{opacity:0.6;}.cls-4{fill:#aff4ff;}.cls-5{fill:#bf92e0;}.cls-6{fill:#9671bc;}.cls-7{fill:none;stroke:#ddc4f2;stroke-linecap:round;stroke-miterlimit:10;stroke-width:9px;}.cls-8{fill:#ddc4f2;}</style></defs><title>potion-4</title><rect class="cls-1" x="85.55" width="66" height="115" rx="17.25" ry="17.25"/><path class="cls-2" d="M283,50.25v80.5A17.25,17.25,0,0,1,265.75,148H250V33h15.75A17.25,17.25,0,0,1,283,50.25Z" transform="translate(-131.45 -33)"/><g class="cls-3"><path class="cls-4" d="M363.33,312.65,306.88,457.47A19.67,19.67,0,0,1,288.55,470h-77.1a19.67,19.67,0,0,1-18.33-12.53L136.67,312.65a76.48,76.48,0,0,1,8.17-71l55.3-80.73a35.61,35.61,0,0,0,5.32-28.2l-5.81-25.07A15.22,15.22,0,0,1,214.48,89h71a15.22,15.22,0,0,1,14.83,18.66l-5.81,25.07a35.61,35.61,0,0,0,5.32,28.2l55.3,80.73A76.48,76.48,0,0,1,363.33,312.65Z" transform="translate(-131.45 -33)"/></g><path class="cls-5" d="M344.69,305.39,292.05,440.45a15,15,0,0,1-14,9.55H221.92a15,15,0,0,1-14-9.55L155.3,305.39a56.47,56.47,0,0,1,6-52.43l55.3-80.73.3-.45c6.46,4,13.44,8.93,26.06,13.22.52.18,3.09,1,7,2.05A118.83,118.83,0,0,0,280,191a73.24,73.24,0,0,0,15.06-1.7L338.66,253A56.44,56.44,0,0,1,344.69,305.39Z" transform="translate(-131.45 -33)"/><path class="cls-6" d="M344.69,305.39,292.05,440.45a15,15,0,0,1-14,9.55H250V187.05A118.83,118.83,0,0,0,280,191a73.24,73.24,0,0,0,15.06-1.7L338.66,253A56.44,56.44,0,0,1,344.69,305.39Z" transform="translate(-131.45 -33)"/><path class="cls-7" d="M291.5,212.5,321.32,262a44.31,44.31,0,0,1,3.62,36.64L306.5,352.5" transform="translate(-131.45 -33)"/><line class="cls-7" x1="168.05" y1="340.5" x2="158.05" y2="367.5"/><circle class="cls-8" cx="94.05" cy="312.5" r="6.5"/><circle class="cls-8" cx="107.05" cy="172.5" r="6.5"/><circle class="cls-8" cx="63.05" cy="285.5" r="16.5"/><circle class="cls-8" cx="73.05" cy="341.5" r="9.5"/><circle class="cls-8" cx="135.05" cy="196.5" r="9.5"/><circle class="cls-8" cx="142.05" cy="399.5" r="9.5"/></svg>