<svg id="Layer_1" data-name="Layer 1" xmlns="http://www.w3.org/2000/svg" viewBox="0 0 237.1 437"><defs><style>.cls-1{fill:#edc680;}.cls-2{fill:#d1aa78;}.cls-3{opacity:0.6;}.cls-4{fill:#aff4ff;}.cls-5{fill:#69599b;}.cls-6{fill:#bf92e0;}.cls-7{fill:#9671bc;}.cls-10,.cls-8{fill:none;stroke-linecap:round;stroke-miterlimit:10;stroke-width:9px;}.cls-8{stroke:#ddc4f2;}.cls-9{fill:#ddc4f2;}.cls-10{stroke:#ebfffd;}</style></defs><title>potion-2</title><rect class="cls-1" x="85.55" width="66" height="115" rx="17.25" ry="17.25"/><path class="cls-2" d="M283,50.25v80.5A17.25,17.25,0,0,1,265.75,148H250V33h15.75A17.25,17.25,0,0,1,283,50.25Z" transform="translate(-131.45 -33)"/><g class="cls-3"><path class="cls-4" d="M363.33,312.65,306.88,457.47A19.67,19.67,0,0,1,288.55,470h-77.1a19.67,19.67,0,0,1-18.33-12.53L136.67,312.65a76.48,76.48,0,0,1,8.17-71l55.3-80.73a35.61,35.61,0,0,0,5.32-28.2l-5.81-25.07A15.22,15.22,0,0,1,214.48,89h71a15.22,15.22,0,0,1,14.83,18.66l-5.81,25.07a35.61,35.61,0,0,0,5.32,28.2l55.3,80.73A76.48,76.48,0,0,1,363.33,312.65Z" transform="translate(-131.45 -33)"/></g><path class="cls-5" d="M347.43,296.06c-13.93,7.48-26.15,18.2-50.43,17.44-21.23-.67-33.54-9.55-47-16.1v-8.95C310,283.88,347.43,296.06,347.43,296.06Z" transform="translate(-131.45 -33)"/><path class="cls-6" d="M250,297.4V450H221.92a15,15,0,0,1-14-9.55L156.36,308.1a90.07,90.07,0,0,0,14.14-1.6c20-3.83,22.55-10.62,36-14.14a58.08,58.08,0,0,1,7-1.36,66.85,66.85,0,0,1,7.82-.62h1.35C233.6,290.42,242,293.51,250,297.4Z" transform="translate(-131.45 -33)"/><path class="cls-7" d="M347.43,296.06a57.09,57.09,0,0,1-2.74,9.33L292.05,440.45a15,15,0,0,1-14,9.55H250V297.4c13.46,6.55,25.77,15.43,47,16.1C321.28,314.26,333.5,303.54,347.43,296.06Z" transform="translate(-131.45 -33)"/><line class="cls-8" x1="179.09" y1="310.7" x2="158.05" y2="367.5"/><circle class="cls-9" cx="94.05" cy="317.2" r="6.5"/><circle class="cls-9" cx="66.05" cy="296" r="16.5"/><circle class="cls-9" cx="73.05" cy="341.5" r="9.5"/><circle class="cls-9" cx="142.05" cy="399.5" r="9.5"/><path class="cls-7" d="M286.83,290.33Z" transform="translate(-131.45 -33)"/><path class="cls-7" d="M250,288.45v8.95c-8-3.89-16.4-7-27.33-7C233.92,289.41,242.76,288.81,250,288.45Z" transform="translate(-131.45 -33)"/><path class="cls-10" d="M283,184l44.43,66.77a29.64,29.64,0,0,1,3.85,24.45l-1.45,5.11" transform="translate(-131.45 -33)"/></svg>