<svg id="Layer_1" data-name="Layer 1" xmlns="http://www.w3.org/2000/svg" viewBox="0 0 237.1 437"><defs><style>.cls-1{fill:#edc680;}.cls-2{fill:#d1aa78;}.cls-3{opacity:0.6;}.cls-4{fill:#aff4ff;}.cls-5{fill:#bf92e0;}.cls-6{fill:#9671bc;}.cls-10,.cls-7{fill:none;stroke-linecap:round;stroke-miterlimit:10;stroke-width:9px;}.cls-7{stroke:#ddc4f2;}.cls-8{fill:#ddc4f2;}.cls-9{fill:#69599b;}.cls-10{stroke:#ebfffd;}</style></defs><title>potion-1</title><rect class="cls-1" x="85.55" width="66" height="115" rx="17.25" ry="17.25"/><path class="cls-2" d="M283,50.25v80.5A17.25,17.25,0,0,1,265.75,148H250V33h15.75A17.25,17.25,0,0,1,283,50.25Z" transform="translate(-131.45 -33)"/><g class="cls-3"><path class="cls-4" d="M363.33,312.65,306.88,457.47A19.67,19.67,0,0,1,288.55,470h-77.1a19.67,19.67,0,0,1-18.33-12.53L136.67,312.65a76.48,76.48,0,0,1,8.17-71l55.3-80.73a35.61,35.61,0,0,0,5.32-28.2l-5.81-25.07A15.22,15.22,0,0,1,214.48,89h71a15.22,15.22,0,0,1,14.83,18.66l-5.81,25.07a35.61,35.61,0,0,0,5.32,28.2l55.3,80.73A76.48,76.48,0,0,1,363.33,312.65Z" transform="translate(-131.45 -33)"/></g><path class="cls-5" d="M250,364.55V450H221.92a15,15,0,0,1-14-9.55l-21.08-54.07L180.48,370a71.51,71.51,0,0,0,22.19,4.69,96,96,0,0,0,29-3A73,73,0,0,0,250,364.55Z" transform="translate(-131.45 -33)"/><path class="cls-6" d="M319.93,368.93l-27.88,71.52a15,15,0,0,1-14,9.55H250V364.55A75.15,75.15,0,0,1,261.67,359a51.65,51.65,0,0,1,19.11-2.64l.72,0,.82,0,.42,0C295.93,357.44,309,362.58,319.93,368.93Z" transform="translate(-131.45 -33)"/><line class="cls-7" x1="166.86" y1="343.7" x2="158.05" y2="367.5"/><circle class="cls-8" cx="94.67" cy="350.2" r="6.5"/><circle class="cls-8" cx="79.55" cy="366.75" r="9.5"/><circle class="cls-8" cx="142.05" cy="399.5" r="9.5"/><path class="cls-6" d="M286.83,290.33" transform="translate(-131.45 -33)"/><path class="cls-9" d="M280.78,356.36A51.65,51.65,0,0,0,261.67,359,75.15,75.15,0,0,0,250,364.55v-8.71C259.19,355.59,269.42,355.71,280.78,356.36Z" transform="translate(-131.45 -33)"/><path class="cls-6" d="M250,355.84v8.71a73,73,0,0,1-18.33,7.12,96,96,0,0,1-29,3A71.51,71.51,0,0,1,180.48,370S199.35,357.21,250,355.84Z" transform="translate(-131.45 -33)"/><path class="cls-10" d="M283,184l52,78.11a26.73,26.73,0,0,1,2.67,24.5L316,342.33" transform="translate(-131.45 -33)"/></svg>