<?xml version="1.0" encoding="utf-8"?>
<!-- Generator: Adobe Illustrator 22.1.0, SVG Export Plug-In . SVG Version: 6.00 Build 0)  -->
<svg version="1.1" id="Layer_1" xmlns="http://www.w3.org/2000/svg" xmlns:xlink="http://www.w3.org/1999/xlink" x="0px" y="0px"
	 viewBox="0 0 200 200" style="enable-background:new 0 0 200 200;" xml:space="preserve">
<style type="text/css">
	.st0{opacity:0.8;}
	.st1{fill:#999999;}
	.st2{fill:#6D6D6D;}
	.st3{fill:#FFFFFF;}
</style>
<g class="st0">
	<circle class="st1" cx="100" cy="100" r="93.3"/>
	<path class="st2" d="M100,13.3c47.8,0,86.7,38.9,86.7,86.7s-38.9,86.7-86.7,86.7S13.3,147.8,13.3,100S52.2,13.3,100,13.3 M100,0
		C44.8,0,0,44.8,0,100s44.8,100,100,100s100-44.8,100-100S155.2,0,100,0L100,0z"/>
	<path class="st3" d="M153.8,87.2h-41v-41c0-7.1-5.7-12.8-12.8-12.8s-12.8,5.7-12.8,12.8v41h-41c-7.1,0-12.8,5.7-12.8,12.8
		s5.7,12.8,12.8,12.8h41v41c0,7.1,5.7,12.8,12.8,12.8s12.8-5.7,12.8-12.8v-41h41c7.1,0,12.8-5.7,12.8-12.8S160.9,87.2,153.8,87.2z"
		/>
</g>
</svg>
