<?xml version="1.0" encoding="utf-8"?>
<!-- Generator: Adobe Illustrator 22.1.0, SVG Export Plug-In . SVG Version: 6.00 Build 0)  -->
<svg version="1.1" id="bush1" xmlns="http://www.w3.org/2000/svg" xmlns:xlink="http://www.w3.org/1999/xlink" x="0px" y="0px"
	 viewBox="0 0 1198 454" style="enable-background:new 0 0 1198 454;" xml:space="preserve">
<style type="text/css">
	.st0{fill:#606C38;}
	.st1{fill:#83944C;}
</style>
<g>
	<path class="st0" d="M1090.7,128c-20.6-43.7-65.1-74-116.7-74c-17.1,0-33.3,3.3-48.2,9.3C904.3,47.4,877.8,38,849,38
		c-22.7,0-44.1,5.9-62.7,16.2C762.7,27.7,728.3,11,690,11c-50.1,0-93.6,28.6-114.9,70.3C558.4,73.4,539.7,69,520,69
		c-18.7,0-36.5,4-52.5,11.2C444.2,46.2,405.2,24,361,24c-45.6,0-85.6,23.6-108.6,59.3c-3.1-0.2-6.2-0.3-9.4-0.3
		c-54.8,0-101.7,33.9-120.8,81.9C65.8,179.1,24,230.2,24,291c0,71.8,58.2,130,130,130c31.5,0,60.3-11.2,82.8-29.8
		c20.8,14.4,46,22.8,73.2,22.8c31.3,0,60-11.2,82.3-29.7C416,411.7,451,429,490,429c39,0,73.9-17.3,97.6-44.6
		C611.1,415.2,648.2,435,690,435c40.2,0,76.2-18.4,99.8-47.3C812.7,423.9,853,448,899,448c51.6,0,96-30.2,116.7-74
		c14.6,5.8,30.6,9,47.3,9c71.2,0,129-57.8,129-129C1192,192.3,1148.6,140.7,1090.7,128z"/>
</g>
<g>
	<path class="st1" d="M1074.7,128c-20.6-43.7-65.1-74-116.7-74c-17.1,0-33.3,3.3-48.2,9.3C888.3,47.4,861.8,38,833,38
		c-22.7,0-44.1,5.9-62.7,16.2C746.7,27.7,712.3,11,674,11c-50.1,0-93.6,28.6-114.9,70.3C542.4,73.4,523.7,69,504,69
		c-18.7,0-36.5,4-52.5,11.2C428.2,46.2,389.2,24,345,24c-45.6,0-85.6,23.6-108.6,59.3c-3.1-0.2-6.2-0.3-9.4-0.3
		c-54.8,0-101.7,33.9-120.8,81.9C49.8,179.1,8,230.2,8,291c0,71.8,58.2,130,130,130c31.5,0,60.3-11.2,82.8-29.8
		c20.8,14.4,46,22.8,73.2,22.8c31.3,0,60-11.2,82.3-29.7C400,411.7,435,429,474,429c39,0,73.9-17.3,97.6-44.6
		C595.1,415.2,632.2,435,674,435c40.2,0,76.2-18.4,99.8-47.3C796.7,423.9,837,448,883,448c51.6,0,96-30.2,116.7-74
		c14.6,5.8,30.6,9,47.3,9c71.2,0,129-57.8,129-129C1176,192.3,1132.6,140.7,1074.7,128z"/>
</g>
<g>
	<path class="st0" d="M817.2,199.6c-1.1,0-2.2-0.4-3-1.2c-1.7-1.7-1.7-4.3,0-6l50.3-50.3c1.7-1.7,4.3-1.7,6,0c1.7,1.7,1.7,4.3,0,6
		l-50.3,50.3C819.4,199.2,818.3,199.6,817.2,199.6z"/>
</g>
<g>
	<path class="st0" d="M852,191c-1.1,0-2.2-0.4-3-1.2c-1.7-1.7-1.7-4.3,0-6l50.3-50.3c1.7-1.7,4.3-1.7,6,0c1.7,1.7,1.7,4.3,0,6
		L855,189.8C854.1,190.6,853.1,191,852,191z"/>
</g>
<g>
	<path class="st0" d="M617.2,359.6c-1.1,0-2.2-0.4-3-1.2c-1.7-1.7-1.7-4.3,0-6l50.3-50.3c1.7-1.7,4.3-1.7,6,0c1.7,1.7,1.7,4.3,0,6
		l-50.3,50.3C619.4,359.2,618.3,359.6,617.2,359.6z"/>
</g>
<g>
	<path class="st0" d="M634,374c-1.1,0-2.2-0.4-3-1.2c-1.7-1.7-1.7-4.3,0-6l50.3-50.3c1.7-1.7,4.3-1.7,6,0c1.7,1.7,1.7,4.3,0,6
		L637,372.8C636.1,373.6,635.1,374,634,374z"/>
</g>
<g>
	<path class="st0" d="M1030.2,257.6c-1.1,0-2.2-0.4-3-1.2c-1.7-1.7-1.7-4.3,0-6l50.3-50.3c1.7-1.7,4.3-1.7,6,0c1.7,1.7,1.7,4.3,0,6
		l-50.3,50.3C1032.4,257.2,1031.3,257.6,1030.2,257.6z"/>
</g>
<g>
	<path class="st0" d="M1048,268c-1.1,0-2.2-0.4-3-1.2c-1.7-1.7-1.7-4.3,0-6l50.3-50.3c1.7-1.7,4.3-1.7,6,0c1.7,1.7,1.7,4.3,0,6
		l-50.3,50.3C1050.1,267.6,1049.1,268,1048,268z"/>
</g>
<g>
	<path class="st0" d="M591.2,143.6c-1.1,0-2.2-0.4-3-1.2c-1.7-1.7-1.7-4.3,0-6l50.3-50.3c1.7-1.7,4.3-1.7,6,0c1.7,1.7,1.7,4.3,0,6
		l-50.3,50.3C593.4,143.2,592.3,143.6,591.2,143.6z"/>
</g>
<g>
	<path class="st0" d="M591,174c-1.1,0-2.2-0.4-3-1.2c-1.7-1.7-1.7-4.3,0-6l50.3-50.3c1.7-1.7,4.3-1.7,6,0c1.7,1.7,1.7,4.3,0,6
		L594,172.8C593.1,173.6,592.1,174,591,174z"/>
</g>
<g>
	<path class="st0" d="M291.2,172.6c-1.1,0-2.2-0.4-3-1.2c-1.7-1.7-1.7-4.3,0-6l50.3-50.3c1.7-1.7,4.3-1.7,6,0c1.7,1.7,1.7,4.3,0,6
		l-50.3,50.3C293.4,172.2,292.3,172.6,291.2,172.6z"/>
</g>
<g>
	<path class="st0" d="M306,187c-1.1,0-2.2-0.4-3-1.2c-1.7-1.7-1.7-4.3,0-6l50.3-50.3c1.7-1.7,4.3-1.7,6,0c1.7,1.7,1.7,4.3,0,6
		L309,185.8C308.1,186.6,307.1,187,306,187z"/>
</g>
<g>
	<path class="st0" d="M109.2,328.6c-1.1,0-2.2-0.4-3-1.2c-1.7-1.7-1.7-4.3,0-6l50.3-50.3c1.7-1.7,4.3-1.7,6,0c1.7,1.7,1.7,4.3,0,6
		l-50.3,50.3C111.4,328.2,110.3,328.6,109.2,328.6z"/>
</g>
<g>
	<path class="st0" d="M134,334c-1.1,0-2.2-0.4-3-1.2c-1.7-1.7-1.7-4.3,0-6l50.3-50.3c1.7-1.7,4.3-1.7,6,0c1.7,1.7,1.7,4.3,0,6
		L137,332.8C136.1,333.6,135.1,334,134,334z"/>
</g>
<g>
	<path class="st0" d="M385.2,288.6c-1.1,0-2.2-0.4-3-1.2c-1.7-1.7-1.7-4.3,0-6l50.3-50.3c1.7-1.7,4.3-1.7,6,0c1.7,1.7,1.7,4.3,0,6
		l-50.3,50.3C387.4,288.2,386.3,288.6,385.2,288.6z"/>
</g>
<g>
	<path class="st0" d="M419,285c-1.1,0-2.2-0.4-3-1.2c-1.7-1.7-1.7-4.3,0-6l50.3-50.3c1.7-1.7,4.3-1.7,6,0c1.7,1.7,1.7,4.3,0,6
		L422,283.8C421.1,284.6,420.1,285,419,285z"/>
</g>
<g>
	<path class="st0" d="M870.2,359.6c-1.1,0-2.2-0.4-3-1.2c-1.7-1.7-1.7-4.3,0-6l50.3-50.3c1.7-1.7,4.3-1.7,6,0c1.7,1.7,1.7,4.3,0,6
		l-50.3,50.3C872.4,359.2,871.3,359.6,870.2,359.6z"/>
</g>
<g>
	<path class="st0" d="M889,367c-1.1,0-2.2-0.4-3-1.2c-1.7-1.7-1.7-4.3,0-6l50.3-50.3c1.7-1.7,4.3-1.7,6,0c1.7,1.7,1.7,4.3,0,6
		L892,365.8C891.1,366.6,890.1,367,889,367z"/>
</g>
</svg>
