<?xml version="1.0" encoding="utf-8"?>
<!-- Generator: Adobe Illustrator 22.1.0, SVG Export Plug-In . SVG Version: 6.00 Build 0)  -->
<svg version="1.1" id="bush1" xmlns="http://www.w3.org/2000/svg" xmlns:xlink="http://www.w3.org/1999/xlink" x="0px" y="0px"
	 viewBox="0 0 1186 454" style="enable-background:new 0 0 1186 454;" xml:space="preserve">
<style type="text/css">
	.st0{fill:#83944C;}
	.st1{fill:#606C38;}
</style>
<g>
	<g>
		<path class="st0" d="M883,441.5c-42.3,0-81.1-21.4-103.7-57.3c-1.1-1.8-3-2.9-5.1-3c-0.1,0-0.3,0-0.4,0c-1.9,0-3.8,0.9-5,2.4
			c-23.4,28.5-57.9,44.9-94.8,44.9c-38.4,0-73.9-17.5-97.3-48.1c-1.2-1.6-3-2.5-5-2.5c-0.1,0-0.1,0-0.2,0c-1.9,0-3.7,0.8-4.9,2.2
			c-23.3,26.9-57.1,42.4-92.6,42.4c-35.6,0-69.4-15.5-92.7-42.5c-1.3-1.5-3.1-2.3-4.9-2.3c-1.5,0-2.9,0.5-4.1,1.5
			c-21.9,18.2-49.7,28.2-78.2,28.2c-25,0-49-7.5-69.5-21.6c-1.1-0.8-2.4-1.2-3.7-1.2c-1.5,0-2.9,0.5-4.1,1.5
			c-22.1,18.2-50,28.3-78.7,28.3c-68.1,0-123.5-55.4-123.5-123.5c0-56.7,38.4-106,93.3-119.8c2-0.5,3.7-2,4.5-3.9
			c9-22.7,24.5-42.1,44.7-56C177.6,97,201.8,89.5,227,89.5c2.9,0,5.9,0.1,8.9,0.3c0.2,0,0.3,0,0.5,0c2.2,0,4.3-1.1,5.5-3
			c22.7-35.3,61.2-56.4,103.1-56.4c40.4,0,78.2,19.9,101.1,53.3c1.2,1.8,3.3,2.8,5.4,2.8c0.9,0,1.8-0.2,2.6-0.6
			c15.7-7,32.5-10.6,49.9-10.6c18.3,0,35.9,3.9,52.3,11.7c0.9,0.4,1.8,0.6,2.8,0.6c2.4,0,4.6-1.3,5.8-3.5
			c21.1-41.2,62.9-66.8,109.1-66.8c34.9,0,68.2,15,91.5,41c1.3,1.4,3,2.2,4.9,2.2c1.1,0,2.2-0.3,3.2-0.8
			c18.1-10.1,38.7-15.4,59.5-15.4c26.5,0,51.7,8.3,72.9,24c1.1,0.8,2.5,1.3,3.9,1.3c0.8,0,1.6-0.2,2.4-0.5c14.6-5.9,30-8.9,45.8-8.9
			c23.7,0,46.6,6.8,66.4,19.6c19.3,12.5,34.6,30,44.4,50.7c0.9,1.8,2.5,3.1,4.5,3.6c26.8,5.9,51.3,20.9,68.7,42.4
			c17.7,21.7,27.5,49.2,27.5,77.3c0,67.5-55,122.5-122.5,122.5c-15.5,0-30.6-2.9-44.9-8.5c-0.8-0.3-1.6-0.5-2.4-0.5
			c-2.4,0-4.8,1.4-5.9,3.7c-9.8,20.7-25.1,38.2-44.4,50.7C929.6,434.7,906.7,441.5,883,441.5z"/>
		<path class="st1" d="M674,24c33,0,64.6,14.2,86.6,38.9c2.5,2.8,6.1,4.4,9.7,4.4c2.2,0,4.3-0.5,6.3-1.6C793.8,56,813.3,51,833,51
			c25.1,0,48.9,7.9,69,22.8c2.3,1.7,5,2.6,7.7,2.6c1.6,0,3.3-0.3,4.9-0.9C928.4,69.8,943,67,958,67c22.4,0,44.2,6.4,62.9,18.5
			c18.3,11.8,32.8,28.4,42.1,48c1.7,3.6,5,6.3,9,7.1c25.4,5.6,48.5,19.8,65.1,40.1c16.8,20.6,26,46.6,26,73.2c0,31-12.1,60.1-34,82
			c-21.9,21.9-51,34-82,34c-14.7,0-29-2.7-42.5-8c-1.6-0.6-3.2-0.9-4.8-0.9c-4.9,0-9.5,2.8-11.8,7.4c-9.3,19.6-23.8,36.2-42.1,48
			C927.1,428.6,905.4,435,883,435c-20,0-39.6-5.1-56.9-14.9c-16.8-9.4-31-23.1-41.3-39.3c-2.2-3.5-6-5.8-10.2-6c-0.3,0-0.5,0-0.8,0
			c-3.9,0-7.6,1.7-10.1,4.8c-22.2,27-54.9,42.5-89.8,42.5c-18.4,0-35.9-4.2-52.2-12.4c-15.5-7.8-29.3-19.3-39.9-33.1
			c-2.4-3.1-6-5-9.9-5.1c-0.1,0-0.3,0-0.4,0c-3.8,0-7.4,1.6-9.8,4.5c-22.1,25.5-54,40.1-87.7,40.1c-33.7,0-65.7-14.7-87.8-40.2
			c-2.6-3-6.2-4.5-9.8-4.5c-2.9,0-5.9,1-8.3,3c-20.7,17.2-47,26.7-74,26.7c-23.7,0-46.4-7.1-65.8-20.5c-2.2-1.5-4.8-2.3-7.4-2.3
			c-3,0-5.9,1-8.3,3C191.6,398.5,165.2,408,138,408c-31.3,0-60.6-12.2-82.7-34.3C33.2,351.6,21,322.3,21,291
			c0-26.6,8.7-51.6,25.1-72.5c16-20.2,38.4-34.8,63.2-41c4-1,7.4-3.9,8.9-7.8c8.6-21.5,23.2-39.9,42.3-53.1
			C180.2,103.1,203.1,96,227,96c2.8,0,5.6,0.1,8.5,0.3c0.3,0,0.6,0,0.9,0c4.4,0,8.5-2.2,10.9-6C268.8,57,305.3,37,345,37
			c38.3,0,74.1,18.9,95.7,50.5c2.5,3.6,6.5,5.7,10.7,5.7c1.8,0,3.6-0.4,5.3-1.1c14.9-6.7,30.8-10,47.2-10c17.3,0,34,3.7,49.5,11.1
			c1.8,0.8,3.7,1.3,5.5,1.3c4.7,0,9.3-2.6,11.6-7.1c9.6-18.7,24.1-34.5,42-45.7C631,30.1,652.2,24,674,24 M674,11
			c-50.1,0-93.6,28.6-114.9,70.3C542.4,73.4,523.7,69,504,69c-18.7,0-36.5,4-52.5,11.2C428.2,46.2,389.2,24,345,24
			c-45.6,0-85.6,23.6-108.6,59.3c-3.1-0.2-6.2-0.3-9.4-0.3c-54.8,0-101.7,33.9-120.8,81.9C49.8,179.1,8,230.2,8,291
			c0,71.8,58.2,130,130,130c31.5,0,60.3-11.2,82.8-29.8c20.8,14.4,46,22.8,73.2,22.8c31.3,0,60-11.2,82.3-29.7
			C400,411.7,435,429,474,429c39,0,73.9-17.3,97.6-44.6C595.1,415.2,632.2,435,674,435c40.2,0,76.2-18.4,99.8-47.3
			C796.7,423.9,837,448,883,448c51.6,0,96-30.2,116.7-74c14.6,5.8,30.6,9,47.3,9c71.2,0,129-57.8,129-129
			c0-61.7-43.4-113.3-101.3-126c-20.6-43.7-65.1-74-116.7-74c-17.1,0-33.3,3.3-48.2,9.3C888.3,47.4,861.8,38,833,38
			c-22.7,0-44.1,5.9-62.7,16.2C746.7,27.7,712.3,11,674,11L674,11z"/>
	</g>
	<g>
		<path class="st1" d="M817.2,199.6c-1.1,0-2.2-0.4-3-1.2c-1.7-1.7-1.7-4.3,0-6l50.3-50.3c1.7-1.7,4.3-1.7,6,0c1.7,1.7,1.7,4.3,0,6
			l-50.3,50.3C819.4,199.2,818.3,199.6,817.2,199.6z"/>
	</g>
	<g>
		<path class="st1" d="M852,191c-1.1,0-2.2-0.4-3-1.2c-1.7-1.7-1.7-4.3,0-6l50.3-50.3c1.7-1.7,4.3-1.7,6,0c1.7,1.7,1.7,4.3,0,6
			L855,189.8C854.1,190.6,853.1,191,852,191z"/>
	</g>
	<g>
		<path class="st1" d="M617.2,359.6c-1.1,0-2.2-0.4-3-1.2c-1.7-1.7-1.7-4.3,0-6l50.3-50.3c1.7-1.7,4.3-1.7,6,0c1.7,1.7,1.7,4.3,0,6
			l-50.3,50.3C619.4,359.2,618.3,359.6,617.2,359.6z"/>
	</g>
	<g>
		<path class="st1" d="M634,374c-1.1,0-2.2-0.4-3-1.2c-1.7-1.7-1.7-4.3,0-6l50.3-50.3c1.7-1.7,4.3-1.7,6,0c1.7,1.7,1.7,4.3,0,6
			L637,372.8C636.1,373.6,635.1,374,634,374z"/>
	</g>
	<g>
		<path class="st1" d="M1030.2,257.6c-1.1,0-2.2-0.4-3-1.2c-1.7-1.7-1.7-4.3,0-6l50.3-50.3c1.7-1.7,4.3-1.7,6,0c1.7,1.7,1.7,4.3,0,6
			l-50.3,50.3C1032.4,257.2,1031.3,257.6,1030.2,257.6z"/>
	</g>
	<g>
		<path class="st1" d="M1048,268c-1.1,0-2.2-0.4-3-1.2c-1.7-1.7-1.7-4.3,0-6l50.3-50.3c1.7-1.7,4.3-1.7,6,0c1.7,1.7,1.7,4.3,0,6
			l-50.3,50.3C1050.1,267.6,1049.1,268,1048,268z"/>
	</g>
	<g>
		<path class="st1" d="M591.2,143.6c-1.1,0-2.2-0.4-3-1.2c-1.7-1.7-1.7-4.3,0-6l50.3-50.3c1.7-1.7,4.3-1.7,6,0c1.7,1.7,1.7,4.3,0,6
			l-50.3,50.3C593.4,143.2,592.3,143.6,591.2,143.6z"/>
	</g>
	<g>
		<path class="st1" d="M591,174c-1.1,0-2.2-0.4-3-1.2c-1.7-1.7-1.7-4.3,0-6l50.3-50.3c1.7-1.7,4.3-1.7,6,0c1.7,1.7,1.7,4.3,0,6
			L594,172.8C593.1,173.6,592.1,174,591,174z"/>
	</g>
	<g>
		<path class="st1" d="M291.2,172.6c-1.1,0-2.2-0.4-3-1.2c-1.7-1.7-1.7-4.3,0-6l50.3-50.3c1.7-1.7,4.3-1.7,6,0c1.7,1.7,1.7,4.3,0,6
			l-50.3,50.3C293.4,172.2,292.3,172.6,291.2,172.6z"/>
	</g>
	<g>
		<path class="st1" d="M306,187c-1.1,0-2.2-0.4-3-1.2c-1.7-1.7-1.7-4.3,0-6l50.3-50.3c1.7-1.7,4.3-1.7,6,0c1.7,1.7,1.7,4.3,0,6
			L309,185.8C308.1,186.6,307.1,187,306,187z"/>
	</g>
	<g>
		<path class="st1" d="M109.2,328.6c-1.1,0-2.2-0.4-3-1.2c-1.7-1.7-1.7-4.3,0-6l50.3-50.3c1.7-1.7,4.3-1.7,6,0c1.7,1.7,1.7,4.3,0,6
			l-50.3,50.3C111.4,328.2,110.3,328.6,109.2,328.6z"/>
	</g>
	<g>
		<path class="st1" d="M134,334c-1.1,0-2.2-0.4-3-1.2c-1.7-1.7-1.7-4.3,0-6l50.3-50.3c1.7-1.7,4.3-1.7,6,0c1.7,1.7,1.7,4.3,0,6
			L137,332.8C136.1,333.6,135.1,334,134,334z"/>
	</g>
	<g>
		<path class="st1" d="M385.2,288.6c-1.1,0-2.2-0.4-3-1.2c-1.7-1.7-1.7-4.3,0-6l50.3-50.3c1.7-1.7,4.3-1.7,6,0c1.7,1.7,1.7,4.3,0,6
			l-50.3,50.3C387.4,288.2,386.3,288.6,385.2,288.6z"/>
	</g>
	<g>
		<path class="st1" d="M419,285c-1.1,0-2.2-0.4-3-1.2c-1.7-1.7-1.7-4.3,0-6l50.3-50.3c1.7-1.7,4.3-1.7,6,0c1.7,1.7,1.7,4.3,0,6
			L422,283.8C421.1,284.6,420.1,285,419,285z"/>
	</g>
	<g>
		<path class="st1" d="M870.2,359.6c-1.1,0-2.2-0.4-3-1.2c-1.7-1.7-1.7-4.3,0-6l50.3-50.3c1.7-1.7,4.3-1.7,6,0c1.7,1.7,1.7,4.3,0,6
			l-50.3,50.3C872.4,359.2,871.3,359.6,870.2,359.6z"/>
	</g>
	<g>
		<path class="st1" d="M889,367c-1.1,0-2.2-0.4-3-1.2c-1.7-1.7-1.7-4.3,0-6l50.3-50.3c1.7-1.7,4.3-1.7,6,0c1.7,1.7,1.7,4.3,0,6
			L892,365.8C891.1,366.6,890.1,367,889,367z"/>
	</g>
</g>
</svg>
