<?xml version="1.0" encoding="utf-8"?>
<!-- Generator: Adobe Illustrator 22.1.0, SVG Export Plug-In . SVG Version: 6.00 Build 0)  -->
<svg version="1.1" id="bush2" xmlns="http://www.w3.org/2000/svg" xmlns:xlink="http://www.w3.org/1999/xlink" x="0px" y="0px"
	 viewBox="0 0 1221 454" style="enable-background:new 0 0 1221 454;" xml:space="preserve">
<style type="text/css">
	.st0{fill:#606C38;}
	.st1{fill:#83944C;}
</style>
<g>
	<g>
		<path class="st0" d="M1139.7,209.2c4.1-11.6,6.3-24.2,6.3-37.2c0-62.4-50.6-113-113-113c-19.6,0-38.1,5-54.1,13.8
			C959.1,40,923.1,18,882,18c-40.1,0-75.3,20.9-95.3,52.3C766.2,41.1,732.4,22,694,22c-45.2,0-84.2,26.6-102.3,64.9
			C571.4,67.2,543.6,55,513,55c-20.6,0-39.9,5.5-56.6,15.2C438,32.7,399.5,7,355,7c-49.1,0-90.9,31.4-106.5,75.2
			c-9.7-2.7-19.9-4.2-30.5-4.2c-62.4,0-113,50.6-113,113c0,9.6,1.2,18.9,3.4,27.8C61.9,232.7,28,275.9,28,327
			c0,62.4,50.6,113,113,113c33.8,0,64.1-14.8,84.8-38.3c20.6,28.1,53.8,46.3,91.2,46.3c39.9,0,74.9-20.7,95-51.9
			c13.5,5.7,28.4,8.9,44,8.9c38.5,0,72.5-19.3,92.9-48.7C564.1,400.9,606.3,433,656,433c27.4,0,52.4-9.7,72-25.9
			c20.7,25,52,40.9,87,40.9c38.1,0,71.8-18.9,92.3-47.8c10.4,3.1,21.3,4.8,32.7,4.8c25.9,0,49.7-8.7,68.8-23.3
			c20.6,28.1,53.8,46.3,91.2,46.3c62.4,0,113-50.6,113-113C1213,266.6,1182.5,225.3,1139.7,209.2z"/>
	</g>
</g>
<g>
	<g>
		<path class="st1" d="M1123.7,209.2c4.1-11.6,6.3-24.2,6.3-37.2c0-62.4-50.6-113-113-113c-19.6,0-38.1,5-54.1,13.8
			C943.1,40,907.1,18,866,18c-40.1,0-75.3,20.9-95.3,52.3C750.2,41.1,716.4,22,678,22c-45.2,0-84.2,26.6-102.3,64.9
			C555.4,67.2,527.6,55,497,55c-20.6,0-39.9,5.5-56.6,15.2C422,32.7,383.5,7,339,7c-49.1,0-90.9,31.4-106.5,75.2
			c-9.7-2.7-19.9-4.2-30.5-4.2c-62.4,0-113,50.6-113,113c0,9.6,1.2,18.9,3.4,27.8C45.9,232.7,12,275.9,12,327
			c0,62.4,50.6,113,113,113c33.8,0,64.1-14.8,84.8-38.3c20.6,28.1,53.8,46.3,91.2,46.3c39.9,0,74.9-20.7,95-51.9
			c13.5,5.7,28.4,8.9,44,8.9c38.5,0,72.5-19.3,92.9-48.7C548.1,400.9,590.3,433,640,433c27.4,0,52.4-9.7,72-25.9
			c20.7,25,52,40.9,87,40.9c38.1,0,71.8-18.9,92.3-47.8c10.4,3.1,21.3,4.8,32.7,4.8c25.9,0,49.7-8.7,68.8-23.3
			c20.6,28.1,53.8,46.3,91.2,46.3c62.4,0,113-50.6,113-113C1197,266.6,1166.5,225.3,1123.7,209.2z"/>
	</g>
</g>
<g>
	<path class="st0" d="M291,146c-1.1,0-2.2-0.4-3-1.2c-1.7-1.7-1.7-4.3,0-6l50.3-50.3c1.7-1.7,4.3-1.7,6,0c1.7,1.7,1.7,4.3,0,6
		L294,144.8C293.1,145.6,292.1,146,291,146z"/>
</g>
<g>
	<path class="st0" d="M314,155c-1.1,0-2.2-0.4-3-1.2c-1.7-1.7-1.7-4.3,0-6l50.3-50.3c1.7-1.7,4.3-1.7,6,0c1.7,1.7,1.7,4.3,0,6
		L317,153.8C316.1,154.6,315.1,155,314,155z"/>
</g>
<g>
	<path class="st0" d="M647,205c-1.1,0-2.2-0.4-3-1.2c-1.7-1.7-1.7-4.3,0-6l50.3-50.3c1.7-1.7,4.3-1.7,6,0c1.7,1.7,1.7,4.3,0,6
		L650,203.8C649.1,204.6,648.1,205,647,205z"/>
</g>
<g>
	<path class="st0" d="M948,184c-1.1,0-2.2-0.4-3-1.2c-1.7-1.7-1.7-4.3,0-6l50.3-50.3c1.7-1.7,4.3-1.7,6,0c1.7,1.7,1.7,4.3,0,6
		L951,182.8C950.1,183.6,949.1,184,948,184z"/>
</g>
<g>
	<path class="st0" d="M1055,340c-1.1,0-2.2-0.4-3-1.2c-1.7-1.7-1.7-4.3,0-6l50.3-50.3c1.7-1.7,4.3-1.7,6,0c1.7,1.7,1.7,4.3,0,6
		l-50.3,50.3C1057.1,339.6,1056.1,340,1055,340z"/>
</g>
<g>
	<path class="st0" d="M1030,336c-1.1,0-2.2-0.4-3-1.2c-1.7-1.7-1.7-4.3,0-6l50.3-50.3c1.7-1.7,4.3-1.7,6,0c1.7,1.7,1.7,4.3,0,6
		l-50.3,50.3C1032.1,335.6,1031.1,336,1030,336z"/>
</g>
<g>
	<path class="st0" d="M911,184c-1.1,0-2.2-0.4-3-1.2c-1.7-1.7-1.7-4.3,0-6l50.3-50.3c1.7-1.7,4.3-1.7,6,0c1.7,1.7,1.7,4.3,0,6
		L914,182.8C913.1,183.6,912.1,184,911,184z"/>
</g>
<g>
	<path class="st0" d="M752,359c-1.1,0-2.2-0.4-3-1.2c-1.7-1.7-1.7-4.3,0-6l50.3-50.3c1.7-1.7,4.3-1.7,6,0c1.7,1.7,1.7,4.3,0,6
		L755,357.8C754.1,358.6,753.1,359,752,359z"/>
</g>
<g>
	<path class="st0" d="M719,363c-1.1,0-2.2-0.4-3-1.2c-1.7-1.7-1.7-4.3,0-6l50.3-50.3c1.7-1.7,4.3-1.7,6,0c1.7,1.7,1.7,4.3,0,6
		L722,361.8C721.1,362.6,720.1,363,719,363z"/>
</g>
<g>
	<path class="st0" d="M618,205c-1.1,0-2.2-0.4-3-1.2c-1.7-1.7-1.7-4.3,0-6l50.3-50.3c1.7-1.7,4.3-1.7,6,0c1.7,1.7,1.7,4.3,0,6
		L621,203.8C620.1,204.6,619.1,205,618,205z"/>
</g>
<g>
	<path class="st0" d="M134,307c-1.1,0-2.2-0.4-3-1.2c-1.7-1.7-1.7-4.3,0-6l50.3-50.3c1.7-1.7,4.3-1.7,6,0c1.7,1.7,1.7,4.3,0,6
		L137,305.8C136.1,306.6,135.1,307,134,307z"/>
</g>
<g>
	<path class="st0" d="M159,325c-1.1,0-2.2-0.4-3-1.2c-1.7-1.7-1.7-4.3,0-6l50.3-50.3c1.7-1.7,4.3-1.7,6,0c1.7,1.7,1.7,4.3,0,6
		L162,323.8C161.1,324.6,160.1,325,159,325z"/>
</g>
<g>
	<path class="st0" d="M416,302c-1.1,0-2.2-0.4-3-1.2c-1.7-1.7-1.7-4.3,0-6l50.3-50.3c1.7-1.7,4.3-1.7,6,0c1.7,1.7,1.7,4.3,0,6
		L419,300.8C418.1,301.6,417.1,302,416,302z"/>
</g>
<g>
	<path class="st0" d="M439,314c-1.1,0-2.2-0.4-3-1.2c-1.7-1.7-1.7-4.3,0-6l50.3-50.3c1.7-1.7,4.3-1.7,6,0c1.7,1.7,1.7,4.3,0,6
		L442,312.8C441.1,313.6,440.1,314,439,314z"/>
</g>
</svg>
