<?xml version="1.0" encoding="utf-8"?>
<!-- Generator: Adobe Illustrator 22.1.0, SVG Export Plug-In . SVG Version: 6.00 Build 0)  -->
<svg version="1.1" id="bush2" xmlns="http://www.w3.org/2000/svg" xmlns:xlink="http://www.w3.org/1999/xlink" x="0px" y="0px"
	 viewBox="0 0 1206 454" style="enable-background:new 0 0 1206 454;" xml:space="preserve">
<style type="text/css">
	.st0{fill:#83944C;}
	.st1{fill:#606C38;}
</style>
<g>
	<g>
		<g>
			<path class="st0" d="M799,441.5c-31.8,0-61.7-14.1-82-38.5c-1.3-1.5-3.1-2.3-5-2.3c-1.5,0-2.9,0.5-4.1,1.5
				c-19,15.7-43.1,24.4-67.8,24.4c-45.7,0-86.2-29.1-100.9-72.3c-0.8-2.3-2.8-4-5.3-4.4c-0.3,0-0.6-0.1-0.9-0.1
				c-2.1,0-4.1,1-5.3,2.8c-19.9,28.8-52.7,45.9-87.6,45.9c-14.4,0-28.3-2.8-41.4-8.4c-0.8-0.3-1.7-0.5-2.5-0.5c-2.2,0-4.2,1.1-5.5,3
				c-19.7,30.6-53.2,48.9-89.6,48.9c-33.8,0-66-16.3-86-43.6c-1.2-1.6-3-2.6-5-2.7c-0.1,0-0.2,0-0.3,0c-1.9,0-3.6,0.8-4.9,2.2
				c-20.2,22.9-49.4,36.1-79.9,36.1c-58.7,0-106.5-47.8-106.5-106.5c0-23.4,7.4-45.5,21.5-64.1c13.6-18,32.9-31.4,54.4-37.9
				c3.3-1,5.3-4.4,4.4-7.8c-2.2-8.5-3.2-17.3-3.2-26.2c0-58.7,47.8-106.5,106.5-106.5c9.8,0,19.4,1.3,28.7,3.9
				c0.6,0.2,1.2,0.2,1.8,0.2c2.7,0,5.2-1.7,6.1-4.3C253.7,42,294,13.5,339,13.5c20.3,0,40,5.7,57,16.5c16.6,10.5,29.9,25.4,38.6,43
				c0.8,1.6,2.2,2.8,3.9,3.3c0.6,0.2,1.3,0.3,1.9,0.3c1.1,0,2.3-0.3,3.3-0.9c16.1-9.3,34.6-14.3,53.3-14.3
				c27.9,0,54.2,10.7,74.2,30.1c1.2,1.2,2.9,1.8,4.5,1.8c0.4,0,0.8,0,1.2-0.1c2.1-0.4,3.8-1.7,4.7-3.6
				c17.5-37.2,55.3-61.2,96.4-61.2c34.7,0,67.4,17,87.3,45.5c1.2,1.7,3.2,2.8,5.3,2.8c0,0,0.1,0,0.1,0c2.2,0,4.2-1.2,5.3-3
				c19.7-30.9,53.3-49.3,89.9-49.3c18.7,0,37.1,4.9,53.2,14.2c15.6,9,28.8,22,38.1,37.4c1.2,2,3.4,3.1,5.6,3.1
				c1.1,0,2.1-0.3,3.1-0.8c15.5-8.5,33.2-13,51-13c58.7,0,106.5,47.8,106.5,106.5c0,12-2,23.8-5.9,35.1c-1.2,3.3,0.5,7,3.9,8.2
				c20.1,7.5,37.2,20.8,49.7,38.4c12.7,18,19.4,39.2,19.4,61.3c0,58.7-47.8,106.5-106.5,106.5c-33.8,0-66-16.3-86-43.7
				c-1-1.4-2.6-2.3-4.3-2.6c-0.3,0-0.6-0.1-0.9-0.1c-1.4,0-2.8,0.5-4,1.3c-18.7,14.4-41.1,22-64.8,22c-10.5,0-20.8-1.5-30.8-4.5
				c-0.6-0.2-1.3-0.3-1.9-0.3c-2.1,0-4.1,1-5.3,2.7C866,424.7,833.5,441.5,799,441.5z"/>
			<path class="st1" d="M339,20c19,0,37.6,5.4,53.5,15.5c15.6,9.9,28.1,23.9,36.2,40.4c1.6,3.2,4.4,5.7,7.9,6.7
				c1.2,0.4,2.5,0.6,3.8,0.6c2.3,0,4.5-0.6,6.5-1.8c15.1-8.8,32.4-13.4,50-13.4c26.2,0,50.9,10,69.7,28.3c2.4,2.4,5.7,3.7,9.1,3.7
				c0.8,0,1.6-0.1,2.3-0.2c4.1-0.8,7.6-3.5,9.4-7.3c8-16.9,20.5-31.3,36.3-41.5c16.2-10.5,34.9-16,54.3-16c32.6,0,63.3,16,82,42.8
				c2.4,3.5,6.4,5.5,10.7,5.5c0.1,0,0.2,0,0.3,0c4.3-0.1,8.3-2.3,10.7-6c18.5-29,50-46.3,84.4-46.3c17.6,0,34.8,4.6,49.9,13.3
				c14.7,8.5,27.1,20.6,35.8,35.2c2.4,4,6.7,6.3,11.1,6.3c2.1,0,4.2-0.5,6.2-1.6c14.6-8,31.2-12.2,47.9-12.2
				c55.1,0,100,44.9,100,100c0,11.3-1.9,22.3-5.5,32.9c-2.3,6.7,1.1,14,7.7,16.4c18.9,7.1,35,19.6,46.6,36.1
				c11.9,16.9,18.2,36.8,18.2,57.5c0,55.1-44.9,100-100,100c-16.2,0-31.7-3.8-46-11.2c-13.6-7.1-25.7-17.4-34.8-29.8
				c-2.1-2.8-5.2-4.7-8.7-5.2c-0.6-0.1-1.2-0.1-1.8-0.1c-2.8,0-5.6,0.9-7.9,2.7C967.3,384.9,946.2,392,924,392
				c-9.8,0-19.6-1.4-28.9-4.3c-1.2-0.4-2.5-0.6-3.8-0.6c-4.1,0-8.1,2-10.6,5.5C861.9,419.2,831.4,435,799,435
				c-29.9,0-57.9-13.2-77-36.2c-2.6-3.1-6.3-4.7-10-4.7c-2.9,0-5.9,1-8.3,3C685.8,411.9,663.2,420,640,420
				c-42.9,0-81-27.3-94.7-67.9c-1.6-4.7-5.6-8-10.5-8.7c-0.6-0.1-1.2-0.1-1.8-0.1c-4.2,0-8.2,2.1-10.7,5.6
				c-18.7,27-49.5,43.1-82.3,43.1c-13.5,0-26.6-2.6-38.9-7.8c-1.6-0.7-3.4-1-5.1-1c-4.3,0-8.5,2.1-10.9,6
				c-18.5,28.7-50,45.9-84.1,45.9c-16.2,0-31.7-3.8-46-11.2c-13.6-7.1-25.7-17.4-34.8-29.8c-2.3-3.2-6-5.1-9.9-5.3
				c-0.2,0-0.4,0-0.6,0c-3.7,0-7.3,1.6-9.8,4.4c-19,21.5-46.3,33.9-75,33.9c-55.1,0-100-44.9-100-100c0-21.9,7-42.7,20.1-60.2
				c12.8-16.9,30.9-29.5,51-35.6c6.7-2,10.6-8.9,8.9-15.6c-2-8-3-16.3-3-24.6c0-55.1,44.9-100,100-100c9.2,0,18.2,1.2,27,3.7
				c1.2,0.3,2.3,0.5,3.5,0.5c5.4,0,10.4-3.4,12.2-8.7C258.9,46.7,296.8,20,339,20 M339,7c-49.1,0-90.9,31.4-106.5,75.2
				c-9.7-2.7-19.9-4.2-30.5-4.2c-62.4,0-113,50.6-113,113c0,9.6,1.2,18.9,3.4,27.8C45.9,232.7,12,275.9,12,327
				c0,62.4,50.6,113,113,113c33.8,0,64.1-14.8,84.8-38.3c20.6,28.1,53.8,46.3,91.2,46.3c39.9,0,74.9-20.7,95-51.9
				c13.5,5.7,28.4,8.9,44,8.9c38.5,0,72.5-19.3,92.9-48.7C548.1,400.9,590.3,433,640,433c27.4,0,52.4-9.7,72-25.9
				c20.7,25,52,40.9,87,40.9c38.1,0,71.8-18.9,92.3-47.8c10.4,3.1,21.3,4.8,32.7,4.8c25.9,0,49.7-8.7,68.8-23.3
				c20.6,28.1,53.8,46.3,91.2,46.3c62.4,0,113-50.6,113-113c0-48.4-30.5-89.7-73.3-105.8c4.1-11.6,6.3-24.2,6.3-37.2
				c0-62.4-50.6-113-113-113c-19.6,0-38.1,5-54.1,13.8C943.1,40,907.1,18,866,18c-40.1,0-75.3,20.9-95.3,52.3
				C750.2,41.1,716.4,22,678,22c-45.2,0-84.2,26.6-102.3,64.9C555.4,67.2,527.6,55,497,55c-20.6,0-39.9,5.5-56.6,15.2
				C422,32.7,383.5,7,339,7L339,7z"/>
		</g>
	</g>
	<g>
		<path class="st1" d="M291,146c-1.1,0-2.2-0.4-3-1.2c-1.7-1.7-1.7-4.3,0-6l50.3-50.3c1.7-1.7,4.3-1.7,6,0c1.7,1.7,1.7,4.3,0,6
			L294,144.8C293.1,145.6,292.1,146,291,146z"/>
	</g>
	<g>
		<path class="st1" d="M314,155c-1.1,0-2.2-0.4-3-1.2c-1.7-1.7-1.7-4.3,0-6l50.3-50.3c1.7-1.7,4.3-1.7,6,0c1.7,1.7,1.7,4.3,0,6
			L317,153.8C316.1,154.6,315.1,155,314,155z"/>
	</g>
	<g>
		<path class="st1" d="M647,205c-1.1,0-2.2-0.4-3-1.2c-1.7-1.7-1.7-4.3,0-6l50.3-50.3c1.7-1.7,4.3-1.7,6,0c1.7,1.7,1.7,4.3,0,6
			L650,203.8C649.1,204.6,648.1,205,647,205z"/>
	</g>
	<g>
		<path class="st1" d="M948,184c-1.1,0-2.2-0.4-3-1.2c-1.7-1.7-1.7-4.3,0-6l50.3-50.3c1.7-1.7,4.3-1.7,6,0c1.7,1.7,1.7,4.3,0,6
			L951,182.8C950.1,183.6,949.1,184,948,184z"/>
	</g>
	<g>
		<path class="st1" d="M1055,340c-1.1,0-2.2-0.4-3-1.2c-1.7-1.7-1.7-4.3,0-6l50.3-50.3c1.7-1.7,4.3-1.7,6,0c1.7,1.7,1.7,4.3,0,6
			l-50.3,50.3C1057.1,339.6,1056.1,340,1055,340z"/>
	</g>
	<g>
		<path class="st1" d="M1030,336c-1.1,0-2.2-0.4-3-1.2c-1.7-1.7-1.7-4.3,0-6l50.3-50.3c1.7-1.7,4.3-1.7,6,0c1.7,1.7,1.7,4.3,0,6
			l-50.3,50.3C1032.1,335.6,1031.1,336,1030,336z"/>
	</g>
	<g>
		<path class="st1" d="M911,184c-1.1,0-2.2-0.4-3-1.2c-1.7-1.7-1.7-4.3,0-6l50.3-50.3c1.7-1.7,4.3-1.7,6,0c1.7,1.7,1.7,4.3,0,6
			L914,182.8C913.1,183.6,912.1,184,911,184z"/>
	</g>
	<g>
		<path class="st1" d="M752,359c-1.1,0-2.2-0.4-3-1.2c-1.7-1.7-1.7-4.3,0-6l50.3-50.3c1.7-1.7,4.3-1.7,6,0c1.7,1.7,1.7,4.3,0,6
			L755,357.8C754.1,358.6,753.1,359,752,359z"/>
	</g>
	<g>
		<path class="st1" d="M719,363c-1.1,0-2.2-0.4-3-1.2c-1.7-1.7-1.7-4.3,0-6l50.3-50.3c1.7-1.7,4.3-1.7,6,0c1.7,1.7,1.7,4.3,0,6
			L722,361.8C721.1,362.6,720.1,363,719,363z"/>
	</g>
	<g>
		<path class="st1" d="M618,205c-1.1,0-2.2-0.4-3-1.2c-1.7-1.7-1.7-4.3,0-6l50.3-50.3c1.7-1.7,4.3-1.7,6,0c1.7,1.7,1.7,4.3,0,6
			L621,203.8C620.1,204.6,619.1,205,618,205z"/>
	</g>
	<g>
		<path class="st1" d="M134,307c-1.1,0-2.2-0.4-3-1.2c-1.7-1.7-1.7-4.3,0-6l50.3-50.3c1.7-1.7,4.3-1.7,6,0c1.7,1.7,1.7,4.3,0,6
			L137,305.8C136.1,306.6,135.1,307,134,307z"/>
	</g>
	<g>
		<path class="st1" d="M159,325c-1.1,0-2.2-0.4-3-1.2c-1.7-1.7-1.7-4.3,0-6l50.3-50.3c1.7-1.7,4.3-1.7,6,0c1.7,1.7,1.7,4.3,0,6
			L162,323.8C161.1,324.6,160.1,325,159,325z"/>
	</g>
	<g>
		<path class="st1" d="M416,302c-1.1,0-2.2-0.4-3-1.2c-1.7-1.7-1.7-4.3,0-6l50.3-50.3c1.7-1.7,4.3-1.7,6,0c1.7,1.7,1.7,4.3,0,6
			L419,300.8C418.1,301.6,417.1,302,416,302z"/>
	</g>
	<g>
		<path class="st1" d="M439,314c-1.1,0-2.2-0.4-3-1.2c-1.7-1.7-1.7-4.3,0-6l50.3-50.3c1.7-1.7,4.3-1.7,6,0c1.7,1.7,1.7,4.3,0,6
			L442,312.8C441.1,313.6,440.1,314,439,314z"/>
	</g>
</g>
</svg>
