<?xml version="1.0" encoding="utf-8"?>
<!-- Generator: Adobe Illustrator 22.1.0, SVG Export Plug-In . SVG Version: 6.00 Build 0)  -->
<svg version="1.1" id="Layer_1" xmlns="http://www.w3.org/2000/svg" xmlns:xlink="http://www.w3.org/1999/xlink" x="0px" y="0px"
	 viewBox="0 0 476.6 243" style="enable-background:new 0 0 476.6 243;" xml:space="preserve">
<style type="text/css">
	.st0{fill:#476C72;}
	.st1{fill:#FFFFFF;}
</style>
<g>
	<path class="st0" d="M433.8,140.9c-3.7-31.9-30.7-56.6-63.6-56.6c-6.9,0-13.6,1.1-19.8,3.1C342,45,304.6,13,259.7,13
		c-39.5,0-73.3,24.8-86.5,59.8C161.1,64.1,146.3,59,130.3,59c-40.8,0-74,33.1-74,74c0,2.4,0.1,4.8,0.4,7.2h-1.3
		C27,140.2,4,163.2,4,191.6l0,0C4,220,27,243,55.4,243h369.8c28.4,0,51.4-23,51.4-51.4l0,0C476.6,166.1,458.1,145,433.8,140.9z"/>
	<path class="st1" d="M429.8,127.9c-3.7-31.9-30.7-56.6-63.6-56.6c-6.9,0-13.6,1.1-19.8,3.1C338,32,300.6,0,255.7,0
		c-39.5,0-73.3,24.8-86.5,59.8C157.1,51.1,142.3,46,126.3,46c-40.8,0-74,33.1-74,74c0,2.4,0.1,4.8,0.4,7.2h-1.3
		C23,127.2,0,150.2,0,178.6l0,0C0,207,23,230,51.4,230h369.8c28.4,0,51.4-23,51.4-51.4l0,0C472.6,153.1,454.1,132,429.8,127.9z"/>
</g>
</svg>
