<?xml version="1.0" encoding="utf-8"?>
<!-- Generator: Adobe Illustrator 22.1.0, SVG Export Plug-In . SVG Version: 6.00 Build 0)  -->
<svg version="1.1" id="Layer_1" xmlns="http://www.w3.org/2000/svg" xmlns:xlink="http://www.w3.org/1999/xlink" x="0px" y="0px"
	 viewBox="0 0 376 212" style="enable-background:new 0 0 376 212;" xml:space="preserve">
<style type="text/css">
	.st0{fill:#476C72;}
	.st1{fill:#FFFFFF;}
</style>
<g>
	<path class="st0" d="M331,122h-4.1c-1.6-36.2-31.4-65-67.9-65c-14.3,0-27.5,4.4-38.5,12c-14.7-35.2-49.5-60-90-60
		C76.7,9,33,52.7,33,106.5c0,6.5,0.6,12.8,1.8,18.9C18.5,132.1,7,148.2,7,167l0,0c0,24.9,20.1,45,45,45h279c24.9,0,45-20.1,45-45
		l0,0C376,142.1,355.9,122,331,122z"/>
	<path class="st1" d="M324,113h-4.1c-1.6-36.2-31.4-65-67.9-65c-14.3,0-27.5,4.4-38.5,12c-14.7-35.2-49.5-60-90-60
		C69.7,0,26,43.7,26,97.5c0,6.5,0.6,12.8,1.8,18.9C11.5,123.1,0,139.2,0,158l0,0c0,24.9,20.1,45,45,45h279c24.9,0,45-20.1,45-45l0,0
		C369,133.1,348.9,113,324,113z"/>
</g>
</svg>
