<?xml version="1.0" encoding="utf-8"?>
<!-- Generator: Adobe Illustrator 22.1.0, SVG Export Plug-In . SVG Version: 6.00 Build 0)  -->
<svg version="1.1" id="Layer_1" xmlns="http://www.w3.org/2000/svg" xmlns:xlink="http://www.w3.org/1999/xlink" x="0px" y="0px"
	 viewBox="0 0 451 224" style="enable-background:new 0 0 451 224;" xml:space="preserve">
<style type="text/css">
	.st0{fill:#476C72;}
	.st1{fill:#FFFFFF;}
</style>
<g>
	<path class="st0" d="M413.9,142.2c2-6.4,3.1-13.2,3.1-20.2c0-37-30-67-67-67c-14.9,0-28.7,4.9-39.8,13.1
		C298.5,34.3,266.3,10,228.5,10C180.7,10,142,48.7,142,96.5c0,0.1,0,0.3,0,0.4c-8.6-4.4-18.2-6.9-28.5-6.9
		c-30.9,0-56.6,22.5-61.6,52H46c-22.6,0-41,18.4-41,41v0c0,22.6,18.4,41,41,41h364c22.6,0,41-18.4,41-41v0
		C451,161.7,434.7,144.2,413.9,142.2z"/>
	<path class="st1" d="M408.9,132.2c2-6.4,3.1-13.2,3.1-20.2c0-37-30-67-67-67c-14.9,0-28.7,4.9-39.8,13.1
		C293.5,24.3,261.3,0,223.5,0C175.7,0,137,38.7,137,86.5c0,0.1,0,0.3,0,0.4c-8.6-4.4-18.2-6.9-28.5-6.9c-30.9,0-56.6,22.5-61.6,52
		H41c-22.6,0-41,18.4-41,41v0c0,22.6,18.4,41,41,41h364c22.6,0,41-18.4,41-41v0C446,151.7,429.7,134.2,408.9,132.2z"/>
</g>
</svg>
