<?xml version="1.0" encoding="utf-8"?>
<!-- Generator: Adobe Illustrator 22.1.0, SVG Export Plug-In . SVG Version: 6.00 Build 0)  -->
<svg version="1.1" id="rabbithole" xmlns="http://www.w3.org/2000/svg" xmlns:xlink="http://www.w3.org/1999/xlink" x="0px" y="0px"
	 viewBox="0 0 2548 335" style="enable-background:new 0 0 2548 335;" xml:space="preserve">
<style type="text/css">
	.st0{fill:#4E5629;}
	.st1{fill:#606C38;}
	.st2{fill:#DDA15E;}
	.st3{fill:#4C2D18;}
	.st4{fill:#FEDB50;}
	.st5{fill:#FEFAE0;}
	.st6{fill:#92140C;}
	.st7{fill:#F6E4C0;}
</style>
<g id="grass_1_">
	<g id="grass">
		<path class="st0" d="M2542,311.7c-1250,18-1280-14-2530,4C63.2,8.6,2122-161.3,2542,311.7z"/>
	</g>
	<g>
		<path class="st1" d="M773.2,164.1c-1.4,0-2.8-0.5-3.9-1.6c-2.1-2.1-2.1-5.6,0-7.8l46.3-46.3c2.1-2.1,5.6-2.1,7.8,0
			c2.1,2.1,2.1,5.6,0,7.8l-46.3,46.3C776,163.6,774.6,164.1,773.2,164.1z"/>
	</g>
	<g>
		<path class="st1" d="M951.3,278.9c-1.4,0-2.8-0.5-3.9-1.6c-2.1-2.1-2.1-5.6,0-7.8l46.3-46.3c2.1-2.1,5.6-2.1,7.8,0
			c2.1,2.1,2.1,5.6,0,7.8l-46.3,46.3C954.1,278.4,952.7,278.9,951.3,278.9z"/>
	</g>
	<g>
		<path class="st1" d="M988.3,278.9c-1.4,0-2.8-0.5-3.9-1.6c-2.1-2.1-2.1-5.6,0-7.8l46.3-46.3c2.1-2.1,5.6-2.1,7.8,0
			c2.1,2.1,2.1,5.6,0,7.8l-46.3,46.3C991.1,278.4,989.7,278.9,988.3,278.9z"/>
	</g>
	<g>
		<path class="st1" d="M806.2,164.1c-1.4,0-2.8-0.5-3.9-1.6c-2.1-2.1-2.1-5.6,0-7.8l46.3-46.3c2.1-2.1,5.6-2.1,7.8,0
			c2.1,2.1,2.1,5.6,0,7.8l-46.3,46.3C809,163.6,807.6,164.1,806.2,164.1z"/>
	</g>
	<g>
		<path class="st1" d="M393.3,265.2c-1.4,0-2.8-0.5-3.9-1.6c-2.1-2.1-2.1-5.6,0-7.8l46.3-46.3c2.1-2.1,5.6-2.1,7.8,0
			c2.1,2.1,2.1,5.6,0,7.8l-46.3,46.3C396.1,264.6,394.7,265.2,393.3,265.2z"/>
	</g>
	<g>
		<path class="st1" d="M421.9,269.1c-1.4,0-2.8-0.5-3.9-1.6c-2.1-2.1-2.1-5.6,0-7.8l46.3-46.3c2.1-2.1,5.6-2.1,7.8,0
			c2.1,2.1,2.1,5.6,0,7.8l-46.3,46.3C424.8,268.6,423.3,269.1,421.9,269.1z"/>
	</g>
	<g>
		<path class="st1" d="M1655,208.8c-1.4,0-2.8-0.5-3.9-1.6c-2.1-2.1-2.1-5.6,0-7.8l46.3-46.3c2.1-2.1,5.6-2.1,7.8,0
			c2.1,2.1,2.1,5.6,0,7.8l-46.3,46.3C1657.9,208.3,1656.4,208.8,1655,208.8z"/>
	</g>
	<g>
		<path class="st1" d="M1683.7,223.5c-1.4,0-2.8-0.5-3.9-1.6c-2.1-2.1-2.1-5.6,0-7.8l46.3-46.3c2.1-2.1,5.6-2.1,7.8,0
			c2.1,2.1,2.1,5.6,0,7.8l-46.3,46.3C1686.5,222.9,1685.1,223.5,1683.7,223.5z"/>
	</g>
	<g>
		<path class="st1" d="M2061.5,184.7c-1.4,0-2.8-0.5-3.9-1.6c-2.1-2.1-2.1-5.6,0-7.8l46.3-46.3c2.1-2.1,5.6-2.1,7.8,0
			c2.1,2.1,2.1,5.6,0,7.8l-46.3,46.3C2064.3,184.1,2062.9,184.7,2061.5,184.7z"/>
	</g>
	<g>
		<path class="st1" d="M2090.1,184.7c-1.4,0-2.8-0.5-3.9-1.6c-2.1-2.1-2.1-5.6,0-7.8l46.3-46.3c2.1-2.1,5.6-2.1,7.8,0
			c2.1,2.1,2.1,5.6,0,7.8l-46.3,46.3C2092.9,184.1,2091.5,184.7,2090.1,184.7z"/>
	</g>
	<g>
		<path class="st1" d="M2215.9,289.7c-1.4,0-2.8-0.5-3.9-1.6c-2.1-2.1-2.1-5.6,0-7.8l46.3-46.3c2.1-2.1,5.6-2.1,7.8,0
			c2.1,2.1,2.1,5.6,0,7.8l-46.3,46.3C2218.7,289.2,2217.3,289.7,2215.9,289.7z"/>
	</g>
	<g>
		<path class="st1" d="M2248.9,292c-1.4,0-2.8-0.5-3.9-1.6c-2.1-2.1-2.1-5.6,0-7.8l46.3-46.3c2.1-2.1,5.6-2.1,7.8,0
			c2.1,2.1,2.1,5.6,0,7.8l-46.3,46.3C2251.7,291.5,2250.3,292,2248.9,292z"/>
	</g>
</g>
<g id="hole">
	<path class="st2" d="M1399.2,179.3v32.5c0,31.8-18.3,59.3-44.9,72.6c-10.9,5.4-23.2,8.5-36.2,8.5h-88.2c-10.8,0-21.1-2.1-30.5-5.9
		c-1.6-0.6-3.1-1.3-4.6-2c-2.5-1.2-4.9-2.5-7.2-4c-23.2-14.3-38.7-39.9-38.7-69.2v-32.5c0-69.2,56.1-125.2,125.2-125.2
		c2.7,0,5.4,0.1,8,0.3c0,0,0,0,0,0c3.3,0.2,6.6,0.5,9.9,1c21.7,3.1,41.6,11.8,58.2,24.6c1.6,1.2,3.2,2.5,4.7,3.8
		c2.6,2.2,5.2,4.6,7.6,7c4.6,4.7,8.9,9.7,12.8,15c3.1,4.2,5.9,8.6,8.4,13.2C1393.6,136.8,1399.2,157.4,1399.2,179.3z"/>
	<path class="st3" d="M1399.2,179.3v32.5c0,29.5-15.7,55.3-39.3,69.5c-1.8,1.1-3.8,2.2-5.7,3.1c-1.2,0.6-2.5,1.2-3.8,1.8
		c-9.9,4.3-20.9,6.7-32.4,6.7h-88.2c-10.8,0-21.1-2.1-30.5-5.9c-15.2-14.7-24.6-35.3-24.6-58.2v-32.5c0-69.2,56.1-125.2,125.2-125.2
		c2.7,0,5.4,0.1,8,0.3c0,0,0,0,0,0c3.3,0.2,6.6,0.5,9.9,1c13.1,1.9,25.5,5.8,36.9,11.4c2.6,2.2,5.2,4.6,7.6,7
		c4.6,4.7,8.9,9.7,12.8,15c3.1,4.2,5.9,8.6,8.4,13.2C1393.6,136.8,1399.2,157.4,1399.2,179.3z"/>
</g>
<g id="rabbit">
	<circle class="st4" cx="1369" cy="225" r="14"/>
	<g>
		<circle class="st5" cx="1369" cy="225" r="11.5"/>
	</g>
	<path class="st5" d="M1357,276.8c-0.8,2.7-1.7,5.3-2.8,7.6c-10.9,5.4-23.2,8.5-36.2,8.5h-56.6c-3.8-4.1-6.7-9-8.5-14.9
		c-3.3-10.7-0.5-22,5.3-32.8c11.6-21.7,34.9-41.1,43.8-48c0,0,0,0,0,0c0.7-0.5,1.2-1,1.7-1.3c1.2-0.9,1.8-1.3,1.8-1.3
		s36.2-28,47.8,9.3c0.3,1,0.7,2.1,1,3.2c0.1,0.3,0.2,0.7,0.3,1c0.2,0.5,0.3,1.1,0.4,1.6c0.7,2.6,1.4,5.3,1.9,7.9
		c0.3,1.4,0.6,2.8,0.8,4.2c0.6,3.2,1.1,6.4,1.5,9.5c0.2,1.4,0.3,2.9,0.5,4.3C1361.3,250.5,1360.4,265,1357,276.8z"/>
	<path class="st6" d="M1360,281.3c-1.8,1.1-3.8,2.2-5.7,3.1c-1.2,0.6-2.5,1.2-3.8,1.8c-27-4.4-47.3-20-47.3-20
		c-28,5-55.3-8.9-55.3-8.9c19.6-36.6,48.5-69.2,56.1-61.3l17.4,15l33.6-3C1367.9,225.7,1362.5,266.1,1360,281.3z"/>
	<ellipse class="st7" cx="1333.9" cy="182.5" rx="35.2" ry="34.2"/>
	<ellipse class="st5" cx="1332.7" cy="180.2" rx="35.2" ry="34.2"/>
	<path class="st5" d="M1318.5,81c0,0,24.7,32.9,15,64.7C1323.8,177.6,1302,129.7,1318.5,81z"/>
	<path class="st5" d="M1383.7,118.9c-2,13.2-7.2,29.6-20.1,41c-0.5,0.5-1.1,0.9-1.6,1.3c-0.1,0.1-0.2,0.2-0.4,0.3
		c-10.2,8-14.4,2.1-12.3-9.8c0.1-0.5,0.2-1,0.3-1.6c2.6-12,11-29.3,25.6-44.5C1378.4,109.9,1381.2,114.3,1383.7,118.9z"/>
	<circle class="st7" cx="1301.6" cy="278" r="14.6"/>
	<circle class="st5" cx="1300.4" cy="275.6" r="14.6"/>
	<path class="st5" d="M1302,193L1302,193z"/>
	<path class="st4" d="M1367.9,225.4L1367.9,225.4c-0.3-0.3-0.3-0.9,0-1.2l7-6.5c0.3-0.3,0.9-0.3,1.2,0l0,0c0.3,0.3,0.3,0.9,0,1.2
		l-7,6.5C1368.8,225.8,1368.2,225.7,1367.9,225.4z"/>
	<path class="st4" d="M1368.1,224.1L1368.1,224.1c0.4-0.2,0.9-0.1,1.1,0.3l2.5,4.4c0.2,0.4,0.1,0.9-0.3,1.1l0,0
		c-0.4,0.2-0.9,0.1-1.1-0.3l-2.5-4.4C1367.6,224.8,1367.7,224.3,1368.1,224.1z"/>
</g>
</svg>
