<?xml version="1.0" encoding="utf-8"?>
<!-- Generator: Adobe Illustrator 22.1.0, SVG Export Plug-In . SVG Version: 6.00 Build 0)  -->
<svg version="1.1" id="rabbithole" xmlns="http://www.w3.org/2000/svg" xmlns:xlink="http://www.w3.org/1999/xlink" x="0px" y="0px"
	 viewBox="0 0 2548 335" style="enable-background:new 0 0 2548 335;" xml:space="preserve">
<style type="text/css">
	.st0{fill:#606C38;}
	.st1{fill:#283618;}
	.st2{fill:#DDA15E;}
	.st3{fill:#BC6C25;}
</style>
<g>
	<g>
		<path class="st0" d="M22.1,304.4c10.1-36,49-70.9,115.7-103.9c68.9-34.1,164.4-64.6,283.9-90.7c234.9-51.3,545.7-80.7,852.7-80.7
			c270.9,0,525.6,22.4,736.6,64.7c115,23.1,216.8,52,302.6,86.1c84.2,33.4,153.7,72,206.8,114.9c-309.8,4.4-568.7,6.5-813.2,6.5
			c-159.6,0-297.7-0.9-431.3-1.7c-133.6-0.8-271.7-1.7-431.3-1.7C597.8,297.8,336.2,299.9,22.1,304.4z"/>
		<path class="st1" d="M1274.6,35.6c270.5,0,524.7,22.3,735.2,64.6c114.6,23,216,51.8,301.5,85.7c76.1,30.2,140,64.7,190.5,102.6
			c-301.7,4.2-555,6.2-794.6,6.2c-159.6,0-297.7-0.9-431.2-1.7c-133.6-0.8-271.7-1.7-431.3-1.7c-244.5,0-503.4,2.1-813.4,6.5
			c5.4-12.7,14.8-25.5,28.2-38.2c19.2-18.2,46.5-36.1,81.1-53.2c68.4-33.8,163.4-64.2,282.5-90.2C539.5,90.7,672.7,70.8,819,56.8
			c148-14.1,301.2-21.3,455.5-21.3H1274.6 M1274.4,22.6C649.3,22.6,42.1,142.1,14,311c358.5-5.2,616.1-6.7,830.7-6.7
			c319.2,0,543.3,3.4,862.5,3.4c214.6,0,472.3-1.5,830.7-6.7C2309.4,102.5,1785.9,22.5,1274.4,22.6L1274.4,22.6z"/>
	</g>
	<path class="st2" d="M1290.9,174.3v32.5c0,44.8-36.3,81.1-81.1,81.1h-88.2c-15.5,0-30.1-4.4-42.4-11.9
		c-23.2-14.3-38.7-39.9-38.7-69.2v-32.5c0-69.2,56.1-125.2,125.2-125.2c2.7,0,5.4,0.1,8,0.3c0,0,0,0,0,0c3.3,0.2,6.6,0.5,9.9,1
		c27.4,3.9,51.9,16.7,70.6,35.4C1276.9,108.4,1290.9,139.7,1290.9,174.3z"/>
	<path class="st3" d="M1290.9,174.3v32.5c0,44.8-36.3,81.1-81.1,81.1h-88.2c-15.5,0-30.1-4.4-42.4-11.9
		c-9.5-11.5-15.2-32.2-14.6-68.3v-32.5c0-66.5,51.8-120.8,117.2-125c0,0,0,0,0,0c0.6,0,1.2,0.1,1.9,0.1
		c27.4,3.9,51.9,16.7,70.6,35.4C1276.9,108.4,1290.9,139.7,1290.9,174.3z"/>
</g>
</svg>
