<?xml version="1.0" encoding="utf-8"?>
<!-- Generator: Adobe Illustrator 22.1.0, SVG Export Plug-In . SVG Version: 6.00 Build 0)  -->
<svg version="1.1" id="sky" xmlns="http://www.w3.org/2000/svg" xmlns:xlink="http://www.w3.org/1999/xlink" x="0px" y="0px"
	 viewBox="0 0 2287 711" style="enable-background:new 0 0 2287 711;" xml:space="preserve">
<style type="text/css">
	.st0{fill:#86C3D1;}
</style>
<path class="st0" d="M2071.5,215c-32.5,0-63.4,7.4-90.8,20.7c-37.9-53.6-100.5-88.7-171.2-88.7c-29.8,0-58.1,6.2-83.7,17.4
	c-38.4-44.9-95.5-73.4-159.3-73.4c-48.1,0-92.5,16.2-127.8,43.5C1405.4,62.8,1332.8,13,1248.5,13c-68.1,0-128.6,32.5-166.9,82.9
	C1052.1,80,1018.3,71,982.5,71c-62,0-117.7,26.9-156,69.7c-22.4-8.2-46.7-12.7-72-12.7c-57,0-108.7,22.8-146.4,59.7
	c-31.4-18.9-68.2-29.7-107.6-29.7c-91.2,0-168.8,58.3-197.6,139.7c-25.8-11.4-54.4-17.7-84.4-17.7C102.8,280,9,373.8,9,489.5
	S102.8,699,218.5,699c91.2,0,168.8-58.3,197.6-139.7c25.8,11.4,54.4,17.7,84.4,17.7c57,0,108.7-22.8,146.4-59.7
	c31.4,18.9,68.2,29.7,107.6,29.7c62,0,117.7-26.9,156-69.7c22.4,8.2,46.7,12.7,72,12.7c34.5,0,67-8.3,95.7-23.1
	c38.4,43.6,94.6,71.1,157.3,71.1c74,0,139-38.4,176.3-96.3c38.3,41.9,93.4,68.3,154.7,68.3c29.8,0,58.1-6.2,83.7-17.4
	c38.4,44.9,95.5,73.4,159.3,73.4c32.5,0,63.4-7.4,90.8-20.7c37.9,53.6,100.5,88.7,171.2,88.7c115.7,0,209.5-93.8,209.5-209.5
	S2187.2,215,2071.5,215z"/>
</svg>
