<?xml version="1.0" encoding="utf-8"?>
<!-- Generator: Adobe Illustrator 22.1.0, SVG Export Plug-In . SVG Version: 6.00 Build 0)  -->
<svg version="1.1" id="Layer_1" xmlns="http://www.w3.org/2000/svg" xmlns:xlink="http://www.w3.org/1999/xlink" x="0px" y="0px"
	 viewBox="0 0 198 189" style="enable-background:new 0 0 198 189;" xml:space="preserve">
<style type="text/css">
	.st0{fill:#E2C35E;}
</style>
<g>
	<path class="st0" d="M94.1,163.9l-45.4,23.9c-7.4,3.9-16.1-2.4-14.7-10.7l8.7-50.5c0.6-3.3-0.5-6.6-2.9-9L3.1,81.8
		c-6-5.9-2.7-16,5.6-17.3l50.7-7.4c3.3-0.5,6.1-2.5,7.6-5.5l22.7-46c3.7-7.5,14.4-7.5,18.1,0l22.7,46c1.5,3,4.3,5.1,7.6,5.5
		l50.7,7.4c8.3,1.2,11.6,11.4,5.6,17.3l-36.7,35.8c-2.4,2.3-3.5,5.7-2.9,9l8.7,50.5c1.4,8.3-7.3,14.6-14.7,10.7l-45.4-23.9
		C100.6,162.3,97,162.3,94.1,163.9z"/>
</g>
</svg>
