<?xml version="1.0" encoding="utf-8"?>
<!-- Generator: Adobe Illustrator 22.1.0, SVG Export Plug-In . SVG Version: 6.00 Build 0)  -->
<svg version="1.1" id="title" xmlns="http://www.w3.org/2000/svg" xmlns:xlink="http://www.w3.org/1999/xlink" x="0px" y="0px"
	 viewBox="0 0 1243 505" style="enable-background:new 0 0 1243 505;" xml:space="preserve">
<style type="text/css">
	.st0{fill:#FF785A;}
	.st1{fill:#FFC9B5;stroke:#FF785A;stroke-width:8;stroke-miterlimit:10;}
</style>
<g>
	<g>
		<path class="st0" d="M371.5,209.4v0.2c-1.2,7.8-5,12.7-11.6,14.7c-3.3,1-6.7,1.5-10.2,1.5c-6.4,0-11.6-1.9-15.7-5.6
			c-2.9-4.7-4.6-7.8-5.1-9.3c-1.7-4.2-2.5-9.7-2.5-16.4c-5.2-0.3-11.2,0-17.8,1c0.3,1.5,0.5,3.7,0.8,6.6c0,6.7-1.5,13.6-4.5,20.8
			c-3.8,6.7-9.3,10-16.7,10c-3.5,0-7.9-0.8-13.1-2.5l-0.4-0.5c-11.1-6.9-16.7-23.9-16.7-51.2c0-1.8,0.1-6,0.4-12.7
			c1-25.7,2.9-45.7,5.7-60.3c3.9-20.6,10.8-39.1,20.8-55.4c7.7-12.6,18.9-18.9,33.5-18.9c15.7,0,27.5,6.1,35.5,18.4
			c4.7,7.2,8,15.6,10,25.2c7.2,34.5,10.8,64.8,10.8,90.9C374.6,181.4,373.6,195.9,371.5,209.4z M321.9,145.2c0.9-13.2,0.3-33.9-2-62
			c-0.9-1.1-2.3-0.7-4.1,1.2c-1.7,13.9-2.9,25.2-3.7,33.8c-1.3,15.2-1.8,23.9-1.4,26c0.7,1.8,1.8,2.7,3.3,2.7c0.5,0,1.9-0.3,4-0.9
			C320.2,145.5,321.5,145.2,321.9,145.2z"/>
		<path class="st0" d="M468.5,192.5h-0.2c-1.4,14.1-5.6,23.4-12.4,27.9c-9.4,4.7-19,7.1-28.6,7.1c-27.7,0-41.6-18.7-41.6-56.1V157
			c0-1.8,0.1-4.6,0.2-8.3c0.1-2.9,0.2-5.1,0.2-6.4c-0.7-33,0.5-59.4,3.3-79.2c2.4-8.3,5.1-14.1,8.1-17.2c3.1-3.1,7.8-5,14.2-5.6
			c1.4-0.2,3-0.2,4.7-0.2c5.6,0,9.7,1.5,12.2,4.4c1,1.3,3,5.1,5.9,11.5c2.2,10.8,3.3,24.5,3.3,41.2c0,10.3-0.8,26.4-2.4,48.3
			c-1,15.2-1.2,23.3-0.4,24.3c5-3.1,11.1-4.7,18.4-4.7c1.8,0,3.1,0.2,3.9,0.7c3.8,1.6,6.6,5.3,8.4,11c1.2,3.8,2,9.2,2.5,16.2V192.5z
			"/>
		<path class="st0" d="M567.4,111.9c0.5,2.5,0.7,5,0.6,7.6c0,8.7-2.8,15.9-8.4,21.8c-5.1,5.6-10.6,7.9-16.5,7.1
			c-1-0.5-3-0.6-5.9-0.2c0.3,2-0.2,7.2-1.4,15.7c0,3.9,1.4,6.9,4.1,8.8c5.4-1.8,9.7-1.8,13.1,0c5.4,2.6,8.3,7,8.8,13.2
			c0.7,7-1,14.2-4.9,21.4c-3.9,7.3-9.3,13.4-16.3,18.3c-6.1,4.4-13.4,6.6-21.8,6.6c-7.3,0-13.9-1.7-19.8-5.1
			c-2.5-1.5-6.2-6-11.2-13.7c-5.4-11.1-8.1-34.6-8.2-70.3c-0.1-20.6,1.2-44.1,4.1-70.6c1.7-15.4,5.2-25.3,10.6-29.9l32.7-4.2
			c5.6-1.5,11-2.2,16.1-2.2c10.2,0,16.2,3.2,18,9.6c0.8,2.6,1.2,5.6,1.2,8.8c0,7-2.1,12.7-6.3,17.2c-4.2,4.4-10,6.6-17.5,6.6
			c-1.8,0-3.3,0-4.3,0c-0.9,2.4-1.4,6.3-1.6,11.7c-0.3,6.8-0.5,10.7-0.6,11.7c0.4,2.3,1.8,3.7,4.1,4.4c3.8-3.8,8.6-5.6,14.3-5.6
			C557.4,100.4,562.9,104.2,567.4,111.9z"/>
		<path class="st0" d="M679.1,112.1c-8.8,15-13.4,23.1-13.9,24.3c-0.5,7.5,2.1,15.4,7.8,23.5c7.1,10,11,18.1,12,24.5
			c0.8,5.2,1.2,10.7,1.2,16.4c0.1,13.6-3.3,22.6-10.2,27.2c-3.5,2.3-7.6,3.4-12.4,3.4c-6.5,0-12.6-2-18.2-6.1
			c-6.7-7.5-10.1-18.5-10.2-33.1c-0.8-1.8-1.8-1.7-2.9,0.2c-2.5,4.3-4.9,11.2-7.3,20.8c-1.6,6.5-4.6,11.1-9.2,13.7
			c-5,2.1-9.5,3.2-13.7,3.2c-5.9,0-10.6-2.1-14.1-6.4c-5.6-6.9-8.4-15.4-8.2-25.7c0.1-10.5,3.3-21.3,9.4-32.6
			c7.5-12.9,13.1-22.6,16.9-29.2c0.1-3.8-2.2-9.6-6.9-17.6c-5.1-8.5-7.9-14.2-8.4-17.2c-2.4-12.9-3.5-23.3-3.5-31.1
			c0-11.3,2.5-20.1,7.5-26.5c3.1-4.1,7.7-6.1,13.7-6.1c4.6,0,9,1.1,13.3,3.4c4,3.9,7.6,10.3,10.7,19.2c3.1,8.9,4.6,17,4.6,24.1
			c0,1.1-0.1,2.9-0.4,5.1c1.3,0.8,2.3,1.1,2.9,0.7c1.3-11.9,2.3-20.9,2.9-27c2.5-20.6,9.8-30.9,22-30.9c3.8,0,8,2.2,12.7,6.6
			c9.1,8.7,13.9,19.4,14.1,32.1c0.1,4.1-0.3,9-1.4,14.7l0.2,0.2C688.8,93.1,685.1,101.7,679.1,112.1z"/>
		<path class="st0" d="M814.6,69.5c0,6.7,0.1,14.9,0.4,24.5c0.3,9.6,0.4,15.9,0.4,18.6c0.1,32.4-1.6,61.3-5.3,86.8
			c-2.4,16.5-8.4,26.4-18,29.7c-2.9,0.3-4.8,0.5-5.9,0.5c-13.2,0-20.7-7.6-22.4-22.8c-3-26.1-4.4-49.8-4.3-70.8
			c0.1-22.2,1.5-41.9,4.1-59.1l5.3-16.4c6.8-12.3,16.5-18.4,29-18.4c2.9,0,5.4,0.3,7.6,1c3.7,2.1,6.1,6,7.3,11.5L814.6,69.5z"/>
		<path class="st0" d="M944.4,86.4v-0.2c1.3,19,2,36.8,2,53.7c0,51.8-6.9,80.9-20.6,87.3c-2.1,1-4.5,1.5-7.3,1.5
			c-3.3,0-7.5-0.8-12.7-2.5c-6.5-4.6-16.5-30.8-30-78.7c2.4,12.6,3.5,25.1,3.5,37.4c0,13.6-1.6,24.4-4.7,32.4c-1.4,3.8-4,7-7.7,9.7
			s-7.3,3.8-10.7,3.3c-10.9-1.3-18.2-9.6-22.2-24.8c-2.6-10.1-3.9-25.9-3.9-47.1c0-41.4,1.4-69.2,4.1-83.4
			c2.1-10.6,6.9-19.4,14.3-26.3c4.3-3.9,9.1-5.9,14.5-5.9c2.9,0,5.8,0.6,8.6,1.7c7.6,5.1,15,20.2,22.4,45.3c3,10.1,5.8,22.1,8.4,36
			c-1.3-10.8-2.4-20.3-3.3-28.4c-1.6-14.4-2.4-24.9-2.4-31.6c0-8,1.7-14.6,5.1-19.9c3.9-6,9.5-9.1,16.7-9.1
			c12.7,0,20.6,8.8,23.7,26.5C942.9,67.1,943.6,74.8,944.4,86.4z"/>
		<path class="st0" d="M36.7,306.2c4.2-4.1,8.6-6.1,13.3-6.1c9.9,0,16.4,6.9,19.4,20.8c0.5,2.6,1.4,10.3,2.7,23l0.6,42.6
			c0.9,1.5,1.9,2.2,2.9,2.2c1-1.6,1.7-4.5,2-8.6l0.4-7.4c1.6-5.9,4.1-14.6,7.5-26.2c3.3-10.1,8.8-16.1,16.7-17.9
			c5.6-0.2,9.8,2.9,12.5,9.3c2,4.6,3.6,12.4,4.9,23.5c1,8.8,1.4,14.3,1.2,16.4c-0.9,3.6-0.8,7.5,0.4,11.8c1.8,0.5,2.8-0.2,2.9-2
			c1.7-35.8,6.4-61.8,14.1-77.9c2.4-5.1,5-8.4,7.8-10c1.8-1.5,4.6-2.5,8.2-2.9c6.4-0.8,12.4,2.2,18,9.1c4.3,5.2,6.5,12.6,6.5,22.1
			c0,3.6-1,12-3.1,25.3c-2.2,15.7-5.7,39.2-10.4,70.4c-4.3,27.7-11.2,48.1-20.6,61.4c-3.4,3.4-7.9,5.2-13.5,5.2
			c-6.5,0-12.5-2-18-5.9c-4.4-4.6-7.4-10.7-8.8-18.4c-1.2-6.1-1.8-13.6-2-22.6c-0.3-10.8-0.7-18.2-1.4-22.1c-1.3-1.5-2.4-2.1-3.3-2
			c-0.4,2.5-1.2,12.3-2.5,29.4c-1,12.9-2.5,22.5-4.5,28.7c-3.1,9.5-9.2,14.6-18.2,15.4c-14.5,1.3-25.6-6.5-33.3-23.5
			c-4.7-8.2-8.4-20.5-11.1-37.1c-2.7-16.6-4-34.8-3.8-54.5C24.4,338,28.6,314.2,36.7,306.2z"/>
		<path class="st0" d="M300.8,447.9l0.2,0.2c-3.4,13.2-9.4,23.7-17.9,31.4c-8.6,7.7-18.5,11.5-29.7,11.5c-20.8,0-36.9-9.8-48.4-29.4
			c-9.8-16.7-14.7-36.9-14.7-60.8c0-10.9,0.8-21.1,2.4-30.4c7.2-42.6,22.4-66.7,45.7-72.1c2.1-0.5,4.3-0.7,6.7-0.7
			c10.5,0,20.6,4.3,30.5,13c9.9,8.7,16.5,19.2,19.9,31.6c7.3,27,11,48,11,63c0,12.7-1.9,27-5.7,42.6H300.8z M252.2,430.2V430
			c3.8-0.8,5.7-9.9,5.7-27.2c0-10-0.7-19.2-2.2-27.6c-1.4-8.4-3-12.8-4.7-13.1c-2.9-1-5.5,2.9-7.8,11.8c-2.4,8.8-3.5,18.5-3.5,29.2
			C239.6,422.8,243.8,431.9,252.2,430.2z"/>
		<path class="st0" d="M433.5,346.4v-0.2c1.3,19,2,36.8,2,53.7c0,51.8-6.9,80.9-20.6,87.3c-2.1,1-4.5,1.5-7.3,1.5
			c-3.3,0-7.5-0.8-12.7-2.5c-6.5-4.6-16.5-30.8-30-78.7c2.4,12.6,3.5,25.1,3.5,37.4c0,13.6-1.6,24.4-4.7,32.4c-1.4,3.8-4,7-7.7,9.7
			s-7.3,3.8-10.7,3.3c-10.9-1.3-18.2-9.6-22.2-24.8c-2.6-10.1-3.9-25.9-3.9-47.1c0-41.4,1.4-69.2,4.1-83.4
			c2.1-10.6,6.9-19.4,14.3-26.3c4.3-3.9,9.1-5.9,14.5-5.9c2.9,0,5.8,0.6,8.6,1.7c7.6,5.1,15,20.2,22.4,45.3c3,10.1,5.8,22.1,8.4,36
			c-1.3-10.8-2.4-20.3-3.3-28.4c-1.6-14.4-2.4-24.9-2.4-31.6c0-8,1.7-14.6,5.1-19.9c3.9-6,9.5-9.1,16.7-9.1
			c12.7,0,20.6,8.8,23.7,26.5C432,327.1,432.8,334.8,433.5,346.4z"/>
		<path class="st0" d="M547.5,383.4c0,22.5-3.9,42.9-11.8,61c-9.5,22.4-23.7,36.9-42.5,43.6c-10.2,0.8-19.4-0.7-27.5-4.5
			c-8.2-3.8-12.5-8.9-12.8-15.1c-2.4-43.6-3.5-85.5-3.5-125.7c0-14.9,0.3-25.5,0.8-31.9c3.3-8.8,13.8-13.2,31.6-13.2
			c10.1,0,19,1.5,26.9,4.4c8.2,4.7,15.7,12.6,22.4,23.5C541.9,343.9,547.5,363.1,547.5,383.4z M498.4,361.3
			c-1.8-2.8-3.6-4.2-5.3-4.2c-0.8,0-1.8,0.3-2.9,1c-1.2,0.7-1.8,1-2,1c1.4,11.6,2.4,30.9,2.7,57.8c3.8-3.3,7-8.1,9.5-14.5
			s3.8-12.8,3.8-19.4C504.3,374.7,502.4,367.4,498.4,361.3z"/>
		<path class="st0" d="M647.7,371.9c0.5,2.5,0.7,5,0.6,7.6c0,8.7-2.8,15.9-8.4,21.8c-5.1,5.6-10.6,7.9-16.5,7.1
			c-1-0.5-3-0.6-5.9-0.2c0.3,2-0.2,7.2-1.4,15.7c0,3.9,1.4,6.9,4.1,8.8c5.4-1.8,9.7-1.8,13.1,0c5.4,2.6,8.3,7,8.8,13.2
			c0.7,7-1,14.2-4.9,21.4c-3.9,7.3-9.3,13.4-16.3,18.3c-6.1,4.4-13.4,6.6-21.8,6.6c-7.3,0-13.9-1.7-19.8-5.1
			c-2.5-1.5-6.2-6-11.2-13.7c-5.4-11.1-8.1-34.6-8.2-70.3c-0.1-20.6,1.2-44.1,4.1-70.6c1.7-15.4,5.2-25.3,10.6-29.9l32.7-4.2
			c5.6-1.5,11-2.2,16.1-2.2c10.2,0,16.2,3.2,18,9.6c0.8,2.6,1.2,5.6,1.2,8.8c0,7-2.1,12.7-6.3,17.2c-4.2,4.4-10,6.6-17.5,6.6
			c-1.8,0-3.3,0-4.3,0c-0.9,2.4-1.4,6.3-1.6,11.7c-0.3,6.8-0.5,10.7-0.6,11.7c0.4,2.3,1.8,3.7,4.1,4.4c3.8-3.8,8.6-5.6,14.3-5.6
			C637.7,360.4,643.2,364.2,647.7,371.9z"/>
		<path class="st0" d="M772,465h-0.2c-1.8,4.9-4.9,9.9-9.2,15c-5.6,6.4-11.3,10-17.1,10.8c-11.1,1.5-22.5-12.7-34.1-42.4
			c0.4,4.2,0.6,7.8,0.6,10.9c0,10-2,17.9-5.9,23.7c-6,5.2-12,7.8-18,7.8c-2.6,0-5-0.3-7.1-1c-7.7-2.4-12.7-5.5-15.1-9.3
			c-3.1-4.9-4.7-13.7-4.7-26.4v-9.8c-0.4-0.5-0.3-15.1,0.4-43.8c0.8-32.4,2.3-57.1,4.5-74.1c1.7-12.2,8.6-20.6,20.8-25.2
			c5.8-2.1,17.1-4.2,33.9-6.4c20,0.8,33.7,9.2,41.2,25c5.6,15.9,8.4,30.4,8.2,43.6c-0.1,13.6-3.1,24.9-8.8,34.1
			c-0.9,1.5-4.6,5.8-11.2,13c14.8,19.9,22.2,36.6,22.2,50C772.4,461.6,772.2,463.1,772,465z M715.9,350.8h-0.2
			c-0.8-0.3-1.4-0.5-2-0.5c-0.5,0-2.5,1.1-6.1,3.4c-0.5,0.7-0.7,4.8-0.6,12.5c0.1,9,0.2,17.5,0.2,25.5c5-2.1,9.2-5.2,12.6-9.2
			c3.5-4,5.2-8.2,5.2-12.6C725.1,363.9,722,357.5,715.9,350.8z"/>
		<path class="st0" d="M866.7,452.5h-0.2c-1.4,14.1-5.6,23.4-12.4,27.9c-9.4,4.7-19,7.1-28.6,7.1c-27.7,0-41.6-18.7-41.6-56.1V417
			c0-1.8,0.1-4.6,0.2-8.3c0.1-2.9,0.2-5.1,0.2-6.4c-0.7-33,0.5-59.4,3.3-79.2c2.4-8.3,5.1-14.1,8.1-17.2c3.1-3.1,7.8-5,14.2-5.6
			c1.4-0.2,3-0.2,4.7-0.2c5.6,0,9.7,1.5,12.2,4.4c1,1.3,3,5.1,5.9,11.5c2.2,10.8,3.3,24.5,3.3,41.2c0,10.3-0.8,26.4-2.4,48.3
			c-1,15.2-1.2,23.3-0.4,24.3c5-3.1,11.1-4.7,18.4-4.7c1.8,0,3.1,0.2,3.9,0.7c3.8,1.6,6.6,5.3,8.4,11c1.2,3.8,2,9.2,2.5,16.2V452.5z
			"/>
		<path class="st0" d="M991.2,469.4v0.2c-1.2,7.8-5,12.7-11.6,14.7c-3.3,1-6.7,1.5-10.2,1.5c-6.4,0-11.6-1.9-15.7-5.6
			c-2.9-4.7-4.6-7.8-5.1-9.3c-1.7-4.2-2.5-9.7-2.5-16.4c-5.2-0.3-11.2,0-17.8,1c0.3,1.5,0.5,3.7,0.8,6.6c0,6.7-1.5,13.6-4.5,20.8
			c-3.8,6.7-9.3,10-16.7,10c-3.5,0-7.9-0.8-13.1-2.5l-0.4-0.5c-11.1-6.9-16.7-23.9-16.7-51.2c0-1.8,0.1-6,0.4-12.7
			c1-25.7,2.9-45.7,5.7-60.3c3.9-20.6,10.8-39.1,20.8-55.4c7.7-12.6,18.9-18.9,33.5-18.9c15.7,0,27.5,6.1,35.5,18.4
			c4.7,7.2,8,15.6,10,25.2c7.2,34.5,10.8,64.8,10.8,90.9C994.3,441.4,993.3,455.9,991.2,469.4z M941.6,405.2c0.9-13.2,0.3-33.9-2-62
			c-0.9-1.1-2.3-0.7-4.1,1.2c-1.7,13.9-2.9,25.2-3.7,33.8c-1.3,15.2-1.8,23.9-1.4,26c0.7,1.8,1.8,2.7,3.3,2.7c0.5,0,1.9-0.3,4-0.9
			C939.9,405.5,941.2,405.2,941.6,405.2z"/>
		<path class="st0" d="M1122,346.4v-0.2c1.3,19,2,36.8,2,53.7c0,51.8-6.9,80.9-20.6,87.3c-2.1,1-4.5,1.5-7.3,1.5
			c-3.3,0-7.5-0.8-12.7-2.5c-6.5-4.6-16.5-30.8-30-78.7c2.4,12.6,3.5,25.1,3.5,37.4c0,13.6-1.6,24.4-4.7,32.4c-1.4,3.8-4,7-7.7,9.7
			s-7.3,3.8-10.7,3.3c-10.9-1.3-18.2-9.6-22.2-24.8c-2.6-10.1-3.9-25.9-3.9-47.1c0-41.4,1.4-69.2,4.1-83.4
			c2.1-10.6,6.9-19.4,14.3-26.3c4.3-3.9,9.1-5.9,14.5-5.9c2.9,0,5.8,0.6,8.6,1.7c7.6,5.1,15,20.2,22.4,45.3c3,10.1,5.8,22.1,8.4,36
			c-1.3-10.8-2.4-20.3-3.3-28.4c-1.6-14.4-2.4-24.9-2.4-31.6c0-8,1.7-14.6,5.1-19.9c3.9-6,9.5-9.1,16.7-9.1
			c12.7,0,20.6,8.8,23.7,26.5C1120.5,327.1,1121.2,334.8,1122,346.4z"/>
		<path class="st0" d="M1235.9,383.4c0,22.5-3.9,42.9-11.8,61c-9.5,22.4-23.7,36.9-42.5,43.6c-10.2,0.8-19.4-0.7-27.5-4.5
			c-8.2-3.8-12.5-8.9-12.8-15.1c-2.4-43.6-3.5-85.5-3.5-125.7c0-14.9,0.3-25.5,0.8-31.9c3.3-8.8,13.8-13.2,31.6-13.2
			c10.1,0,19,1.5,26.9,4.4c8.2,4.7,15.7,12.6,22.4,23.5C1230.3,343.9,1235.9,363.1,1235.9,383.4z M1186.9,361.3
			c-1.8-2.8-3.6-4.2-5.3-4.2c-0.8,0-1.8,0.3-2.9,1c-1.2,0.7-1.8,1-2,1c1.4,11.6,2.4,30.9,2.7,57.8c3.8-3.3,7-8.1,9.5-14.5
			s3.8-12.8,3.8-19.4C1192.7,374.7,1190.8,367.4,1186.9,361.3z"/>
	</g>
	<g>
		<g>
			<path class="st1" d="M361.5,196.4v0.2c-1.2,7.8-5,12.7-11.6,14.7c-3.3,1-6.7,1.5-10.2,1.5c-6.4,0-11.6-1.9-15.7-5.6
				c-2.9-4.7-4.6-7.8-5.1-9.3c-1.7-4.2-2.5-9.7-2.5-16.4c-5.2-0.3-11.2,0-17.8,1c0.3,1.5,0.5,3.7,0.8,6.6c0,6.7-1.5,13.6-4.5,20.8
				c-3.8,6.7-9.3,10-16.7,10c-3.5,0-7.9-0.8-13.1-2.5l-0.4-0.5c-11.1-6.9-16.7-23.9-16.7-51.2c0-1.8,0.1-6,0.4-12.7
				c1-25.7,2.9-45.7,5.7-60.3c3.9-20.6,10.8-39.1,20.8-55.4c7.7-12.6,18.9-18.9,33.5-18.9c15.7,0,27.5,6.1,35.5,18.4
				c4.7,7.2,8,15.6,10,25.2c7.2,34.5,10.8,64.8,10.8,90.9C364.6,168.4,363.6,182.9,361.5,196.4z M311.9,132.2
				c0.9-13.2,0.3-33.9-2-62c-0.9-1.1-2.3-0.7-4.1,1.2c-1.7,13.9-2.9,25.2-3.7,33.8c-1.3,15.2-1.8,23.9-1.4,26
				c0.7,1.8,1.8,2.7,3.3,2.7c0.5,0,1.9-0.3,4-0.9C310.2,132.5,311.5,132.2,311.9,132.2z"/>
			<path class="st1" d="M458.5,179.5h-0.2c-1.4,14.1-5.6,23.4-12.4,27.9c-9.4,4.7-19,7.1-28.6,7.1c-27.7,0-41.6-18.7-41.6-56.1V144
				c0-1.8,0.1-4.6,0.2-8.3c0.1-2.9,0.2-5.1,0.2-6.4c-0.7-33,0.5-59.4,3.3-79.2c2.4-8.3,5.1-14.1,8.1-17.2c3.1-3.1,7.8-5,14.2-5.6
				c1.4-0.2,3-0.2,4.7-0.2c5.6,0,9.7,1.5,12.2,4.4c1,1.3,3,5.1,5.9,11.5c2.2,10.8,3.3,24.5,3.3,41.2c0,10.3-0.8,26.4-2.4,48.3
				c-1,15.2-1.2,23.3-0.4,24.3c5-3.1,11.1-4.7,18.4-4.7c1.8,0,3.1,0.2,3.9,0.7c3.8,1.6,6.6,5.3,8.4,11c1.2,3.8,2,9.2,2.5,16.2V179.5
				z"/>
			<path class="st1" d="M557.4,98.9c0.5,2.5,0.7,5,0.6,7.6c0,8.7-2.8,15.9-8.4,21.8c-5.1,5.6-10.6,7.9-16.5,7.1
				c-1-0.5-3-0.6-5.9-0.2c0.3,2-0.2,7.2-1.4,15.7c0,3.9,1.4,6.9,4.1,8.8c5.4-1.8,9.7-1.8,13.1,0c5.4,2.6,8.3,7,8.8,13.2
				c0.7,7-1,14.2-4.9,21.4c-3.9,7.3-9.3,13.4-16.3,18.3c-6.1,4.4-13.4,6.6-21.8,6.6c-7.3,0-13.9-1.7-19.8-5.1
				c-2.5-1.5-6.2-6-11.2-13.7c-5.4-11.1-8.1-34.6-8.2-70.3c-0.1-20.6,1.2-44.1,4.1-70.6c1.7-15.4,5.2-25.3,10.6-29.9l32.7-4.2
				c5.6-1.5,11-2.2,16.1-2.2c10.2,0,16.2,3.2,18,9.6c0.8,2.6,1.2,5.6,1.2,8.8c0,7-2.1,12.7-6.3,17.2c-4.2,4.4-10,6.6-17.5,6.6
				c-1.8,0-3.3,0-4.3,0c-0.9,2.4-1.4,6.3-1.6,11.7c-0.3,6.8-0.5,10.7-0.6,11.7c0.4,2.3,1.8,3.7,4.1,4.4c3.8-3.8,8.6-5.6,14.3-5.6
				C547.4,87.4,552.9,91.2,557.4,98.9z"/>
			<path class="st1" d="M669.1,99.1c-8.8,15-13.4,23.1-13.9,24.3c-0.5,7.5,2.1,15.4,7.8,23.5c7.1,10,11,18.1,12,24.5
				c0.8,5.2,1.2,10.7,1.2,16.4c0.1,13.6-3.3,22.6-10.2,27.2c-3.5,2.3-7.6,3.4-12.4,3.4c-6.5,0-12.6-2-18.2-6.1
				c-6.7-7.5-10.1-18.5-10.2-33.1c-0.8-1.8-1.8-1.7-2.9,0.2c-2.5,4.3-4.9,11.2-7.3,20.8c-1.6,6.5-4.6,11.1-9.2,13.7
				c-5,2.1-9.5,3.2-13.7,3.2c-5.9,0-10.6-2.1-14.1-6.4c-5.6-6.9-8.4-15.4-8.2-25.7c0.1-10.5,3.3-21.3,9.4-32.6
				c7.5-12.9,13.1-22.6,16.9-29.2c0.1-3.8-2.2-9.6-6.9-17.6c-5.1-8.5-7.9-14.2-8.4-17.2c-2.4-12.9-3.5-23.3-3.5-31.1
				c0-11.3,2.5-20.1,7.5-26.5c3.1-4.1,7.7-6.1,13.7-6.1c4.6,0,9,1.1,13.3,3.4c4,3.9,7.6,10.3,10.7,19.2c3.1,8.9,4.6,17,4.6,24.1
				c0,1.1-0.1,2.9-0.4,5.1c1.3,0.8,2.3,1.1,2.9,0.7c1.3-11.9,2.3-20.9,2.9-27c2.5-20.6,9.8-30.9,22-30.9c3.8,0,8,2.2,12.7,6.6
				c9.1,8.7,13.9,19.4,14.1,32.1c0.1,4.1-0.3,9-1.4,14.7l0.2,0.2C678.8,80.1,675.1,88.7,669.1,99.1z"/>
			<path class="st1" d="M804.6,56.5c0,6.7,0.1,14.9,0.4,24.5c0.3,9.6,0.4,15.9,0.4,18.6c0.1,32.4-1.6,61.3-5.3,86.8
				c-2.4,16.5-8.4,26.4-18,29.7c-2.9,0.3-4.8,0.5-5.9,0.5c-13.2,0-20.7-7.6-22.4-22.8c-3-26.1-4.4-49.8-4.3-70.8
				c0.1-22.2,1.5-41.9,4.1-59.1l5.3-16.4c6.8-12.3,16.5-18.4,29-18.4c2.9,0,5.4,0.3,7.6,1c3.7,2.1,6.1,6,7.3,11.5L804.6,56.5z"/>
			<path class="st1" d="M934.4,73.4v-0.2c1.3,19,2,36.8,2,53.7c0,51.8-6.9,80.9-20.6,87.3c-2.1,1-4.5,1.5-7.3,1.5
				c-3.3,0-7.5-0.8-12.7-2.5c-6.5-4.6-16.5-30.8-30-78.7c2.4,12.6,3.5,25.1,3.5,37.4c0,13.6-1.6,24.4-4.7,32.4c-1.4,3.8-4,7-7.7,9.7
				s-7.3,3.8-10.7,3.3c-10.9-1.3-18.2-9.6-22.2-24.8c-2.6-10.1-3.9-25.9-3.9-47.1c0-41.4,1.4-69.2,4.1-83.4
				c2.1-10.6,6.9-19.4,14.3-26.3c4.3-3.9,9.1-5.9,14.5-5.9c2.9,0,5.8,0.6,8.6,1.7c7.6,5.1,15,20.2,22.4,45.3c3,10.1,5.8,22.1,8.4,36
				c-1.3-10.8-2.4-20.3-3.3-28.4c-1.6-14.4-2.4-24.9-2.4-31.6c0-8,1.7-14.6,5.1-19.9c3.9-6,9.5-9.1,16.7-9.1
				c12.7,0,20.6,8.8,23.7,26.5C932.9,54.1,933.6,61.8,934.4,73.4z"/>
			<path class="st1" d="M26.7,293.2c4.2-4.1,8.6-6.1,13.3-6.1c9.9,0,16.4,6.9,19.4,20.8c0.5,2.6,1.4,10.3,2.7,23l0.6,42.6
				c0.9,1.5,1.9,2.2,2.9,2.2c1-1.6,1.7-4.5,2-8.6l0.4-7.4c1.6-5.9,4.1-14.6,7.5-26.2c3.3-10.1,8.8-16.1,16.7-17.9
				c5.6-0.2,9.8,2.9,12.5,9.3c2,4.6,3.6,12.4,4.9,23.5c1,8.8,1.4,14.3,1.2,16.4c-0.9,3.6-0.8,7.5,0.4,11.8c1.8,0.5,2.8-0.2,2.9-2
				c1.7-35.8,6.4-61.8,14.1-77.9c2.4-5.1,5-8.4,7.8-10c1.8-1.5,4.6-2.5,8.2-2.9c6.4-0.8,12.4,2.2,18,9.1c4.3,5.2,6.5,12.6,6.5,22.1
				c0,3.6-1,12-3.1,25.3c-2.2,15.7-5.7,39.2-10.4,70.4c-4.3,27.7-11.2,48.1-20.6,61.4c-3.4,3.4-7.9,5.2-13.5,5.2
				c-6.5,0-12.5-2-18-5.9c-4.4-4.6-7.4-10.7-8.8-18.4c-1.2-6.1-1.8-13.6-2-22.6c-0.3-10.8-0.7-18.2-1.4-22.1c-1.3-1.5-2.4-2.1-3.3-2
				c-0.4,2.5-1.2,12.3-2.5,29.4c-1,12.9-2.5,22.5-4.5,28.7c-3.1,9.5-9.2,14.6-18.2,15.4c-14.5,1.3-25.6-6.5-33.3-23.5
				c-4.7-8.2-8.4-20.5-11.1-37.1c-2.7-16.6-4-34.8-3.8-54.5C14.4,325,18.6,301.2,26.7,293.2z"/>
			<path class="st1" d="M290.8,434.9l0.2,0.2c-3.4,13.2-9.4,23.7-17.9,31.4c-8.6,7.7-18.5,11.5-29.7,11.5
				c-20.8,0-36.9-9.8-48.4-29.4c-9.8-16.7-14.7-36.9-14.7-60.8c0-10.9,0.8-21.1,2.4-30.4c7.2-42.6,22.4-66.7,45.7-72.1
				c2.1-0.5,4.3-0.7,6.7-0.7c10.5,0,20.6,4.3,30.5,13c9.9,8.7,16.5,19.2,19.9,31.6c7.3,27,11,48,11,63c0,12.7-1.9,27-5.7,42.6H290.8
				z M242.2,417.2V417c3.8-0.8,5.7-9.9,5.7-27.2c0-10-0.7-19.2-2.2-27.6c-1.4-8.4-3-12.8-4.7-13.1c-2.9-1-5.5,2.9-7.8,11.8
				c-2.4,8.8-3.5,18.5-3.5,29.2C229.6,409.8,233.8,418.9,242.2,417.2z"/>
			<path class="st1" d="M423.5,333.4v-0.2c1.3,19,2,36.8,2,53.7c0,51.8-6.9,80.9-20.6,87.3c-2.1,1-4.5,1.5-7.3,1.5
				c-3.3,0-7.5-0.8-12.7-2.5c-6.5-4.6-16.5-30.8-30-78.7c2.4,12.6,3.5,25.1,3.5,37.4c0,13.6-1.6,24.4-4.7,32.4c-1.4,3.8-4,7-7.7,9.7
				s-7.3,3.8-10.7,3.3c-10.9-1.3-18.2-9.6-22.2-24.8c-2.6-10.1-3.9-25.9-3.9-47.1c0-41.4,1.4-69.2,4.1-83.4
				c2.1-10.6,6.9-19.4,14.3-26.3c4.3-3.9,9.1-5.9,14.5-5.9c2.9,0,5.8,0.6,8.6,1.7c7.6,5.1,15,20.2,22.4,45.3c3,10.1,5.8,22.1,8.4,36
				c-1.3-10.8-2.4-20.3-3.3-28.4c-1.6-14.4-2.4-24.9-2.4-31.6c0-8,1.7-14.6,5.1-19.9c3.9-6,9.5-9.1,16.7-9.1
				c12.7,0,20.6,8.8,23.7,26.5C422,314.1,422.8,321.8,423.5,333.4z"/>
			<path class="st1" d="M537.5,370.4c0,22.5-3.9,42.9-11.8,61c-9.5,22.4-23.7,36.9-42.5,43.6c-10.2,0.8-19.4-0.7-27.5-4.5
				c-8.2-3.8-12.5-8.9-12.8-15.1c-2.4-43.6-3.5-85.5-3.5-125.7c0-14.9,0.3-25.5,0.8-31.9c3.3-8.8,13.8-13.2,31.6-13.2
				c10.1,0,19,1.5,26.9,4.4c8.2,4.7,15.7,12.6,22.4,23.5C531.9,330.9,537.5,350.1,537.5,370.4z M488.4,348.3
				c-1.8-2.8-3.6-4.2-5.3-4.2c-0.8,0-1.8,0.3-2.9,1c-1.2,0.7-1.8,1-2,1c1.4,11.6,2.4,30.9,2.7,57.8c3.8-3.3,7-8.1,9.5-14.5
				s3.8-12.8,3.8-19.4C494.3,361.7,492.4,354.4,488.4,348.3z"/>
			<path class="st1" d="M637.7,358.9c0.5,2.5,0.7,5,0.6,7.6c0,8.7-2.8,15.9-8.4,21.8c-5.1,5.6-10.6,7.9-16.5,7.1
				c-1-0.5-3-0.6-5.9-0.2c0.3,2-0.2,7.2-1.4,15.7c0,3.9,1.4,6.9,4.1,8.8c5.4-1.8,9.7-1.8,13.1,0c5.4,2.6,8.3,7,8.8,13.2
				c0.7,7-1,14.2-4.9,21.4c-3.9,7.3-9.3,13.4-16.3,18.3c-6.1,4.4-13.4,6.6-21.8,6.6c-7.3,0-13.9-1.7-19.8-5.1
				c-2.5-1.5-6.2-6-11.2-13.7c-5.4-11.1-8.1-34.6-8.2-70.3c-0.1-20.6,1.2-44.1,4.1-70.6c1.7-15.4,5.2-25.3,10.6-29.9l32.7-4.2
				c5.6-1.5,11-2.2,16.1-2.2c10.2,0,16.2,3.2,18,9.6c0.8,2.6,1.2,5.6,1.2,8.8c0,7-2.1,12.7-6.3,17.2c-4.2,4.4-10,6.6-17.5,6.6
				c-1.8,0-3.3,0-4.3,0c-0.9,2.4-1.4,6.3-1.6,11.7c-0.3,6.8-0.5,10.7-0.6,11.7c0.4,2.3,1.8,3.7,4.1,4.4c3.8-3.8,8.6-5.6,14.3-5.6
				C627.7,347.4,633.2,351.2,637.7,358.9z"/>
			<path class="st1" d="M762,452h-0.2c-1.8,4.9-4.9,9.9-9.2,15c-5.6,6.4-11.3,10-17.1,10.8c-11.1,1.5-22.5-12.7-34.1-42.4
				c0.4,4.2,0.6,7.8,0.6,10.9c0,10-2,17.9-5.9,23.7c-6,5.2-12,7.8-18,7.8c-2.6,0-5-0.3-7.1-1c-7.7-2.4-12.7-5.5-15.1-9.3
				c-3.1-4.9-4.7-13.7-4.7-26.4v-9.8c-0.4-0.5-0.3-15.1,0.4-43.8c0.8-32.4,2.3-57.1,4.5-74.1c1.7-12.2,8.6-20.6,20.8-25.2
				c5.8-2.1,17.1-4.2,33.9-6.4c20,0.8,33.7,9.2,41.2,25c5.6,15.9,8.4,30.4,8.2,43.6c-0.1,13.6-3.1,24.9-8.8,34.1
				c-0.9,1.5-4.6,5.8-11.2,13c14.8,19.9,22.2,36.6,22.2,50C762.4,448.6,762.2,450.1,762,452z M705.9,337.8h-0.2
				c-0.8-0.3-1.4-0.5-2-0.5c-0.5,0-2.5,1.1-6.1,3.4c-0.5,0.7-0.7,4.8-0.6,12.5c0.1,9,0.2,17.5,0.2,25.5c5-2.1,9.2-5.2,12.6-9.2
				c3.5-4,5.2-8.2,5.2-12.6C715.1,350.9,712,344.5,705.9,337.8z"/>
			<path class="st1" d="M856.7,439.5h-0.2c-1.4,14.1-5.6,23.4-12.4,27.9c-9.4,4.7-19,7.1-28.6,7.1c-27.7,0-41.6-18.7-41.6-56.1V404
				c0-1.8,0.1-4.6,0.2-8.3c0.1-2.9,0.2-5.1,0.2-6.4c-0.7-33,0.5-59.4,3.3-79.2c2.4-8.3,5.1-14.1,8.1-17.2c3.1-3.1,7.8-5,14.2-5.6
				c1.4-0.2,3-0.2,4.7-0.2c5.6,0,9.7,1.5,12.2,4.4c1,1.3,3,5.1,5.9,11.5c2.2,10.8,3.3,24.5,3.3,41.2c0,10.3-0.8,26.4-2.4,48.3
				c-1,15.2-1.2,23.3-0.4,24.3c5-3.1,11.1-4.7,18.4-4.7c1.8,0,3.1,0.2,3.9,0.7c3.8,1.6,6.6,5.3,8.4,11c1.2,3.8,2,9.2,2.5,16.2V439.5
				z"/>
			<path class="st1" d="M981.2,456.4v0.2c-1.2,7.8-5,12.7-11.6,14.7c-3.3,1-6.7,1.5-10.2,1.5c-6.4,0-11.6-1.9-15.7-5.6
				c-2.9-4.7-4.6-7.8-5.1-9.3c-1.7-4.2-2.5-9.7-2.5-16.4c-5.2-0.3-11.2,0-17.8,1c0.3,1.5,0.5,3.7,0.8,6.6c0,6.7-1.5,13.6-4.5,20.8
				c-3.8,6.7-9.3,10-16.7,10c-3.5,0-7.9-0.8-13.1-2.5l-0.4-0.5c-11.1-6.9-16.7-23.9-16.7-51.2c0-1.8,0.1-6,0.4-12.7
				c1-25.7,2.9-45.7,5.7-60.3c3.9-20.6,10.8-39.1,20.8-55.4c7.7-12.6,18.9-18.9,33.5-18.9c15.7,0,27.5,6.1,35.5,18.4
				c4.7,7.2,8,15.6,10,25.2c7.2,34.5,10.8,64.8,10.8,90.9C984.3,428.4,983.3,442.9,981.2,456.4z M931.6,392.2
				c0.9-13.2,0.3-33.9-2-62c-0.9-1.1-2.3-0.7-4.1,1.2c-1.7,13.9-2.9,25.2-3.7,33.8c-1.3,15.2-1.8,23.9-1.4,26
				c0.7,1.8,1.8,2.7,3.3,2.7c0.5,0,1.9-0.3,4-0.9C929.9,392.5,931.2,392.2,931.6,392.2z"/>
			<path class="st1" d="M1112,333.4v-0.2c1.3,19,2,36.8,2,53.7c0,51.8-6.9,80.9-20.6,87.3c-2.1,1-4.5,1.5-7.3,1.5
				c-3.3,0-7.5-0.8-12.7-2.5c-6.5-4.6-16.5-30.8-30-78.7c2.4,12.6,3.5,25.1,3.5,37.4c0,13.6-1.6,24.4-4.7,32.4c-1.4,3.8-4,7-7.7,9.7
				s-7.3,3.8-10.7,3.3c-10.9-1.3-18.2-9.6-22.2-24.8c-2.6-10.1-3.9-25.9-3.9-47.1c0-41.4,1.4-69.2,4.1-83.4
				c2.1-10.6,6.9-19.4,14.3-26.3c4.3-3.9,9.1-5.9,14.5-5.9c2.9,0,5.8,0.6,8.6,1.7c7.6,5.1,15,20.2,22.4,45.3c3,10.1,5.8,22.1,8.4,36
				c-1.3-10.8-2.4-20.3-3.3-28.4c-1.6-14.4-2.4-24.9-2.4-31.6c0-8,1.7-14.6,5.1-19.9c3.9-6,9.5-9.1,16.7-9.1
				c12.7,0,20.6,8.8,23.7,26.5C1110.5,314.1,1111.2,321.8,1112,333.4z"/>
			<path class="st1" d="M1225.9,370.4c0,22.5-3.9,42.9-11.8,61c-9.5,22.4-23.7,36.9-42.5,43.6c-10.2,0.8-19.4-0.7-27.5-4.5
				c-8.2-3.8-12.5-8.9-12.8-15.1c-2.4-43.6-3.5-85.5-3.5-125.7c0-14.9,0.3-25.5,0.8-31.9c3.3-8.8,13.8-13.2,31.6-13.2
				c10.1,0,19,1.5,26.9,4.4c8.2,4.7,15.7,12.6,22.4,23.5C1220.3,330.9,1225.9,350.1,1225.9,370.4z M1176.9,348.3
				c-1.8-2.8-3.6-4.2-5.3-4.2c-0.8,0-1.8,0.3-2.9,1c-1.2,0.7-1.8,1-2,1c1.4,11.6,2.4,30.9,2.7,57.8c3.8-3.3,7-8.1,9.5-14.5
				s3.8-12.8,3.8-19.4C1182.7,361.7,1180.8,354.4,1176.9,348.3z"/>
		</g>
	</g>
</g>
</svg>
